<svg xmlns="http://www.w3.org/2000/svg" xmlns:xlink="http://www.w3.org/1999/xlink" xmlns:lucid="lucid" width="2370.34" height="549.98"><g transform="translate(19044.76796296296 21202.404315025233)" lucid:page-tab-id="0_0"><path d="M-19044.77-21196.4a6 6 0 0 1 6-6h599.27a6 6 0 0 1 6 6v30a6 6 0 0 1-6 6h-599.27a6 6 0 0 1-6-6z" fill="none"/><use xlink:href="#a" transform="matrix(1,0,0,1,-19039.76796296296,-21197.404315025233) translate(0 21.833333333333336)"/><use xlink:href="#b" transform="matrix(1,0,0,1,-19039.76796296296,-21197.404315025233) translate(7.407407407407408 21.833333333333336)"/><use xlink:href="#c" transform="matrix(1,0,0,1,-19039.76796296296,-21197.404315025233) translate(166.51851851851856 21.833333333333336)"/><use xlink:href="#d" transform="matrix(1,0,0,1,-19039.76796296296,-21197.404315025233) translate(360.0000000000001 21.833333333333336)"/><use xlink:href="#e" transform="matrix(1,0,0,1,-19039.76796296296,-21197.404315025233) translate(496.0740740740742 21.833333333333336)"/><path d="M-18594.48-21101.9a6 6 0 0 1 6-6h568.68a6 6 0 0 1 6 6v30.02a6 6 0 0 1-6 6h-568.68a6 6 0 0 1-6-6z" fill="none"/><use xlink:href="#f" transform="matrix(1,0,0,1,-18589.4796506944,-21102.886735164142) translate(0 21.833333333333336)"/><use xlink:href="#g" transform="matrix(1,0,0,1,-18589.4796506944,-21102.886735164142) translate(114.96296296296298 21.833333333333336)"/><use xlink:href="#h" transform="matrix(1,0,0,1,-18589.4796506944,-21102.886735164142) translate(296.8148148148149 21.833333333333336)"/><use xlink:href="#i" transform="matrix(1,0,0,1,-18589.4796506944,-21102.886735164142) translate(414.0000000000001 21.833333333333336)"/><path d="M-19040-20932.43a6 6 0 0 1 6-6h293a6 6 0 0 1 6 6v152.68a6 6 0 0 1-6 6h-293a6 6 0 0 1-6-6z" fill="none"/><use xlink:href="#j" transform="matrix(1,0,0,1,-19035,-20933.426221433067) translate(0 21.50001818177686)"/><use xlink:href="#k" transform="matrix(1,0,0,1,-19035,-20933.426221433067) translate(105.1111111111111 21.50001818177686)"/><use xlink:href="#l" transform="matrix(1,0,0,1,-19035,-20933.426221433067) translate(0 52.1666757575551)"/><use xlink:href="#m" transform="matrix(1,0,0,1,-19035,-20933.426221433067) translate(0 82.83333333333334)"/><use xlink:href="#n" transform="matrix(1,0,0,1,-19035,-20933.426221433067) translate(174.51851851851853 82.83333333333334)"/><use xlink:href="#o" transform="matrix(1,0,0,1,-19035,-20933.426221433067) translate(0 113.49999090911157)"/><use xlink:href="#p" transform="matrix(1,0,0,1,-19035,-20933.426221433067) translate(72.51851851851852 113.49999090911157)"/><use xlink:href="#q" transform="matrix(1,0,0,1,-19035,-20933.426221433067) translate(87.33333333333334 113.49999090911157)"/><use xlink:href="#r" transform="matrix(1,0,0,1,-19035,-20933.426221433067) translate(152.44444444444446 113.49999090911157)"/><use xlink:href="#s" transform="matrix(1,0,0,1,-19035,-20933.426221433067) translate(264.8888888888889 113.49999090911157)"/><use xlink:href="#t" transform="matrix(1,0,0,1,-19035,-20933.426221433067) translate(0 144.1666484848898)"/><path d="M-18600-20855.86a6 6 0 0 1 6-6h696.9a6 6 0 0 1 6 6v30a6 6 0 0 1-6 6h-696.9a6 6 0 0 1-6-6z" fill="none"/><use xlink:href="#u" transform="matrix(1,0,0,1,-18595,-20856.864178030275) translate(0 21.833333333333336)"/><use xlink:href="#v" transform="matrix(1,0,0,1,-18595,-20856.864178030275) translate(142.00000000000003 21.833333333333336)"/><use xlink:href="#g" transform="matrix(1,0,0,1,-18595,-20856.864178030275) translate(228.37037037037038 21.833333333333336)"/><use xlink:href="#h" transform="matrix(1,0,0,1,-18595,-20856.864178030275) translate(410.2222222222223 21.833333333333336)"/><use xlink:href="#w" transform="matrix(1,0,0,1,-18595,-20856.864178030275) translate(527.4074074074075 21.833333333333336)"/><path d="M-18594.48-20771.73a6 6 0 0 1 6-6h301.63a6 6 0 0 1 6 6v91.34a6 6 0 0 1-6 6h-301.63a6 6 0 0 1-6-6z" fill="none"/><use xlink:href="#x" transform="matrix(1,0,0,1,-18589.4796506944,-20772.729764892843) translate(0 21.666675757555097)"/><use xlink:href="#y" transform="matrix(1,0,0,1,-18589.4796506944,-20772.729764892843) translate(115.4074074074074 21.666675757555097)"/><use xlink:href="#z" transform="matrix(1,0,0,1,-18589.4796506944,-20772.729764892843) translate(186.2962962962963 21.666675757555097)"/><use xlink:href="#A" transform="matrix(1,0,0,1,-18589.4796506944,-20772.729764892843) translate(0 52.333333333333336)"/><use xlink:href="#B" transform="matrix(1,0,0,1,-18589.4796506944,-20772.729764892843) translate(54.66666666666667 52.333333333333336)"/><use xlink:href="#C" transform="matrix(1,0,0,1,-18589.4796506944,-20772.729764892843) translate(170.07407407407408 52.333333333333336)"/><use xlink:href="#D" transform="matrix(1,0,0,1,-18589.4796506944,-20772.729764892843) translate(0 82.99999090911157)"/><use xlink:href="#E" transform="matrix(1,0,0,1,-18589.4796506944,-20772.729764892843) translate(51.85185185185186 82.99999090911157)"/><use xlink:href="#F" transform="matrix(1,0,0,1,-18589.4796506944,-20772.729764892843) translate(146.66666666666669 82.99999090911157)"/><path d="M-18594.48-21028.12a6 6 0 0 1 6-6h338a6 6 0 0 1 6 6v91.34a6 6 0 0 1-6 6h-338a6 6 0 0 1-6-6z" fill="none"/><use xlink:href="#G" transform="matrix(1,0,0,1,-18589.4796506944,-21029.123264835856) translate(0 37.00000454544421)"/><use xlink:href="#H" transform="matrix(1,0,0,1,-18589.4796506944,-21029.123264835856) translate(79.70370370370371 37.00000454544421)"/><use xlink:href="#I" transform="matrix(1,0,0,1,-18589.4796506944,-21029.123264835856) translate(130.07407407407408 37.00000454544421)"/><use xlink:href="#J" transform="matrix(1,0,0,1,-18589.4796506944,-21029.123264835856) translate(218.74074074074076 37.00000454544421)"/><use xlink:href="#K" transform="matrix(1,0,0,1,-18589.4796506944,-21029.123264835856) translate(0 67.66666212122246)"/><use xlink:href="#y" transform="matrix(1,0,0,1,-18589.4796506944,-21029.123264835856) translate(34.074074074074076 67.66666212122246)"/><use xlink:href="#L" transform="matrix(1,0,0,1,-18589.4796506944,-21029.123264835856) translate(104.96296296296298 67.66666212122246)"/><path d="M-18160-21028.12a6 6 0 0 1 6-6h349a6 6 0 0 1 6 6v91.34a6 6 0 0 1-6 6h-349a6 6 0 0 1-6-6z" fill="none"/><use xlink:href="#M" transform="matrix(1,0,0,1,-18155,-21029.123264835856) translate(0 21.666675757555097)"/><use xlink:href="#N" transform="matrix(1,0,0,1,-18155,-21029.123264835856) translate(63.55555555555556 21.666675757555097)"/><use xlink:href="#O" transform="matrix(1,0,0,1,-18155,-21029.123264835856) translate(170.0740740740741 21.666675757555097)"/><use xlink:href="#P" transform="matrix(1,0,0,1,-18155,-21029.123264835856) translate(252.962962962963 21.666675757555097)"/><use xlink:href="#Q" transform="matrix(1,0,0,1,-18155,-21029.123264835856) translate(0 52.333333333333336)"/><use xlink:href="#R" transform="matrix(1,0,0,1,-18155,-21029.123264835856) translate(125.77777777777779 52.333333333333336)"/><use xlink:href="#S" transform="matrix(1,0,0,1,-18155,-21029.123264835856) translate(0 82.99999090911157)"/><path d="M-17720-21034.47a6 6 0 0 1 6-6h248a6 6 0 0 1 6 6v91.34a6 6 0 0 1-6 6h-248a6 6 0 0 1-6-6z" fill="none"/><use xlink:href="#M" transform="matrix(1,0,0,1,-17715,-21035.47165954632) translate(0 21.666675757555097)"/><use xlink:href="#T" transform="matrix(1,0,0,1,-17715,-21035.47165954632) translate(63.55555555555556 21.666675757555097)"/><use xlink:href="#U" transform="matrix(1,0,0,1,-17715,-21035.47165954632) translate(175.92592592592592 21.666675757555097)"/><use xlink:href="#V" transform="matrix(1,0,0,1,-17715,-21035.47165954632) translate(0 52.333333333333336)"/><use xlink:href="#W" transform="matrix(1,0,0,1,-17715,-21035.47165954632) translate(136.0740740740741 52.333333333333336)"/><use xlink:href="#X" transform="matrix(1,0,0,1,-17715,-21035.47165954632) translate(167.11111111111114 52.333333333333336)"/><use xlink:href="#Y" transform="matrix(1,0,0,1,-17715,-21035.47165954632) translate(0 82.99999090911157)"/><path d="M-17380-21034.47a6 6 0 0 1 6-6h268a6 6 0 0 1 6 6v91.34a6 6 0 0 1-6 6h-268a6 6 0 0 1-6-6z" fill="none"/><g><use xlink:href="#Z" transform="matrix(1,0,0,1,-17375,-21035.47165954632) translate(0 21.666675757555097)"/><use xlink:href="#aa" transform="matrix(1,0,0,1,-17375,-21035.47165954632) translate(65.11111111111111 21.666675757555097)"/><use xlink:href="#ab" transform="matrix(1,0,0,1,-17375,-21035.47165954632) translate(145.03703703703707 21.666675757555097)"/><use xlink:href="#ac" transform="matrix(1,0,0,1,-17375,-21035.47165954632) translate(201.2592592592593 21.666675757555097)"/><use xlink:href="#ad" transform="matrix(1,0,0,1,-17375,-21035.47165954632) translate(0 52.333333333333336)"/><use xlink:href="#ae" transform="matrix(1,0,0,1,-17375,-21035.47165954632) translate(100.66666666666667 52.333333333333336)"/><use xlink:href="#af" transform="matrix(1,0,0,1,-17375,-21035.47165954632) translate(189.40740740740742 52.333333333333336)"/><use xlink:href="#ag" transform="matrix(1,0,0,1,-17375,-21035.47165954632) translate(0 82.99999090911157)"/></g><path d="M-17020-21019.4a6 6 0 0 1 6-6h299.8a6 6 0 0 1 6 6v60.66a6 6 0 0 1-6 6h-299.8a6 6 0 0 1-6-6z" fill="none"/><g><use xlink:href="#ah" transform="matrix(1,0,0,1,-17015,-21020.41277626263) translate(0 21.500004545444213)"/><use xlink:href="#ai" transform="matrix(1,0,0,1,-17015,-21020.41277626263) translate(115.48148148148151 21.500004545444213)"/><use xlink:href="#aj" transform="matrix(1,0,0,1,-17015,-21020.41277626263) translate(201.2592592592593 21.500004545444213)"/><use xlink:href="#ak" transform="matrix(1,0,0,1,-17015,-21020.41277626263) translate(0 52.16666212122245)"/><use xlink:href="#al" transform="matrix(1,0,0,1,-17015,-21020.41277626263) translate(127.25925925925925 52.16666212122245)"/><use xlink:href="#am" transform="matrix(1,0,0,1,-17015,-21020.41277626263) translate(153.85185185185185 52.16666212122245)"/></g><path d="M-18160-20780.43a6 6 0 0 1 6-6h316.7a6 6 0 0 1 6 6v122a6 6 0 0 1-6 6h-316.7a6 6 0 0 1-6-6z" fill="none"/><g><use xlink:href="#an" transform="matrix(1,0,0,1,-18155,-20781.434036489878) translate(0 37.1666757575551)"/><use xlink:href="#ao" transform="matrix(1,0,0,1,-18155,-20781.434036489878) translate(108.07407407407406 37.1666757575551)"/><use xlink:href="#ap" transform="matrix(1,0,0,1,-18155,-20781.434036489878) translate(0 67.83333333333334)"/><use xlink:href="#aq" transform="matrix(1,0,0,1,-18155,-20781.434036489878) translate(118.44444444444447 67.83333333333334)"/><use xlink:href="#ar" transform="matrix(1,0,0,1,-18155,-20781.434036489878) translate(168.81481481481484 67.83333333333334)"/><use xlink:href="#as" transform="matrix(1,0,0,1,-18155,-20781.434036489878) translate(0 98.49999090911157)"/><use xlink:href="#at" transform="matrix(1,0,0,1,-18155,-20781.434036489878) translate(109.62962962962963 98.49999090911157)"/><use xlink:href="#au" transform="matrix(1,0,0,1,-18155,-20781.434036489878) translate(143.7037037037037 98.49999090911157)"/><use xlink:href="#av" transform="matrix(1,0,0,1,-18155,-20781.434036489878) translate(214.74074074074076 98.49999090911157)"/></g><path d="M-17720-20747.14a6 6 0 0 1 6-6h237.7a6 6 0 0 1 6 6v60.68a6 6 0 0 1-6 6h-237.7a6 6 0 0 1-6-6z" fill="none"/><g><use xlink:href="#aw" transform="matrix(1,0,0,1,-17715,-20748.138331323185) translate(0 21.500004545444213)"/><use xlink:href="#ax" transform="matrix(1,0,0,1,-17715,-20748.138331323185) translate(32.592592592592595 21.500004545444213)"/><use xlink:href="#ay" transform="matrix(1,0,0,1,-17715,-20748.138331323185) translate(145.03703703703707 21.500004545444213)"/><use xlink:href="#az" transform="matrix(1,0,0,1,-17715,-20748.138331323185) translate(0 52.16666212122245)"/><use xlink:href="#aA" transform="matrix(1,0,0,1,-17715,-20748.138331323185) translate(28.07407407407408 52.16666212122245)"/><use xlink:href="#aB" transform="matrix(1,0,0,1,-17715,-20748.138331323185) translate(79.77777777777779 52.16666212122245)"/></g><path d="M-17380-20743.24a6 6 0 0 1 6-6h288a6 6 0 0 1 6 6v60.68a6 6 0 0 1-6 6h-288a6 6 0 0 1-6-6z" fill="none"/><g><use xlink:href="#aC" transform="matrix(1,0,0,1,-17375,-20744.23902538884) translate(0 21.500004545444213)"/><use xlink:href="#aD" transform="matrix(1,0,0,1,-17375,-20744.23902538884) translate(115.48148148148148 21.500004545444213)"/><use xlink:href="#aE" transform="matrix(1,0,0,1,-17375,-20744.23902538884) translate(0 52.16666212122245)"/><use xlink:href="#aF" transform="matrix(1,0,0,1,-17375,-20744.23902538884) translate(82.8888888888889 52.16666212122245)"/><use xlink:href="#N" transform="matrix(1,0,0,1,-17375,-20744.23902538884) translate(142.07407407407408 52.16666212122245)"/><use xlink:href="#aG" transform="matrix(1,0,0,1,-17375,-20744.23902538884) translate(248.5925925925926 52.16666212122245)"/></g><path d="M-16989.7-20737.2a6 6 0 0 1 6-6h303.28a6 6 0 0 1 6 6v60.66a6 6 0 0 1-6 6h-303.28a6 6 0 0 1-6-6z" fill="none"/><g><use xlink:href="#aH" transform="matrix(1,0,0,1,-16984.703703703704,-20738.21417030151) translate(0 21.500004545444213)"/><use xlink:href="#aI" transform="matrix(1,0,0,1,-16984.703703703704,-20738.21417030151) translate(81.48148148148148 21.500004545444213)"/><use xlink:href="#aJ" transform="matrix(1,0,0,1,-16984.703703703704,-20738.21417030151) translate(136.14814814814815 21.500004545444213)"/><use xlink:href="#aK" transform="matrix(1,0,0,1,-16984.703703703704,-20738.21417030151) translate(0 52.16666212122245)"/><use xlink:href="#aF" transform="matrix(1,0,0,1,-16984.703703703704,-20738.21417030151) translate(91.7037037037037 52.16666212122245)"/><use xlink:href="#aL" transform="matrix(1,0,0,1,-16984.703703703704,-20738.21417030151) translate(150.88888888888889 52.16666212122245)"/></g><path d="M-18734.26-20856.76l127.9-115" stroke="#000" stroke-width="2" fill="none"/><path d="M-18733.6-20856.05l-1.4 1.27v-2.62l.1-.1z" stroke="#000" stroke-width=".05"/><path d="M-18595.97-20981.1l-4.64 14.25-10.04-11.16z" stroke="#000" stroke-width="2"/><path d="M-18734.24-20844.64l127.57 108.24" stroke="#000" stroke-width="2" fill="none"/><path d="M-18733.6-20845.37l-1.25 1.5-.15-.14v-2.57z" stroke="#000" stroke-width=".05"/><path d="M-18596-20727.35l-14.76-2.7 9.7-11.42z" stroke="#000" stroke-width="2"/><path d="M-17798-20988.8h62" stroke="#000" stroke-width="2" fill="none"/><path d="M-17797.97-20987.83h-1.03v-1.94h1.03z" stroke="#000" stroke-width=".05"/><path d="M-17722-20988.8l-13 7.5v-15z" stroke="#000" stroke-width="2"/><path d="M-18243.48-20982.45h67.5" stroke="#000" stroke-width="2" fill="none"/><path d="M-18243.45-20981.48h-1.03v-1.95h1.03z" stroke="#000" stroke-width=".05"/><path d="M-18162-20982.45l-13 7.5v-15z" stroke="#000" stroke-width="2"/><path d="M-17459-20988.8h63" stroke="#000" stroke-width="2" fill="none"/><path d="M-17458.97-20987.83h-1.03v-1.94h1.03z" stroke="#000" stroke-width=".05"/><path d="M-17382-20988.8l-13 7.5v-15z" stroke="#000" stroke-width="2"/><path d="M-17469.3-20716.8h73.3" stroke="#000" stroke-width="2" fill="none"/><path d="M-17469.27-20715.83h-1.03v-1.94h1.03z" stroke="#000" stroke-width=".05"/><path d="M-17382-20716.8l-13 7.5v-15z" stroke="#000" stroke-width="2"/><path d="M-17099-20988.8l63-.22" stroke="#000" stroke-width="2" fill="none"/><path d="M-17098.97-20987.83h-1.03v-1.94h1.02z" stroke="#000" stroke-width=".05"/><path d="M-17022-20989.07l-12.97 7.55-.05-15z" stroke="#000" stroke-width="2"/><path d="M-17079-20706.88h73.3" stroke="#000" stroke-width="2" fill="none"/><path d="M-17078.97-20705.9h-1.03v-1.95h1.03z" stroke="#000" stroke-width=".05"/><path d="M-16991.7-20706.88l-13 7.5v-15z" stroke="#000" stroke-width="2"/><path d="M-17830.3-20716.8h94.3" stroke="#000" stroke-width="2" fill="none"/><path d="M-17830.28-20715.83h-1.03v-1.94h1.02z" stroke="#000" stroke-width=".05"/><path d="M-17722-20716.8l-13 7.5v-15z" stroke="#000" stroke-width="2"/><path d="M-18279.85-20719.43h103.86" stroke="#000" stroke-width="2" fill="none"/><path d="M-18279.83-20718.45h-1.02v-1.95h1.02z" stroke="#000" stroke-width=".05"/><path d="M-18162-20719.43l-13 7.5v-15z" stroke="#000" stroke-width="2"/><defs><path d="M136-208V0H84v-208H4v-40h212v40h-80" id="aM"/><path d="M199 0l-22-63H83L61 0H9l90-248h61L250 0h-51zm-33-102l-36-108c-10 38-24 72-36 108h72" id="aN"/><path d="M240-174c0 40-23 61-54 70L253 0h-59l-57-94H76V0H24v-248c93 4 217-23 216 74zM76-134c48-2 112 12 112-38 0-48-66-32-112-35v73" id="aO"/><path d="M67-125c0 54 23 88 75 88 28 0 53-7 68-21v-34h-60v-39h108v91C232-14 192 4 140 4 58 4 20-42 15-125 8-236 126-280 215-234c19 10 29 26 37 47l-47 15c-11-23-29-39-63-39-53 1-75 33-75 86" id="aP"/><path d="M24 0v-248h195v40H76v63h132v40H76v65h150V0H24" id="aQ"/><path d="M24-248c120-7 223 5 221 122C244-46 201 0 124 0H24v-248zM76-40c74 7 117-18 117-86 0-67-45-88-117-82v168" id="aR"/><path d="M76-54c-1 42 2 86-19 110H24C36 42 46 24 48 0H25v-54h51" id="aS"/><g id="b"><use transform="matrix(0.07407407407407408,0,0,0.07407407407407408,0,0)" xlink:href="#aM"/><use transform="matrix(0.07407407407407408,0,0,0.07407407407407408,14.222222222222225,0)" xlink:href="#aN"/><use transform="matrix(0.07407407407407408,0,0,0.07407407407407408,33.40740740740741,0)" xlink:href="#aO"/><use transform="matrix(0.07407407407407408,0,0,0.07407407407407408,52.59259259259259,0)" xlink:href="#aP"/><use transform="matrix(0.07407407407407408,0,0,0.07407407407407408,73.33333333333334,0)" xlink:href="#aQ"/><use transform="matrix(0.07407407407407408,0,0,0.07407407407407408,91.1111111111111,0)" xlink:href="#aM"/><use transform="matrix(0.07407407407407408,0,0,0.07407407407407408,107.33333333333334,0)" xlink:href="#aQ"/><use transform="matrix(0.07407407407407408,0,0,0.07407407407407408,125.11111111111111,0)" xlink:href="#aR"/><use transform="matrix(0.07407407407407408,0,0,0.07407407407407408,144.2962962962963,0)" xlink:href="#aS"/></g><path d="M24 0v-248h52V0H24" id="aT"/><path d="M14-72v-43h91v43H14" id="aU"/><path d="M175 0L67-191c6 58 2 128 3 191H24v-248h59L193-55c-6-58-2-129-3-193h46V0h-61" id="aV"/><path d="M186 0v-106H76V0H24v-248h52v99h110v-99h50V0h-50" id="aW"/><path d="M67-125c0 53 21 87 73 88 37 1 54-22 65-47l45 17C233-25 199 4 140 4 58 4 20-42 15-125 8-235 124-281 211-232c18 10 29 29 36 50l-46 12c-8-25-30-41-62-41-52 0-71 34-72 86" id="aX"/><g id="c"><use transform="matrix(0.07407407407407408,0,0,0.07407407407407408,0,0)" xlink:href="#aN"/><use transform="matrix(0.07407407407407408,0,0,0.07407407407407408,19.185185185185187,0)" xlink:href="#aT"/><use transform="matrix(0.07407407407407408,0,0,0.07407407407407408,26.592592592592595,0)" xlink:href="#aU"/><use transform="matrix(0.07407407407407408,0,0,0.07407407407407408,35.40740740740741,0)" xlink:href="#aQ"/><use transform="matrix(0.07407407407407408,0,0,0.07407407407407408,53.18518518518519,0)" xlink:href="#aV"/><use transform="matrix(0.07407407407407408,0,0,0.07407407407407408,72.37037037037038,0)" xlink:href="#aW"/><use transform="matrix(0.07407407407407408,0,0,0.07407407407407408,91.55555555555557,0)" xlink:href="#aN"/><use transform="matrix(0.07407407407407408,0,0,0.07407407407407408,110.74074074074076,0)" xlink:href="#aV"/><use transform="matrix(0.07407407407407408,0,0,0.07407407407407408,129.92592592592595,0)" xlink:href="#aX"/><use transform="matrix(0.07407407407407408,0,0,0.07407407407407408,149.11111111111114,0)" xlink:href="#aQ"/><use transform="matrix(0.07407407407407408,0,0,0.07407407407407408,166.8888888888889,0)" xlink:href="#aR"/></g><path d="M24-248c93 1 206-16 204 79-1 75-69 88-152 82V0H24v-248zm52 121c47 0 100 7 100-41 0-47-54-39-100-39v80" id="aY"/><path d="M169-182c-1-43-94-46-97-3 18 66 151 10 154 114 3 95-165 93-204 36-6-8-10-19-12-30l50-8c3 46 112 56 116 5-17-69-150-10-154-114-4-87 153-88 188-35 5 8 8 18 10 28" id="aZ"/><g id="d"><use transform="matrix(0.07407407407407408,0,0,0.07407407407407408,0,0)" xlink:href="#aY"/><use transform="matrix(0.07407407407407408,0,0,0.07407407407407408,17.77777777777778,0)" xlink:href="#aW"/><use transform="matrix(0.07407407407407408,0,0,0.07407407407407408,36.96296296296296,0)" xlink:href="#aT"/><use transform="matrix(0.07407407407407408,0,0,0.07407407407407408,44.37037037037037,0)" xlink:href="#aZ"/><use transform="matrix(0.07407407407407408,0,0,0.07407407407407408,62.148148148148145,0)" xlink:href="#aW"/><use transform="matrix(0.07407407407407408,0,0,0.07407407407407408,81.33333333333333,0)" xlink:href="#aT"/><use transform="matrix(0.07407407407407408,0,0,0.07407407407407408,88.74074074074073,0)" xlink:href="#aV"/><use transform="matrix(0.07407407407407408,0,0,0.07407407407407408,107.92592592592592,0)" xlink:href="#aP"/></g><path d="M195 0l-88-114-31 24V0H24v-248h52v113l112-113h60L142-143 257 0h-62" id="ba"/><g id="e"><use transform="matrix(0.07407407407407408,0,0,0.07407407407407408,0,0)" xlink:href="#aN"/><use transform="matrix(0.07407407407407408,0,0,0.07407407407407408,17.185185185185187,0)" xlink:href="#aM"/><use transform="matrix(0.07407407407407408,0,0,0.07407407407407408,33.40740740740741,0)" xlink:href="#aM"/><use transform="matrix(0.07407407407407408,0,0,0.07407407407407408,47.62962962962963,0)" xlink:href="#aN"/><use transform="matrix(0.07407407407407408,0,0,0.07407407407407408,66.81481481481482,0)" xlink:href="#aX"/><use transform="matrix(0.07407407407407408,0,0,0.07407407407407408,86.00000000000001,0)" xlink:href="#ba"/></g><path d="M30 0v-248h33v221h125V0H30" id="bb"/><path d="M30 0v-248h187v28H63v79h144v27H63v87h162V0H30" id="bc"/><path d="M143 4C61 4 22-44 18-125c-5-107 100-154 193-111 17 8 29 25 37 43l-32 9c-13-25-37-40-76-40-61 0-88 39-88 99 0 61 29 100 91 101 35 0 62-11 79-27v-45h-74v-28h105v86C228-13 192 4 143 4" id="bd"/><path d="M205 0l-28-72H64L36 0H1l101-248h38L239 0h-34zm-38-99l-47-123c-12 45-31 82-46 123h93" id="be"/><path d="M212-179c-10-28-35-45-73-45-59 0-87 40-87 99 0 60 29 101 89 101 43 0 62-24 78-52l27 14C228-24 195 4 139 4 59 4 22-46 18-125c-6-104 99-153 187-111 19 9 31 26 39 46" id="bf"/><path d="M137-103V0h-34v-103L8-248h37l75 118 75-118h37" id="bg"/><g id="f"><use transform="matrix(0.07407407407407408,0,0,0.07407407407407408,0,0)" xlink:href="#bb"/><use transform="matrix(0.07407407407407408,0,0,0.07407407407407408,14.814814814814817,0)" xlink:href="#bc"/><use transform="matrix(0.07407407407407408,0,0,0.07407407407407408,32.592592592592595,0)" xlink:href="#bd"/><use transform="matrix(0.07407407407407408,0,0,0.07407407407407408,53.33333333333334,0)" xlink:href="#be"/><use transform="matrix(0.07407407407407408,0,0,0.07407407407407408,71.11111111111111,0)" xlink:href="#bf"/><use transform="matrix(0.07407407407407408,0,0,0.07407407407407408,90.2962962962963,0)" xlink:href="#bg"/></g><path d="M30-248c87 1 191-15 191 75 0 78-77 80-158 76V0H30v-248zm33 125c57 0 124 11 124-50 0-59-68-47-124-48v98" id="bh"/><path d="M233-177c-1 41-23 64-60 70L243 0h-38l-65-103H63V0H30v-248c88 3 205-21 203 71zM63-129c60-2 137 13 137-47 0-61-80-42-137-45v92" id="bi"/><path d="M140-251c81 0 123 46 123 126C263-46 219 4 140 4 59 4 17-45 17-125s42-126 123-126zm0 227c63 0 89-41 89-101s-29-99-89-99c-61 0-89 39-89 99S79-25 140-24" id="bj"/><path d="M127-220V0H93v-220H8v-28h204v28h-85" id="bk"/><path d="M33 0v-248h34V0H33" id="bl"/><path d="M190 0L58-211 59 0H30v-248h39L202-35l-2-213h31V0h-41" id="bm"/><g id="g"><use transform="matrix(0.07407407407407408,0,0,0.07407407407407408,0,0)" xlink:href="#bh"/><use transform="matrix(0.07407407407407408,0,0,0.07407407407407408,17.77777777777778,0)" xlink:href="#bi"/><use transform="matrix(0.07407407407407408,0,0,0.07407407407407408,36.96296296296296,0)" xlink:href="#bj"/><use transform="matrix(0.07407407407407408,0,0,0.07407407407407408,57.70370370370371,0)" xlink:href="#bk"/><use transform="matrix(0.07407407407407408,0,0,0.07407407407407408,73.92592592592594,0)" xlink:href="#bc"/><use transform="matrix(0.07407407407407408,0,0,0.07407407407407408,91.70370370370371,0)" xlink:href="#bf"/><use transform="matrix(0.07407407407407408,0,0,0.07407407407407408,110.88888888888891,0)" xlink:href="#bk"/><use transform="matrix(0.07407407407407408,0,0,0.07407407407407408,127.11111111111114,0)" xlink:href="#bl"/><use transform="matrix(0.07407407407407408,0,0,0.07407407407407408,134.51851851851856,0)" xlink:href="#bj"/><use transform="matrix(0.07407407407407408,0,0,0.07407407407407408,155.25925925925927,0)" xlink:href="#bm"/></g><path d="M87 75C49 33 22-17 22-94c0-76 28-126 65-167h31c-38 41-64 92-64 168S80 34 118 75H87" id="bn"/><path d="M194 0L95-120 63-95V0H30v-248h33v124l119-124h40L117-140 236 0h-42" id="bo"/><g id="h"><use transform="matrix(0.07407407407407408,0,0,0.07407407407407408,0,0)" xlink:href="#bn"/><use transform="matrix(0.07407407407407408,0,0,0.07407407407407408,8.814814814814817,0)" xlink:href="#be"/><use transform="matrix(0.07407407407407408,0,0,0.07407407407407408,24.592592592592595,0)" xlink:href="#bk"/><use transform="matrix(0.07407407407407408,0,0,0.07407407407407408,40.81481481481482,0)" xlink:href="#bk"/><use transform="matrix(0.07407407407407408,0,0,0.07407407407407408,55.03703703703705,0)" xlink:href="#be"/><use transform="matrix(0.07407407407407408,0,0,0.07407407407407408,72.81481481481484,0)" xlink:href="#bf"/><use transform="matrix(0.07407407407407408,0,0,0.07407407407407408,92.00000000000003,0)" xlink:href="#bo"/></g><path d="M185-189c-5-48-123-54-124 2 14 75 158 14 163 119 3 78-121 87-175 55-17-10-28-26-33-46l33-7c5 56 141 63 141-1 0-78-155-14-162-118-5-82 145-84 179-34 5 7 8 16 11 25" id="bp"/><path d="M232-93c-1 65-40 97-104 97C67 4 28-28 28-90v-158h33c8 89-33 224 67 224 102 0 64-133 71-224h33v155" id="bq"/><path d="M30-248c118-7 216 8 213 122C240-48 200 0 122 0H30v-248zM63-27c89 8 146-16 146-99s-60-101-146-95v194" id="br"/><path d="M33-261c38 41 65 92 65 168S71 34 33 75H2C39 34 66-17 66-93S39-220 2-261h31" id="bs"/><g id="i"><use transform="matrix(0.07407407407407408,0,0,0.07407407407407408,0,0)" xlink:href="#bp"/><use transform="matrix(0.07407407407407408,0,0,0.07407407407407408,17.77777777777778,0)" xlink:href="#bq"/><use transform="matrix(0.07407407407407408,0,0,0.07407407407407408,36.96296296296296,0)" xlink:href="#bf"/><use transform="matrix(0.07407407407407408,0,0,0.07407407407407408,56.14814814814815,0)" xlink:href="#bf"/><use transform="matrix(0.07407407407407408,0,0,0.07407407407407408,75.33333333333334,0)" xlink:href="#bc"/><use transform="matrix(0.07407407407407408,0,0,0.07407407407407408,93.1111111111111,0)" xlink:href="#bc"/><use transform="matrix(0.07407407407407408,0,0,0.07407407407407408,110.88888888888889,0)" xlink:href="#br"/><use transform="matrix(0.07407407407407408,0,0,0.07407407407407408,130.07407407407408,0)" xlink:href="#bp"/><use transform="matrix(0.07407407407407408,0,0,0.07407407407407408,147.85185185185185,0)" xlink:href="#bs"/></g><path d="M59-47c-2 24 18 29 38 22v24C64 9 27 4 27-40v-127H5v-23h24l9-43h21v43h35v23H59v120" id="bt"/><path d="M141-36C126-15 110 5 73 4 37 3 15-17 15-53c-1-64 63-63 125-63 3-35-9-54-41-54-24 1-41 7-42 31l-33-3c5-37 33-52 76-52 45 0 72 20 72 64v82c-1 20 7 32 28 27v20c-31 9-61-2-59-35zM48-53c0 20 12 33 32 33 41-3 63-29 60-74-43 2-92-5-92 41" id="bu"/><path d="M96-169c-40 0-48 33-48 73s9 75 48 75c24 0 41-14 43-38l32 2c-6 37-31 61-74 61-59 0-76-41-82-99-10-93 101-131 147-64 4 7 5 14 7 22l-32 3c-4-21-16-35-41-35" id="bv"/><path d="M143 0L79-87 56-68V0H24v-261h32v163l83-92h37l-77 82L181 0h-38" id="bw"/><path d="M100-194c63 0 86 42 84 106H49c0 40 14 67 53 68 26 1 43-12 49-29l28 8c-11 28-37 45-77 45C44 4 14-33 15-96c1-61 26-98 85-98zm52 81c6-60-76-77-97-28-3 7-6 17-6 28h103" id="bx"/><path d="M114-163C36-179 61-72 57 0H25l-1-190h30c1 12-1 29 2 39 6-27 23-49 58-41v29" id="by"/><g id="j"><use transform="matrix(0.07407407407407408,0,0,0.07407407407407408,0,0)" xlink:href="#be"/><use transform="matrix(0.07407407407407408,0,0,0.07407407407407408,17.77777777777778,0)" xlink:href="#bt"/><use transform="matrix(0.07407407407407408,0,0,0.07407407407407408,25.185185185185187,0)" xlink:href="#bt"/><use transform="matrix(0.07407407407407408,0,0,0.07407407407407408,32.592592592592595,0)" xlink:href="#bu"/><use transform="matrix(0.07407407407407408,0,0,0.07407407407407408,47.40740740740741,0)" xlink:href="#bv"/><use transform="matrix(0.07407407407407408,0,0,0.07407407407407408,60.74074074074075,0)" xlink:href="#bw"/><use transform="matrix(0.07407407407407408,0,0,0.07407407407407408,74.07407407407408,0)" xlink:href="#bx"/><use transform="matrix(0.07407407407407408,0,0,0.07407407407407408,88.88888888888889,0)" xlink:href="#by"/></g><path d="M101-234c-31-9-42 10-38 44h38v23H63V0H32v-167H5v-23h27c-7-52 17-82 69-68v24" id="bz"/><path d="M135-143c-3-34-86-38-87 0 15 53 115 12 119 90S17 21 10-45l28-5c4 36 97 45 98 0-10-56-113-15-118-90-4-57 82-63 122-42 12 7 21 19 24 35" id="bA"/><g id="k"><use transform="matrix(0.07407407407407408,0,0,0.07407407407407408,0,0)" xlink:href="#bv"/><use transform="matrix(0.07407407407407408,0,0,0.07407407407407408,13.333333333333336,0)" xlink:href="#by"/><use transform="matrix(0.07407407407407408,0,0,0.07407407407407408,22.148148148148152,0)" xlink:href="#bu"/><use transform="matrix(0.07407407407407408,0,0,0.07407407407407408,36.96296296296297,0)" xlink:href="#bz"/><use transform="matrix(0.07407407407407408,0,0,0.07407407407407408,44.37037037037039,0)" xlink:href="#bt"/><use transform="matrix(0.07407407407407408,0,0,0.07407407407407408,51.777777777777786,0)" xlink:href="#bA"/></g><path d="M16-82v-28h88v28H16" id="bB"/><path d="M177-190C167-65 218 103 67 71c-23-6-38-20-44-43l32-5c15 47 100 32 89-28v-30C133-14 115 1 83 1 29 1 15-40 15-95c0-56 16-97 71-98 29-1 48 16 59 35 1-10 0-23 2-32h30zM94-22c36 0 50-32 50-73 0-42-14-75-50-75-39 0-46 34-46 75s6 73 46 73" id="bC"/><path d="M117-194c89-4 53 116 60 194h-32v-121c0-31-8-49-39-48C34-167 62-67 57 0H25l-1-190h30c1 10-1 24 2 32 11-22 29-35 61-36" id="bD"/><path d="M85-194c31 0 48 13 60 33l-1-100h32l1 261h-30c-2-10 0-23-3-31C134-8 116 4 85 4 32 4 16-35 15-94c0-66 23-100 70-100zm9 24c-40 0-46 34-46 75 0 40 6 74 45 74 42 0 51-32 51-76 0-42-9-74-50-73" id="bE"/><g id="l"><use transform="matrix(0.07407407407407408,0,0,0.07407407407407408,0,0)" xlink:href="#be"/><use transform="matrix(0.07407407407407408,0,0,0.07407407407407408,17.77777777777778,0)" xlink:href="#bl"/><use transform="matrix(0.07407407407407408,0,0,0.07407407407407408,25.185185185185187,0)" xlink:href="#bB"/><use transform="matrix(0.07407407407407408,0,0,0.07407407407407408,34,0)" xlink:href="#bC"/><use transform="matrix(0.07407407407407408,0,0,0.07407407407407408,48.81481481481481,0)" xlink:href="#bx"/><use transform="matrix(0.07407407407407408,0,0,0.07407407407407408,63.629629629629626,0)" xlink:href="#bD"/><use transform="matrix(0.07407407407407408,0,0,0.07407407407407408,78.44444444444446,0)" xlink:href="#bx"/><use transform="matrix(0.07407407407407408,0,0,0.07407407407407408,93.25925925925927,0)" xlink:href="#by"/><use transform="matrix(0.07407407407407408,0,0,0.07407407407407408,102.07407407407408,0)" xlink:href="#bu"/><use transform="matrix(0.07407407407407408,0,0,0.07407407407407408,116.88888888888889,0)" xlink:href="#bt"/><use transform="matrix(0.07407407407407408,0,0,0.07407407407407408,124.29629629629629,0)" xlink:href="#bx"/><use transform="matrix(0.07407407407407408,0,0,0.07407407407407408,139.11111111111111,0)" xlink:href="#bE"/></g><path d="M24-231v-30h32v30H24zM24 0v-190h32V0H24" id="bF"/><path d="M210-169c-67 3-38 105-44 169h-31v-121c0-29-5-50-35-48C34-165 62-65 56 0H25l-1-190h30c1 10-1 24 2 32 10-44 99-50 107 0 11-21 27-35 58-36 85-2 47 119 55 194h-31v-121c0-29-5-49-35-48" id="bG"/><path d="M115-194c55 1 70 41 70 98S169 2 115 4C84 4 66-9 55-30l1 105H24l-1-265h31l2 30c10-21 28-34 59-34zm-8 174c40 0 45-34 45-75s-6-73-45-74c-42 0-51 32-51 76 0 43 10 73 51 73" id="bH"/><path d="M100-194c62-1 85 37 85 99 1 63-27 99-86 99S16-35 15-95c0-66 28-99 85-99zM99-20c44 1 53-31 53-75 0-43-8-75-51-75s-53 32-53 75 10 74 51 75" id="bI"/><g id="m"><use transform="matrix(0.07407407407407408,0,0,0.07407407407407408,0,0)" xlink:href="#bF"/><use transform="matrix(0.07407407407407408,0,0,0.07407407407407408,5.851851851851853,0)" xlink:href="#bG"/><use transform="matrix(0.07407407407407408,0,0,0.07407407407407408,28.000000000000007,0)" xlink:href="#bH"/><use transform="matrix(0.07407407407407408,0,0,0.07407407407407408,42.814814814814824,0)" xlink:href="#bx"/><use transform="matrix(0.07407407407407408,0,0,0.07407407407407408,57.62962962962964,0)" xlink:href="#by"/><use transform="matrix(0.07407407407407408,0,0,0.07407407407407408,66.44444444444446,0)" xlink:href="#bA"/><use transform="matrix(0.07407407407407408,0,0,0.07407407407407408,79.7777777777778,0)" xlink:href="#bI"/><use transform="matrix(0.07407407407407408,0,0,0.07407407407407408,94.59259259259261,0)" xlink:href="#bD"/><use transform="matrix(0.07407407407407408,0,0,0.07407407407407408,109.40740740740742,0)" xlink:href="#bu"/><use transform="matrix(0.07407407407407408,0,0,0.07407407407407408,124.22222222222223,0)" xlink:href="#bt"/><use transform="matrix(0.07407407407407408,0,0,0.07407407407407408,131.62962962962965,0)" xlink:href="#bF"/><use transform="matrix(0.07407407407407408,0,0,0.07407407407407408,137.4814814814815,0)" xlink:href="#bI"/><use transform="matrix(0.07407407407407408,0,0,0.07407407407407408,152.2962962962963,0)" xlink:href="#bD"/></g><path d="M24 0v-261h32V0H24" id="bJ"/><g id="n"><use transform="matrix(0.07407407407407408,0,0,0.07407407407407408,0,0)" xlink:href="#bx"/><use transform="matrix(0.07407407407407408,0,0,0.07407407407407408,14.814814814814817,0)" xlink:href="#bG"/><use transform="matrix(0.07407407407407408,0,0,0.07407407407407408,36.96296296296297,0)" xlink:href="#bu"/><use transform="matrix(0.07407407407407408,0,0,0.07407407407407408,51.777777777777786,0)" xlink:href="#bF"/><use transform="matrix(0.07407407407407408,0,0,0.07407407407407408,57.62962962962964,0)" xlink:href="#bJ"/></g><path d="M141 0L90-78 38 0H4l68-98-65-92h35l48 74 47-74h35l-64 92 68 98h-35" id="bK"/><g id="o"><use transform="matrix(0.07407407407407408,0,0,0.07407407407407408,0,0)" xlink:href="#bn"/><use transform="matrix(0.07407407407407408,0,0,0.07407407407407408,8.814814814814817,0)" xlink:href="#bx"/><use transform="matrix(0.07407407407407408,0,0,0.07407407407407408,23.629629629629633,0)" xlink:href="#bK"/><use transform="matrix(0.07407407407407408,0,0,0.07407407407407408,36.96296296296297,0)" xlink:href="#bx"/><use transform="matrix(0.07407407407407408,0,0,0.07407407407407408,51.777777777777786,0)" xlink:href="#bv"/></g><path d="M0 4l72-265h28L28 4H0" id="bL"/><use transform="matrix(0.07407407407407408,0,0,0.07407407407407408,0,0)" xlink:href="#bL" id="p"/><g id="q"><use transform="matrix(0.07407407407407408,0,0,0.07407407407407408,0,0)" xlink:href="#bH"/><use transform="matrix(0.07407407407407408,0,0,0.07407407407407408,14.814814814814817,0)" xlink:href="#bJ"/><use transform="matrix(0.07407407407407408,0,0,0.07407407407407408,20.666666666666668,0)" xlink:href="#bu"/><use transform="matrix(0.07407407407407408,0,0,0.07407407407407408,35.48148148148149,0)" xlink:href="#bD"/><use transform="matrix(0.07407407407407408,0,0,0.07407407407407408,50.296296296296305,0)" xlink:href="#bt"/></g><g id="r"><use transform="matrix(0.07407407407407408,0,0,0.07407407407407408,0,0)" xlink:href="#bG"/><use transform="matrix(0.07407407407407408,0,0,0.07407407407407408,22.148148148148152,0)" xlink:href="#bu"/><use transform="matrix(0.07407407407407408,0,0,0.07407407407407408,36.96296296296297,0)" xlink:href="#bD"/><use transform="matrix(0.07407407407407408,0,0,0.07407407407407408,51.777777777777786,0)" xlink:href="#bu"/><use transform="matrix(0.07407407407407408,0,0,0.07407407407407408,66.59259259259261,0)" xlink:href="#bC"/><use transform="matrix(0.07407407407407408,0,0,0.07407407407407408,81.40740740740742,0)" xlink:href="#bx"/><use transform="matrix(0.07407407407407408,0,0,0.07407407407407408,96.22222222222223,0)" xlink:href="#by"/></g><use transform="matrix(0.07407407407407408,0,0,0.07407407407407408,0,0)" xlink:href="#bL" id="s"/><g id="t"><use transform="matrix(0.07407407407407408,0,0,0.07407407407407408,0,0)" xlink:href="#bz"/><use transform="matrix(0.07407407407407408,0,0,0.07407407407407408,7.407407407407408,0)" xlink:href="#bF"/><use transform="matrix(0.07407407407407408,0,0,0.07407407407407408,13.259259259259261,0)" xlink:href="#bD"/><use transform="matrix(0.07407407407407408,0,0,0.07407407407407408,28.074074074074076,0)" xlink:href="#bu"/><use transform="matrix(0.07407407407407408,0,0,0.07407407407407408,42.88888888888889,0)" xlink:href="#bD"/><use transform="matrix(0.07407407407407408,0,0,0.07407407407407408,57.70370370370371,0)" xlink:href="#bv"/><use transform="matrix(0.07407407407407408,0,0,0.07407407407407408,71.03703703703704,0)" xlink:href="#bx"/><use transform="matrix(0.07407407407407408,0,0,0.07407407407407408,85.85185185185185,0)" xlink:href="#bs"/></g><path d="M240 0l2-218c-23 76-54 145-80 218h-23L58-218 59 0H30v-248h44l77 211c21-75 51-140 76-211h43V0h-30" id="bM"/><g id="u"><use transform="matrix(0.07407407407407408,0,0,0.07407407407407408,0,0)" xlink:href="#bM"/><use transform="matrix(0.07407407407407408,0,0,0.07407407407407408,22.148148148148152,0)" xlink:href="#be"/><use transform="matrix(0.07407407407407408,0,0,0.07407407407407408,39.92592592592593,0)" xlink:href="#bm"/><use transform="matrix(0.07407407407407408,0,0,0.07407407407407408,59.11111111111111,0)" xlink:href="#be"/><use transform="matrix(0.07407407407407408,0,0,0.07407407407407408,76.88888888888889,0)" xlink:href="#bd"/><use transform="matrix(0.07407407407407408,0,0,0.07407407407407408,97.62962962962962,0)" xlink:href="#bc"/><use transform="matrix(0.07407407407407408,0,0,0.07407407407407408,115.40740740740742,0)" xlink:href="#br"/></g><g id="v"><use transform="matrix(0.07407407407407408,0,0,0.07407407407407408,0,0)" xlink:href="#bc"/><use transform="matrix(0.07407407407407408,0,0,0.07407407407407408,17.77777777777778,0)" xlink:href="#bM"/><use transform="matrix(0.07407407407407408,0,0,0.07407407407407408,39.92592592592593,0)" xlink:href="#be"/><use transform="matrix(0.07407407407407408,0,0,0.07407407407407408,57.70370370370371,0)" xlink:href="#bl"/><use transform="matrix(0.07407407407407408,0,0,0.07407407407407408,65.11111111111111,0)" xlink:href="#bb"/></g><path d="M137 0h-34L2-248h35l83 218 83-218h36" id="bN"/><g id="w"><use transform="matrix(0.07407407407407408,0,0,0.07407407407407408,0,0)" xlink:href="#bh"/><use transform="matrix(0.07407407407407408,0,0,0.07407407407407408,17.77777777777778,0)" xlink:href="#bi"/><use transform="matrix(0.07407407407407408,0,0,0.07407407407407408,36.96296296296296,0)" xlink:href="#bc"/><use transform="matrix(0.07407407407407408,0,0,0.07407407407407408,54.74074074074074,0)" xlink:href="#bN"/><use transform="matrix(0.07407407407407408,0,0,0.07407407407407408,72.51851851851852,0)" xlink:href="#bc"/><use transform="matrix(0.07407407407407408,0,0,0.07407407407407408,90.2962962962963,0)" xlink:href="#bm"/><use transform="matrix(0.07407407407407408,0,0,0.07407407407407408,109.4814814814815,0)" xlink:href="#bk"/><use transform="matrix(0.07407407407407408,0,0,0.07407407407407408,125.70370370370372,0)" xlink:href="#bc"/><use transform="matrix(0.07407407407407408,0,0,0.07407407407407408,143.4814814814815,0)" xlink:href="#br"/><use transform="matrix(0.07407407407407408,0,0,0.07407407407407408,162.66666666666669,0)" xlink:href="#bs"/></g><g id="x"><use transform="matrix(0.07407407407407408,0,0,0.07407407407407408,0,0)" xlink:href="#bl"/><use transform="matrix(0.07407407407407408,0,0,0.07407407407407408,7.407407407407408,0)" xlink:href="#bD"/><use transform="matrix(0.07407407407407408,0,0,0.07407407407407408,22.222222222222225,0)" xlink:href="#bv"/><use transform="matrix(0.07407407407407408,0,0,0.07407407407407408,35.55555555555556,0)" xlink:href="#bI"/><use transform="matrix(0.07407407407407408,0,0,0.07407407407407408,50.370370370370374,0)" xlink:href="#bG"/><use transform="matrix(0.07407407407407408,0,0,0.07407407407407408,72.51851851851853,0)" xlink:href="#bF"/><use transform="matrix(0.07407407407407408,0,0,0.07407407407407408,78.37037037037038,0)" xlink:href="#bD"/><use transform="matrix(0.07407407407407408,0,0,0.07407407407407408,93.18518518518519,0)" xlink:href="#bC"/></g><g id="y"><use transform="matrix(0.07407407407407408,0,0,0.07407407407407408,0,0)" xlink:href="#bx"/><use transform="matrix(0.07407407407407408,0,0,0.07407407407407408,14.814814814814817,0)" xlink:href="#bG"/><use transform="matrix(0.07407407407407408,0,0,0.07407407407407408,36.96296296296297,0)" xlink:href="#bu"/><use transform="matrix(0.07407407407407408,0,0,0.07407407407407408,51.777777777777786,0)" xlink:href="#bF"/><use transform="matrix(0.07407407407407408,0,0,0.07407407407407408,57.62962962962964,0)" xlink:href="#bJ"/></g><g id="z"><use transform="matrix(0.07407407407407408,0,0,0.07407407407407408,0,0)" xlink:href="#bA"/><use transform="matrix(0.07407407407407408,0,0,0.07407407407407408,13.333333333333336,0)" xlink:href="#bv"/><use transform="matrix(0.07407407407407408,0,0,0.07407407407407408,26.66666666666667,0)" xlink:href="#bu"/><use transform="matrix(0.07407407407407408,0,0,0.07407407407407408,41.48148148148149,0)" xlink:href="#bD"/><use transform="matrix(0.07407407407407408,0,0,0.07407407407407408,56.296296296296305,0)" xlink:href="#bD"/><use transform="matrix(0.07407407407407408,0,0,0.07407407407407408,71.11111111111111,0)" xlink:href="#bx"/><use transform="matrix(0.07407407407407408,0,0,0.07407407407407408,85.92592592592592,0)" xlink:href="#bE"/></g><path d="M206 0h-36l-40-164L89 0H53L-1-190h32L70-26l43-164h34l41 164 42-164h31" id="bO"/><path d="M106-169C34-169 62-67 57 0H25v-261h32l-1 103c12-21 28-36 61-36 89 0 53 116 60 194h-32v-121c2-32-8-49-39-48" id="bP"/><g id="A"><use transform="matrix(0.07407407407407408,0,0,0.07407407407407408,0,0)" xlink:href="#bO"/><use transform="matrix(0.07407407407407408,0,0,0.07407407407407408,19.185185185185187,0)" xlink:href="#bF"/><use transform="matrix(0.07407407407407408,0,0,0.07407407407407408,25.037037037037035,0)" xlink:href="#bt"/><use transform="matrix(0.07407407407407408,0,0,0.07407407407407408,32.44444444444444,0)" xlink:href="#bP"/></g><path d="M115-194c53 0 69 39 70 98 0 66-23 100-70 100C84 3 66-7 56-30L54 0H23l1-261h32v101c10-23 28-34 59-34zm-8 174c40 0 45-34 45-75 0-40-5-75-45-74-42 0-51 32-51 76 0 43 10 73 51 73" id="bQ"/><path d="M108 0H70L1-190h34L89-25l56-165h34" id="bR"/><path d="M68-38c1 34 0 65-14 84H32c9-13 17-26 17-46H33v-38h35" id="bS"/><g id="B"><use transform="matrix(0.07407407407407408,0,0,0.07407407407407408,0,0)" xlink:href="#bQ"/><use transform="matrix(0.07407407407407408,0,0,0.07407407407407408,14.814814814814817,0)" xlink:href="#bx"/><use transform="matrix(0.07407407407407408,0,0,0.07407407407407408,29.629629629629633,0)" xlink:href="#bP"/><use transform="matrix(0.07407407407407408,0,0,0.07407407407407408,44.44444444444445,0)" xlink:href="#bu"/><use transform="matrix(0.07407407407407408,0,0,0.07407407407407408,59.25925925925927,0)" xlink:href="#bR"/><use transform="matrix(0.07407407407407408,0,0,0.07407407407407408,72.59259259259261,0)" xlink:href="#bF"/><use transform="matrix(0.07407407407407408,0,0,0.07407407407407408,78.44444444444446,0)" xlink:href="#bI"/><use transform="matrix(0.07407407407407408,0,0,0.07407407407407408,93.25925925925927,0)" xlink:href="#by"/><use transform="matrix(0.07407407407407408,0,0,0.07407407407407408,100.59259259259261,0)" xlink:href="#bS"/></g><path d="M179-190L93 31C79 59 56 82 12 73V49c39 6 53-20 64-50L1-190h34L92-34l54-156h33" id="bT"/><g id="C"><use transform="matrix(0.07407407407407408,0,0,0.07407407407407408,0,0)" xlink:href="#bF"/><use transform="matrix(0.07407407407407408,0,0,0.07407407407407408,5.851851851851853,0)" xlink:href="#bE"/><use transform="matrix(0.07407407407407408,0,0,0.07407407407407408,20.666666666666668,0)" xlink:href="#bx"/><use transform="matrix(0.07407407407407408,0,0,0.07407407407407408,35.48148148148149,0)" xlink:href="#bD"/><use transform="matrix(0.07407407407407408,0,0,0.07407407407407408,50.296296296296305,0)" xlink:href="#bt"/><use transform="matrix(0.07407407407407408,0,0,0.07407407407407408,57.70370370370371,0)" xlink:href="#bF"/><use transform="matrix(0.07407407407407408,0,0,0.07407407407407408,63.555555555555564,0)" xlink:href="#bt"/><use transform="matrix(0.07407407407407408,0,0,0.07407407407407408,70.96296296296298,0)" xlink:href="#bT"/></g><g id="D"><use transform="matrix(0.07407407407407408,0,0,0.07407407407407408,0,0)" xlink:href="#bu"/><use transform="matrix(0.07407407407407408,0,0,0.07407407407407408,14.814814814814817,0)" xlink:href="#bD"/><use transform="matrix(0.07407407407407408,0,0,0.07407407407407408,29.629629629629633,0)" xlink:href="#bE"/></g><g id="E"><use transform="matrix(0.07407407407407408,0,0,0.07407407407407408,0,0)" xlink:href="#bv"/><use transform="matrix(0.07407407407407408,0,0,0.07407407407407408,13.333333333333336,0)" xlink:href="#bI"/><use transform="matrix(0.07407407407407408,0,0,0.07407407407407408,28.148148148148152,0)" xlink:href="#bD"/><use transform="matrix(0.07407407407407408,0,0,0.07407407407407408,42.96296296296297,0)" xlink:href="#bt"/><use transform="matrix(0.07407407407407408,0,0,0.07407407407407408,50.370370370370374,0)" xlink:href="#bx"/><use transform="matrix(0.07407407407407408,0,0,0.07407407407407408,65.18518518518519,0)" xlink:href="#bD"/><use transform="matrix(0.07407407407407408,0,0,0.07407407407407408,80,0)" xlink:href="#bt"/></g><g id="F"><use transform="matrix(0.07407407407407408,0,0,0.07407407407407408,0,0)" xlink:href="#bu"/><use transform="matrix(0.07407407407407408,0,0,0.07407407407407408,14.814814814814817,0)" xlink:href="#bD"/><use transform="matrix(0.07407407407407408,0,0,0.07407407407407408,29.629629629629633,0)" xlink:href="#bu"/><use transform="matrix(0.07407407407407408,0,0,0.07407407407407408,44.44444444444445,0)" xlink:href="#bJ"/><use transform="matrix(0.07407407407407408,0,0,0.07407407407407408,50.296296296296305,0)" xlink:href="#bT"/><use transform="matrix(0.07407407407407408,0,0,0.07407407407407408,63.62962962962964,0)" xlink:href="#bA"/><use transform="matrix(0.07407407407407408,0,0,0.07407407407407408,76.96296296296298,0)" xlink:href="#bF"/><use transform="matrix(0.07407407407407408,0,0,0.07407407407407408,82.81481481481482,0)" xlink:href="#bA"/></g><path d="M63-220v92h138v28H63V0H30v-248h175v28H63" id="bU"/><g id="G"><use transform="matrix(0.07407407407407408,0,0,0.07407407407407408,0,0)" xlink:href="#bU"/><use transform="matrix(0.07407407407407408,0,0,0.07407407407407408,16.222222222222225,0)" xlink:href="#bF"/><use transform="matrix(0.07407407407407408,0,0,0.07407407407407408,22.074074074074076,0)" xlink:href="#bJ"/><use transform="matrix(0.07407407407407408,0,0,0.07407407407407408,27.92592592592593,0)" xlink:href="#bt"/><use transform="matrix(0.07407407407407408,0,0,0.07407407407407408,35.33333333333334,0)" xlink:href="#bx"/><use transform="matrix(0.07407407407407408,0,0,0.07407407407407408,50.14814814814817,0)" xlink:href="#by"/><use transform="matrix(0.07407407407407408,0,0,0.07407407407407408,58.962962962962976,0)" xlink:href="#bA"/></g><g id="H"><use transform="matrix(0.07407407407407408,0,0,0.07407407407407408,0,0)" xlink:href="#bA"/><use transform="matrix(0.07407407407407408,0,0,0.07407407407407408,13.333333333333336,0)" xlink:href="#bx"/><use transform="matrix(0.07407407407407408,0,0,0.07407407407407408,28.148148148148152,0)" xlink:href="#bx"/></g><g id="I"><use transform="matrix(0.07407407407407408,0,0,0.07407407407407408,0,0)" xlink:href="#bD"/><use transform="matrix(0.07407407407407408,0,0,0.07407407407407408,14.814814814814817,0)" xlink:href="#bI"/><use transform="matrix(0.07407407407407408,0,0,0.07407407407407408,29.629629629629633,0)" xlink:href="#by"/><use transform="matrix(0.07407407407407408,0,0,0.07407407407407408,38.44444444444445,0)" xlink:href="#bG"/><use transform="matrix(0.07407407407407408,0,0,0.07407407407407408,60.5925925925926,0)" xlink:href="#bu"/><use transform="matrix(0.07407407407407408,0,0,0.07407407407407408,75.40740740740742,0)" xlink:href="#bJ"/></g><path d="M84 4C-5 8 30-112 23-190h32v120c0 31 7 50 39 49 72-2 45-101 50-169h31l1 190h-30c-1-10 1-25-2-33-11 22-28 36-60 37" id="bV"/><g id="J"><use transform="matrix(0.07407407407407408,0,0,0.07407407407407408,0,0)" xlink:href="#bJ"/><use transform="matrix(0.07407407407407408,0,0,0.07407407407407408,5.851851851851853,0)" xlink:href="#bu"/><use transform="matrix(0.07407407407407408,0,0,0.07407407407407408,20.666666666666668,0)" xlink:href="#bD"/><use transform="matrix(0.07407407407407408,0,0,0.07407407407407408,35.48148148148149,0)" xlink:href="#bC"/><use transform="matrix(0.07407407407407408,0,0,0.07407407407407408,50.296296296296305,0)" xlink:href="#bV"/><use transform="matrix(0.07407407407407408,0,0,0.07407407407407408,65.11111111111111,0)" xlink:href="#bu"/><use transform="matrix(0.07407407407407408,0,0,0.07407407407407408,79.92592592592592,0)" xlink:href="#bC"/><use transform="matrix(0.07407407407407408,0,0,0.07407407407407408,94.74074074074073,0)" xlink:href="#bx"/></g><path d="M287-57c-19 10-34 24-48 39h-13c7-13 13-24 21-34H73v-15h174c-8-10-14-22-21-35h13c14 15 28 30 48 39v6" id="bW"/><use transform="matrix(0.07407407407407408,0,0,0.07407407407407408,0,0)" xlink:href="#bW" id="K"/><g id="L"><use transform="matrix(0.07407407407407408,0,0,0.07407407407407408,0,0)" xlink:href="#bu"/><use transform="matrix(0.07407407407407408,0,0,0.07407407407407408,14.814814814814817,0)" xlink:href="#bJ"/><use transform="matrix(0.07407407407407408,0,0,0.07407407407407408,20.666666666666668,0)" xlink:href="#bJ"/><use transform="matrix(0.07407407407407408,0,0,0.07407407407407408,26.518518518518526,0)" xlink:href="#bI"/><use transform="matrix(0.07407407407407408,0,0,0.07407407407407408,41.333333333333336,0)" xlink:href="#bO"/><use transform="matrix(0.07407407407407408,0,0,0.07407407407407408,60.51851851851853,0)" xlink:href="#bx"/><use transform="matrix(0.07407407407407408,0,0,0.07407407407407408,75.33333333333334,0)" xlink:href="#bE"/></g><g id="M"><use transform="matrix(0.07407407407407408,0,0,0.07407407407407408,0,0)" xlink:href="#bq"/><use transform="matrix(0.07407407407407408,0,0,0.07407407407407408,19.185185185185187,0)" xlink:href="#bA"/><use transform="matrix(0.07407407407407408,0,0,0.07407407407407408,32.51851851851852,0)" xlink:href="#bx"/><use transform="matrix(0.07407407407407408,0,0,0.07407407407407408,47.33333333333334,0)" xlink:href="#by"/></g><g id="N"><use transform="matrix(0.07407407407407408,0,0,0.07407407407407408,0,0)" xlink:href="#by"/><use transform="matrix(0.07407407407407408,0,0,0.07407407407407408,8.814814814814817,0)" xlink:href="#bx"/><use transform="matrix(0.07407407407407408,0,0,0.07407407407407408,23.629629629629633,0)" xlink:href="#bv"/><use transform="matrix(0.07407407407407408,0,0,0.07407407407407408,36.96296296296297,0)" xlink:href="#bx"/><use transform="matrix(0.07407407407407408,0,0,0.07407407407407408,51.777777777777786,0)" xlink:href="#bF"/><use transform="matrix(0.07407407407407408,0,0,0.07407407407407408,57.62962962962964,0)" xlink:href="#bR"/><use transform="matrix(0.07407407407407408,0,0,0.07407407407407408,70.96296296296298,0)" xlink:href="#bx"/><use transform="matrix(0.07407407407407408,0,0,0.07407407407407408,85.7777777777778,0)" xlink:href="#bA"/></g><g id="O"><use transform="matrix(0.07407407407407408,0,0,0.07407407407407408,0,0)" xlink:href="#bV"/><use transform="matrix(0.07407407407407408,0,0,0.07407407407407408,14.814814814814817,0)" xlink:href="#by"/><use transform="matrix(0.07407407407407408,0,0,0.07407407407407408,23.629629629629633,0)" xlink:href="#bC"/><use transform="matrix(0.07407407407407408,0,0,0.07407407407407408,38.44444444444445,0)" xlink:href="#bx"/><use transform="matrix(0.07407407407407408,0,0,0.07407407407407408,53.25925925925927,0)" xlink:href="#bD"/><use transform="matrix(0.07407407407407408,0,0,0.07407407407407408,68.07407407407408,0)" xlink:href="#bt"/></g><path d="M145-31C134-9 116 4 85 4 32 4 16-35 15-94c0-59 17-99 70-100 32-1 48 14 60 33 0-11-1-24 2-32h30l-1 268h-32zM93-21c41 0 51-33 51-76s-8-73-50-73c-40 0-46 35-46 75s5 74 45 74" id="bX"/><g id="P"><use transform="matrix(0.07407407407407408,0,0,0.07407407407407408,0,0)" xlink:href="#by"/><use transform="matrix(0.07407407407407408,0,0,0.07407407407407408,8.814814814814817,0)" xlink:href="#bx"/><use transform="matrix(0.07407407407407408,0,0,0.07407407407407408,23.629629629629633,0)" xlink:href="#bX"/><use transform="matrix(0.07407407407407408,0,0,0.07407407407407408,38.44444444444445,0)" xlink:href="#bV"/><use transform="matrix(0.07407407407407408,0,0,0.07407407407407408,53.25925925925927,0)" xlink:href="#bx"/><use transform="matrix(0.07407407407407408,0,0,0.07407407407407408,68.07407407407408,0)" xlink:href="#bA"/><use transform="matrix(0.07407407407407408,0,0,0.07407407407407408,81.40740740740742,0)" xlink:href="#bt"/></g><g id="Q"><use transform="matrix(0.07407407407407408,0,0,0.07407407407407408,0,0)" xlink:href="#bn"/><use transform="matrix(0.07407407407407408,0,0,0.07407407407407408,8.814814814814817,0)" xlink:href="#bH"/><use transform="matrix(0.07407407407407408,0,0,0.07407407407407408,23.629629629629633,0)" xlink:href="#bu"/><use transform="matrix(0.07407407407407408,0,0,0.07407407407407408,38.44444444444445,0)" xlink:href="#bT"/><use transform="matrix(0.07407407407407408,0,0,0.07407407407407408,51.777777777777786,0)" xlink:href="#bG"/><use transform="matrix(0.07407407407407408,0,0,0.07407407407407408,73.92592592592594,0)" xlink:href="#bx"/><use transform="matrix(0.07407407407407408,0,0,0.07407407407407408,88.74074074074078,0)" xlink:href="#bD"/><use transform="matrix(0.07407407407407408,0,0,0.07407407407407408,103.55555555555557,0)" xlink:href="#bt"/><use transform="matrix(0.07407407407407408,0,0,0.07407407407407408,110.96296296296298,0)" xlink:href="#bS"/></g><g id="R"><use transform="matrix(0.07407407407407408,0,0,0.07407407407407408,0,0)" xlink:href="#bv"/><use transform="matrix(0.07407407407407408,0,0,0.07407407407407408,13.333333333333336,0)" xlink:href="#by"/><use transform="matrix(0.07407407407407408,0,0,0.07407407407407408,22.148148148148152,0)" xlink:href="#bx"/><use transform="matrix(0.07407407407407408,0,0,0.07407407407407408,36.96296296296297,0)" xlink:href="#bE"/><use transform="matrix(0.07407407407407408,0,0,0.07407407407407408,51.777777777777786,0)" xlink:href="#bx"/><use transform="matrix(0.07407407407407408,0,0,0.07407407407407408,66.59259259259261,0)" xlink:href="#bD"/><use transform="matrix(0.07407407407407408,0,0,0.07407407407407408,81.40740740740742,0)" xlink:href="#bt"/><use transform="matrix(0.07407407407407408,0,0,0.07407407407407408,88.81481481481482,0)" xlink:href="#bF"/><use transform="matrix(0.07407407407407408,0,0,0.07407407407407408,94.66666666666669,0)" xlink:href="#bu"/><use transform="matrix(0.07407407407407408,0,0,0.07407407407407408,109.4814814814815,0)" xlink:href="#bJ"/><use transform="matrix(0.07407407407407408,0,0,0.07407407407407408,115.33333333333334,0)" xlink:href="#bA"/><use transform="matrix(0.07407407407407408,0,0,0.07407407407407408,128.66666666666669,0)" xlink:href="#bS"/></g><g id="S"><use transform="matrix(0.07407407407407408,0,0,0.07407407407407408,0,0)" xlink:href="#bu"/><use transform="matrix(0.07407407407407408,0,0,0.07407407407407408,14.814814814814817,0)" xlink:href="#bH"/><use transform="matrix(0.07407407407407408,0,0,0.07407407407407408,29.629629629629633,0)" xlink:href="#bH"/><use transform="matrix(0.07407407407407408,0,0,0.07407407407407408,44.44444444444445,0)" xlink:href="#by"/><use transform="matrix(0.07407407407407408,0,0,0.07407407407407408,53.25925925925927,0)" xlink:href="#bI"/><use transform="matrix(0.07407407407407408,0,0,0.07407407407407408,68.07407407407408,0)" xlink:href="#bR"/><use transform="matrix(0.07407407407407408,0,0,0.07407407407407408,81.40740740740742,0)" xlink:href="#bu"/><use transform="matrix(0.07407407407407408,0,0,0.07407407407407408,96.22222222222223,0)" xlink:href="#bJ"/><use transform="matrix(0.07407407407407408,0,0,0.07407407407407408,102.07407407407408,0)" xlink:href="#bs"/></g><g id="T"><use transform="matrix(0.07407407407407408,0,0,0.07407407407407408,0,0)" xlink:href="#bv"/><use transform="matrix(0.07407407407407408,0,0,0.07407407407407408,13.333333333333336,0)" xlink:href="#bI"/><use transform="matrix(0.07407407407407408,0,0,0.07407407407407408,28.148148148148152,0)" xlink:href="#bG"/><use transform="matrix(0.07407407407407408,0,0,0.07407407407407408,50.296296296296305,0)" xlink:href="#bH"/><use transform="matrix(0.07407407407407408,0,0,0.07407407407407408,65.11111111111111,0)" xlink:href="#bJ"/><use transform="matrix(0.07407407407407408,0,0,0.07407407407407408,70.96296296296296,0)" xlink:href="#bF"/><use transform="matrix(0.07407407407407408,0,0,0.07407407407407408,76.81481481481481,0)" xlink:href="#bx"/><use transform="matrix(0.07407407407407408,0,0,0.07407407407407408,91.62962962962962,0)" xlink:href="#bA"/></g><use transform="matrix(0.07407407407407408,0,0,0.07407407407407408,0,0)" xlink:href="#bW" id="U"/><g id="V"><use transform="matrix(0.07407407407407408,0,0,0.07407407407407408,0,0)" xlink:href="#bv"/><use transform="matrix(0.07407407407407408,0,0,0.07407407407407408,13.333333333333336,0)" xlink:href="#by"/><use transform="matrix(0.07407407407407408,0,0,0.07407407407407408,22.148148148148152,0)" xlink:href="#bx"/><use transform="matrix(0.07407407407407408,0,0,0.07407407407407408,36.96296296296297,0)" xlink:href="#bE"/><use transform="matrix(0.07407407407407408,0,0,0.07407407407407408,51.777777777777786,0)" xlink:href="#bx"/><use transform="matrix(0.07407407407407408,0,0,0.07407407407407408,66.59259259259261,0)" xlink:href="#bD"/><use transform="matrix(0.07407407407407408,0,0,0.07407407407407408,81.40740740740742,0)" xlink:href="#bt"/><use transform="matrix(0.07407407407407408,0,0,0.07407407407407408,88.81481481481482,0)" xlink:href="#bF"/><use transform="matrix(0.07407407407407408,0,0,0.07407407407407408,94.66666666666669,0)" xlink:href="#bu"/><use transform="matrix(0.07407407407407408,0,0,0.07407407407407408,109.4814814814815,0)" xlink:href="#bJ"/><use transform="matrix(0.07407407407407408,0,0,0.07407407407407408,115.33333333333334,0)" xlink:href="#bA"/></g><g id="W"><use transform="matrix(0.07407407407407408,0,0,0.07407407407407408,0,0)" xlink:href="#bI"/><use transform="matrix(0.07407407407407408,0,0,0.07407407407407408,14.814814814814817,0)" xlink:href="#by"/></g><g id="X"><use transform="matrix(0.07407407407407408,0,0,0.07407407407407408,0,0)" xlink:href="#bz"/><use transform="matrix(0.07407407407407408,0,0,0.07407407407407408,7.407407407407408,0)" xlink:href="#bV"/><use transform="matrix(0.07407407407407408,0,0,0.07407407407407408,22.222222222222225,0)" xlink:href="#bD"/><use transform="matrix(0.07407407407407408,0,0,0.07407407407407408,37.03703703703704,0)" xlink:href="#bE"/><use transform="matrix(0.07407407407407408,0,0,0.07407407407407408,51.85185185185186,0)" xlink:href="#bA"/></g><g id="Y"><use transform="matrix(0.07407407407407408,0,0,0.07407407407407408,0,0)" xlink:href="#bv"/><use transform="matrix(0.07407407407407408,0,0,0.07407407407407408,13.333333333333336,0)" xlink:href="#bI"/><use transform="matrix(0.07407407407407408,0,0,0.07407407407407408,28.148148148148152,0)" xlink:href="#bG"/><use transform="matrix(0.07407407407407408,0,0,0.07407407407407408,50.296296296296305,0)" xlink:href="#bH"/><use transform="matrix(0.07407407407407408,0,0,0.07407407407407408,65.11111111111111,0)" xlink:href="#by"/><use transform="matrix(0.07407407407407408,0,0,0.07407407407407408,73.92592592592592,0)" xlink:href="#bI"/><use transform="matrix(0.07407407407407408,0,0,0.07407407407407408,88.74074074074073,0)" xlink:href="#bG"/><use transform="matrix(0.07407407407407408,0,0,0.07407407407407408,110.88888888888889,0)" xlink:href="#bF"/><use transform="matrix(0.07407407407407408,0,0,0.07407407407407408,116.74074074074073,0)" xlink:href="#bA"/><use transform="matrix(0.07407407407407408,0,0,0.07407407407407408,130.07407407407408,0)" xlink:href="#bx"/><use transform="matrix(0.07407407407407408,0,0,0.07407407407407408,144.88888888888889,0)" xlink:href="#bE"/></g><g id="Z"><use transform="matrix(0.07407407407407408,0,0,0.07407407407407408,0,0)" xlink:href="#bp"/><use transform="matrix(0.07407407407407408,0,0,0.07407407407407408,17.77777777777778,0)" xlink:href="#bj"/><use transform="matrix(0.07407407407407408,0,0,0.07407407407407408,38.51851851851851,0)" xlink:href="#bf"/></g><g id="aa"><use transform="matrix(0.07407407407407408,0,0,0.07407407407407408,0,0)" xlink:href="#by"/><use transform="matrix(0.07407407407407408,0,0,0.07407407407407408,8.814814814814817,0)" xlink:href="#bx"/><use transform="matrix(0.07407407407407408,0,0,0.07407407407407408,23.629629629629633,0)" xlink:href="#bu"/><use transform="matrix(0.07407407407407408,0,0,0.07407407407407408,38.44444444444445,0)" xlink:href="#bv"/><use transform="matrix(0.07407407407407408,0,0,0.07407407407407408,51.777777777777786,0)" xlink:href="#bt"/><use transform="matrix(0.07407407407407408,0,0,0.07407407407407408,59.18518518518519,0)" xlink:href="#bA"/></g><g id="ab"><use transform="matrix(0.07407407407407408,0,0,0.07407407407407408,0,0)" xlink:href="#bI"/><use transform="matrix(0.07407407407407408,0,0,0.07407407407407408,14.814814814814817,0)" xlink:href="#bD"/><use transform="matrix(0.07407407407407408,0,0,0.07407407407407408,29.629629629629633,0)" xlink:href="#bJ"/><use transform="matrix(0.07407407407407408,0,0,0.07407407407407408,35.48148148148149,0)" xlink:href="#bT"/></g><g id="ac"><use transform="matrix(0.07407407407407408,0,0,0.07407407407407408,0,0)" xlink:href="#bu"/><use transform="matrix(0.07407407407407408,0,0,0.07407407407407408,14.814814814814817,0)" xlink:href="#bz"/><use transform="matrix(0.07407407407407408,0,0,0.07407407407407408,22.222222222222225,0)" xlink:href="#bt"/><use transform="matrix(0.07407407407407408,0,0,0.07407407407407408,29.629629629629633,0)" xlink:href="#bx"/><use transform="matrix(0.07407407407407408,0,0,0.07407407407407408,44.44444444444445,0)" xlink:href="#by"/></g><g id="ad"><use transform="matrix(0.07407407407407408,0,0,0.07407407407407408,0,0)" xlink:href="#bV"/><use transform="matrix(0.07407407407407408,0,0,0.07407407407407408,14.814814814814817,0)" xlink:href="#bD"/><use transform="matrix(0.07407407407407408,0,0,0.07407407407407408,29.629629629629633,0)" xlink:href="#bV"/><use transform="matrix(0.07407407407407408,0,0,0.07407407407407408,44.44444444444445,0)" xlink:href="#bA"/><use transform="matrix(0.07407407407407408,0,0,0.07407407407407408,57.777777777777786,0)" xlink:href="#bV"/><use transform="matrix(0.07407407407407408,0,0,0.07407407407407408,72.59259259259261,0)" xlink:href="#bu"/><use transform="matrix(0.07407407407407408,0,0,0.07407407407407408,87.40740740740742,0)" xlink:href="#bJ"/></g><g id="ae"><use transform="matrix(0.07407407407407408,0,0,0.07407407407407408,0,0)" xlink:href="#bu"/><use transform="matrix(0.07407407407407408,0,0,0.07407407407407408,14.814814814814817,0)" xlink:href="#bv"/><use transform="matrix(0.07407407407407408,0,0,0.07407407407407408,28.148148148148152,0)" xlink:href="#bt"/><use transform="matrix(0.07407407407407408,0,0,0.07407407407407408,35.55555555555556,0)" xlink:href="#bF"/><use transform="matrix(0.07407407407407408,0,0,0.07407407407407408,41.40740740740741,0)" xlink:href="#bR"/><use transform="matrix(0.07407407407407408,0,0,0.07407407407407408,54.74074074074075,0)" xlink:href="#bF"/><use transform="matrix(0.07407407407407408,0,0,0.07407407407407408,60.5925925925926,0)" xlink:href="#bt"/><use transform="matrix(0.07407407407407408,0,0,0.07407407407407408,68.00000000000001,0)" xlink:href="#bT"/></g><g id="af"><use transform="matrix(0.07407407407407408,0,0,0.07407407407407408,0,0)" xlink:href="#bF"/><use transform="matrix(0.07407407407407408,0,0,0.07407407407407408,5.851851851851853,0)" xlink:href="#bA"/></g><g id="ag"><use transform="matrix(0.07407407407407408,0,0,0.07407407407407408,0,0)" xlink:href="#bE"/><use transform="matrix(0.07407407407407408,0,0,0.07407407407407408,14.814814814814817,0)" xlink:href="#bx"/><use transform="matrix(0.07407407407407408,0,0,0.07407407407407408,29.629629629629633,0)" xlink:href="#bt"/><use transform="matrix(0.07407407407407408,0,0,0.07407407407407408,37.03703703703704,0)" xlink:href="#bx"/><use transform="matrix(0.07407407407407408,0,0,0.07407407407407408,51.85185185185186,0)" xlink:href="#bv"/><use transform="matrix(0.07407407407407408,0,0,0.07407407407407408,65.18518518518519,0)" xlink:href="#bt"/><use transform="matrix(0.07407407407407408,0,0,0.07407407407407408,72.5925925925926,0)" xlink:href="#bx"/><use transform="matrix(0.07407407407407408,0,0,0.07407407407407408,87.40740740740742,0)" xlink:href="#bE"/></g><path d="M160-131c35 5 61 23 61 61C221 17 115-2 30 0v-248c76 3 177-17 177 60 0 33-19 50-47 57zm-97-11c50-1 110 9 110-42 0-47-63-36-110-37v79zm0 115c55-2 124 14 124-45 0-56-70-42-124-44v89" id="bY"/><g id="ah"><use transform="matrix(0.07407407407407408,0,0,0.07407407407407408,0,0)" xlink:href="#bY"/><use transform="matrix(0.07407407407407408,0,0,0.07407407407407408,17.77777777777778,0)" xlink:href="#bV"/><use transform="matrix(0.07407407407407408,0,0,0.07407407407407408,32.592592592592595,0)" xlink:href="#bA"/><use transform="matrix(0.07407407407407408,0,0,0.07407407407407408,45.92592592592593,0)" xlink:href="#bF"/><use transform="matrix(0.07407407407407408,0,0,0.07407407407407408,51.777777777777786,0)" xlink:href="#bD"/><use transform="matrix(0.07407407407407408,0,0,0.07407407407407408,66.59259259259261,0)" xlink:href="#bx"/><use transform="matrix(0.07407407407407408,0,0,0.07407407407407408,81.40740740740742,0)" xlink:href="#bA"/><use transform="matrix(0.07407407407407408,0,0,0.07407407407407408,94.74074074074078,0)" xlink:href="#bA"/></g><g id="ai"><use transform="matrix(0.07407407407407408,0,0,0.07407407407407408,0,0)" xlink:href="#bF"/><use transform="matrix(0.07407407407407408,0,0,0.07407407407407408,5.851851851851853,0)" xlink:href="#bG"/><use transform="matrix(0.07407407407407408,0,0,0.07407407407407408,28.000000000000007,0)" xlink:href="#bH"/><use transform="matrix(0.07407407407407408,0,0,0.07407407407407408,42.814814814814824,0)" xlink:href="#bu"/><use transform="matrix(0.07407407407407408,0,0,0.07407407407407408,57.62962962962964,0)" xlink:href="#bv"/><use transform="matrix(0.07407407407407408,0,0,0.07407407407407408,70.96296296296298,0)" xlink:href="#bt"/></g><path d="M9 0v-24l116-142H16v-24h144v24L44-24h123V0H9" id="bZ"/><g id="aj"><use transform="matrix(0.07407407407407408,0,0,0.07407407407407408,0,0)" xlink:href="#by"/><use transform="matrix(0.07407407407407408,0,0,0.07407407407407408,8.814814814814817,0)" xlink:href="#bx"/><use transform="matrix(0.07407407407407408,0,0,0.07407407407407408,23.629629629629633,0)" xlink:href="#bu"/><use transform="matrix(0.07407407407407408,0,0,0.07407407407407408,38.44444444444445,0)" xlink:href="#bJ"/><use transform="matrix(0.07407407407407408,0,0,0.07407407407407408,44.296296296296305,0)" xlink:href="#bF"/><use transform="matrix(0.07407407407407408,0,0,0.07407407407407408,50.14814814814817,0)" xlink:href="#bZ"/><use transform="matrix(0.07407407407407408,0,0,0.07407407407407408,63.481481481481495,0)" xlink:href="#bx"/><use transform="matrix(0.07407407407407408,0,0,0.07407407407407408,78.2962962962963,0)" xlink:href="#bE"/><use transform="matrix(0.07407407407407408,0,0,0.07407407407407408,93.1111111111111,0)" xlink:href="#bS"/></g><g id="ak"><use transform="matrix(0.07407407407407408,0,0,0.07407407407407408,0,0)" xlink:href="#bx"/><use transform="matrix(0.07407407407407408,0,0,0.07407407407407408,14.814814814814817,0)" xlink:href="#bA"/><use transform="matrix(0.07407407407407408,0,0,0.07407407407407408,28.148148148148152,0)" xlink:href="#bv"/><use transform="matrix(0.07407407407407408,0,0,0.07407407407407408,41.48148148148149,0)" xlink:href="#bu"/><use transform="matrix(0.07407407407407408,0,0,0.07407407407407408,56.296296296296305,0)" xlink:href="#bJ"/><use transform="matrix(0.07407407407407408,0,0,0.07407407407407408,62.14814814814816,0)" xlink:href="#bu"/><use transform="matrix(0.07407407407407408,0,0,0.07407407407407408,76.96296296296298,0)" xlink:href="#bt"/><use transform="matrix(0.07407407407407408,0,0,0.07407407407407408,84.37037037037038,0)" xlink:href="#bF"/><use transform="matrix(0.07407407407407408,0,0,0.07407407407407408,90.22222222222223,0)" xlink:href="#bI"/><use transform="matrix(0.07407407407407408,0,0,0.07407407407407408,105.03703703703704,0)" xlink:href="#bD"/></g><g id="al"><use transform="matrix(0.07407407407407408,0,0,0.07407407407407408,0,0)" xlink:href="#bF"/><use transform="matrix(0.07407407407407408,0,0,0.07407407407407408,5.851851851851853,0)" xlink:href="#bA"/></g><g id="am"><use transform="matrix(0.07407407407407408,0,0,0.07407407407407408,0,0)" xlink:href="#bD"/><use transform="matrix(0.07407407407407408,0,0,0.07407407407407408,14.814814814814817,0)" xlink:href="#bx"/><use transform="matrix(0.07407407407407408,0,0,0.07407407407407408,29.629629629629633,0)" xlink:href="#bx"/><use transform="matrix(0.07407407407407408,0,0,0.07407407407407408,44.44444444444445,0)" xlink:href="#bE"/><use transform="matrix(0.07407407407407408,0,0,0.07407407407407408,59.25925925925927,0)" xlink:href="#bx"/><use transform="matrix(0.07407407407407408,0,0,0.07407407407407408,74.07407407407408,0)" xlink:href="#bE"/></g><g id="an"><use transform="matrix(0.07407407407407408,0,0,0.07407407407407408,0,0)" xlink:href="#bf"/><use transform="matrix(0.07407407407407408,0,0,0.07407407407407408,19.185185185185187,0)" xlink:href="#bI"/><use transform="matrix(0.07407407407407408,0,0,0.07407407407407408,34,0)" xlink:href="#bD"/><use transform="matrix(0.07407407407407408,0,0,0.07407407407407408,48.81481481481481,0)" xlink:href="#bt"/><use transform="matrix(0.07407407407407408,0,0,0.07407407407407408,56.22222222222223,0)" xlink:href="#bx"/><use transform="matrix(0.07407407407407408,0,0,0.07407407407407408,71.03703703703704,0)" xlink:href="#bD"/><use transform="matrix(0.07407407407407408,0,0,0.07407407407407408,85.85185185185185,0)" xlink:href="#bt"/><use transform="matrix(0.07407407407407408,0,0,0.07407407407407408,93.25925925925925,0)" xlink:href="#bS"/></g><g id="ao"><use transform="matrix(0.07407407407407408,0,0,0.07407407407407408,0,0)" xlink:href="#bF"/><use transform="matrix(0.07407407407407408,0,0,0.07407407407407408,5.851851851851853,0)" xlink:href="#bE"/><use transform="matrix(0.07407407407407408,0,0,0.07407407407407408,20.666666666666668,0)" xlink:href="#bx"/><use transform="matrix(0.07407407407407408,0,0,0.07407407407407408,35.48148148148149,0)" xlink:href="#bD"/><use transform="matrix(0.07407407407407408,0,0,0.07407407407407408,50.296296296296305,0)" xlink:href="#bt"/><use transform="matrix(0.07407407407407408,0,0,0.07407407407407408,57.70370370370371,0)" xlink:href="#bF"/><use transform="matrix(0.07407407407407408,0,0,0.07407407407407408,63.555555555555564,0)" xlink:href="#bt"/><use transform="matrix(0.07407407407407408,0,0,0.07407407407407408,70.96296296296298,0)" xlink:href="#bT"/><use transform="matrix(0.07407407407407408,0,0,0.07407407407407408,82.2962962962963,0)" xlink:href="#bS"/></g><g id="ap"><use transform="matrix(0.07407407407407408,0,0,0.07407407407407408,0,0)" xlink:href="#bG"/><use transform="matrix(0.07407407407407408,0,0,0.07407407407407408,22.148148148148152,0)" xlink:href="#bx"/><use transform="matrix(0.07407407407407408,0,0,0.07407407407407408,36.96296296296297,0)" xlink:href="#bt"/><use transform="matrix(0.07407407407407408,0,0,0.07407407407407408,44.37037037037039,0)" xlink:href="#bu"/><use transform="matrix(0.07407407407407408,0,0,0.07407407407407408,59.185185185185205,0)" xlink:href="#bE"/><use transform="matrix(0.07407407407407408,0,0,0.07407407407407408,74.00000000000001,0)" xlink:href="#bu"/><use transform="matrix(0.07407407407407408,0,0,0.07407407407407408,88.81481481481484,0)" xlink:href="#bt"/><use transform="matrix(0.07407407407407408,0,0,0.07407407407407408,96.22222222222223,0)" xlink:href="#bu"/></g><path d="M33 0v-38h34V0H33" id="ca"/><g id="aq"><use transform="matrix(0.07407407407407408,0,0,0.07407407407407408,0,0)" xlink:href="#bx"/><use transform="matrix(0.07407407407407408,0,0,0.07407407407407408,14.814814814814817,0)" xlink:href="#bt"/><use transform="matrix(0.07407407407407408,0,0,0.07407407407407408,22.222222222222225,0)" xlink:href="#bv"/><use transform="matrix(0.07407407407407408,0,0,0.07407407407407408,35.55555555555556,0)" xlink:href="#ca"/></g><g id="ar"><use transform="matrix(0.07407407407407408,0,0,0.07407407407407408,0,0)" xlink:href="#bG"/><use transform="matrix(0.07407407407407408,0,0,0.07407407407407408,22.148148148148152,0)" xlink:href="#bF"/><use transform="matrix(0.07407407407407408,0,0,0.07407407407407408,28.000000000000007,0)" xlink:href="#bA"/><use transform="matrix(0.07407407407407408,0,0,0.07407407407407408,41.333333333333336,0)" xlink:href="#bG"/><use transform="matrix(0.07407407407407408,0,0,0.07407407407407408,63.481481481481495,0)" xlink:href="#bu"/><use transform="matrix(0.07407407407407408,0,0,0.07407407407407408,78.2962962962963,0)" xlink:href="#bt"/><use transform="matrix(0.07407407407407408,0,0,0.07407407407407408,85.70370370370371,0)" xlink:href="#bv"/><use transform="matrix(0.07407407407407408,0,0,0.07407407407407408,99.03703703703704,0)" xlink:href="#bP"/><use transform="matrix(0.07407407407407408,0,0,0.07407407407407408,113.85185185185185,0)" xlink:href="#bS"/></g><g id="as"><use transform="matrix(0.07407407407407408,0,0,0.07407407407407408,0,0)" xlink:href="#bE"/><use transform="matrix(0.07407407407407408,0,0,0.07407407407407408,14.814814814814817,0)" xlink:href="#bx"/><use transform="matrix(0.07407407407407408,0,0,0.07407407407407408,29.629629629629633,0)" xlink:href="#bt"/><use transform="matrix(0.07407407407407408,0,0,0.07407407407407408,37.03703703703704,0)" xlink:href="#bx"/><use transform="matrix(0.07407407407407408,0,0,0.07407407407407408,51.85185185185186,0)" xlink:href="#bv"/><use transform="matrix(0.07407407407407408,0,0,0.07407407407407408,65.18518518518519,0)" xlink:href="#bt"/><use transform="matrix(0.07407407407407408,0,0,0.07407407407407408,72.5925925925926,0)" xlink:href="#bx"/><use transform="matrix(0.07407407407407408,0,0,0.07407407407407408,87.40740740740742,0)" xlink:href="#bE"/></g><g id="at"><use transform="matrix(0.07407407407407408,0,0,0.07407407407407408,0,0)" xlink:href="#bR"/><use transform="matrix(0.07407407407407408,0,0,0.07407407407407408,13.333333333333336,0)" xlink:href="#bA"/></g><g id="au"><use transform="matrix(0.07407407407407408,0,0,0.07407407407407408,0,0)" xlink:href="#bV"/><use transform="matrix(0.07407407407407408,0,0,0.07407407407407408,14.814814814814817,0)" xlink:href="#bA"/><use transform="matrix(0.07407407407407408,0,0,0.07407407407407408,28.148148148148152,0)" xlink:href="#bV"/><use transform="matrix(0.07407407407407408,0,0,0.07407407407407408,42.96296296296297,0)" xlink:href="#bu"/><use transform="matrix(0.07407407407407408,0,0,0.07407407407407408,57.777777777777786,0)" xlink:href="#bJ"/></g><g id="av"><use transform="matrix(0.07407407407407408,0,0,0.07407407407407408,0,0)" xlink:href="#bA"/><use transform="matrix(0.07407407407407408,0,0,0.07407407407407408,13.333333333333336,0)" xlink:href="#bx"/><use transform="matrix(0.07407407407407408,0,0,0.07407407407407408,28.148148148148152,0)" xlink:href="#bD"/><use transform="matrix(0.07407407407407408,0,0,0.07407407407407408,42.96296296296297,0)" xlink:href="#bE"/><use transform="matrix(0.07407407407407408,0,0,0.07407407407407408,57.777777777777786,0)" xlink:href="#bx"/><use transform="matrix(0.07407407407407408,0,0,0.07407407407407408,72.59259259259261,0)" xlink:href="#by"/></g><g id="aw"><use transform="matrix(0.07407407407407408,0,0,0.07407407407407408,0,0)" xlink:href="#be"/><use transform="matrix(0.07407407407407408,0,0,0.07407407407407408,17.77777777777778,0)" xlink:href="#bl"/></g><g id="ax"><use transform="matrix(0.07407407407407408,0,0,0.07407407407407408,0,0)" xlink:href="#bR"/><use transform="matrix(0.07407407407407408,0,0,0.07407407407407408,13.333333333333336,0)" xlink:href="#bu"/><use transform="matrix(0.07407407407407408,0,0,0.07407407407407408,28.148148148148152,0)" xlink:href="#bJ"/><use transform="matrix(0.07407407407407408,0,0,0.07407407407407408,34.00000000000001,0)" xlink:href="#bF"/><use transform="matrix(0.07407407407407408,0,0,0.07407407407407408,39.85185185185187,0)" xlink:href="#bE"/><use transform="matrix(0.07407407407407408,0,0,0.07407407407407408,54.666666666666686,0)" xlink:href="#bu"/><use transform="matrix(0.07407407407407408,0,0,0.07407407407407408,69.4814814814815,0)" xlink:href="#bt"/><use transform="matrix(0.07407407407407408,0,0,0.07407407407407408,76.8888888888889,0)" xlink:href="#bx"/><use transform="matrix(0.07407407407407408,0,0,0.07407407407407408,91.70370370370371,0)" xlink:href="#bA"/></g><g id="ay"><use transform="matrix(0.07407407407407408,0,0,0.07407407407407408,0,0)" xlink:href="#bt"/><use transform="matrix(0.07407407407407408,0,0,0.07407407407407408,7.407407407407408,0)" xlink:href="#bP"/><use transform="matrix(0.07407407407407408,0,0,0.07407407407407408,22.222222222222225,0)" xlink:href="#by"/><use transform="matrix(0.07407407407407408,0,0,0.07407407407407408,31.03703703703704,0)" xlink:href="#bx"/><use transform="matrix(0.07407407407407408,0,0,0.07407407407407408,45.851851851851855,0)" xlink:href="#bu"/><use transform="matrix(0.07407407407407408,0,0,0.07407407407407408,60.66666666666667,0)" xlink:href="#bt"/></g><g id="az"><use transform="matrix(0.07407407407407408,0,0,0.07407407407407408,0,0)" xlink:href="#bF"/><use transform="matrix(0.07407407407407408,0,0,0.07407407407407408,5.851851851851853,0)" xlink:href="#bD"/></g><g id="aA"><use transform="matrix(0.07407407407407408,0,0,0.07407407407407408,0,0)" xlink:href="#by"/><use transform="matrix(0.07407407407407408,0,0,0.07407407407407408,8.814814814814817,0)" xlink:href="#bx"/><use transform="matrix(0.07407407407407408,0,0,0.07407407407407408,23.629629629629633,0)" xlink:href="#bu"/><use transform="matrix(0.07407407407407408,0,0,0.07407407407407408,38.44444444444445,0)" xlink:href="#bJ"/></g><g id="aB"><use transform="matrix(0.07407407407407408,0,0,0.07407407407407408,0,0)" xlink:href="#bt"/><use transform="matrix(0.07407407407407408,0,0,0.07407407407407408,7.407407407407408,0)" xlink:href="#bF"/><use transform="matrix(0.07407407407407408,0,0,0.07407407407407408,13.259259259259261,0)" xlink:href="#bG"/><use transform="matrix(0.07407407407407408,0,0,0.07407407407407408,35.40740740740741,0)" xlink:href="#bx"/></g><g id="aC"><use transform="matrix(0.07407407407407408,0,0,0.07407407407407408,0,0)" xlink:href="#bM"/><use transform="matrix(0.07407407407407408,0,0,0.07407407407407408,22.148148148148152,0)" xlink:href="#bx"/><use transform="matrix(0.07407407407407408,0,0,0.07407407407407408,36.96296296296297,0)" xlink:href="#bA"/><use transform="matrix(0.07407407407407408,0,0,0.07407407407407408,50.296296296296305,0)" xlink:href="#bA"/><use transform="matrix(0.07407407407407408,0,0,0.07407407407407408,63.62962962962964,0)" xlink:href="#bu"/><use transform="matrix(0.07407407407407408,0,0,0.07407407407407408,78.44444444444446,0)" xlink:href="#bC"/><use transform="matrix(0.07407407407407408,0,0,0.07407407407407408,93.25925925925927,0)" xlink:href="#bx"/></g><g id="aD"><use transform="matrix(0.07407407407407408,0,0,0.07407407407407408,0,0)" xlink:href="#by"/><use transform="matrix(0.07407407407407408,0,0,0.07407407407407408,8.814814814814817,0)" xlink:href="#bx"/><use transform="matrix(0.07407407407407408,0,0,0.07407407407407408,23.629629629629633,0)" xlink:href="#bG"/><use transform="matrix(0.07407407407407408,0,0,0.07407407407407408,45.777777777777786,0)" xlink:href="#bI"/><use transform="matrix(0.07407407407407408,0,0,0.07407407407407408,60.5925925925926,0)" xlink:href="#bR"/><use transform="matrix(0.07407407407407408,0,0,0.07407407407407408,73.92592592592594,0)" xlink:href="#bx"/><use transform="matrix(0.07407407407407408,0,0,0.07407407407407408,88.74074074074078,0)" xlink:href="#bE"/></g><g id="aE"><use transform="matrix(0.07407407407407408,0,0,0.07407407407407408,0,0)" xlink:href="#bQ"/><use transform="matrix(0.07407407407407408,0,0,0.07407407407407408,14.814814814814817,0)" xlink:href="#bx"/><use transform="matrix(0.07407407407407408,0,0,0.07407407407407408,29.629629629629633,0)" xlink:href="#bz"/><use transform="matrix(0.07407407407407408,0,0,0.07407407407407408,37.03703703703704,0)" xlink:href="#bI"/><use transform="matrix(0.07407407407407408,0,0,0.07407407407407408,51.85185185185186,0)" xlink:href="#by"/><use transform="matrix(0.07407407407407408,0,0,0.07407407407407408,60.66666666666667,0)" xlink:href="#bx"/></g><g id="aF"><use transform="matrix(0.07407407407407408,0,0,0.07407407407407408,0,0)" xlink:href="#bV"/><use transform="matrix(0.07407407407407408,0,0,0.07407407407407408,14.814814814814817,0)" xlink:href="#bA"/><use transform="matrix(0.07407407407407408,0,0,0.07407407407407408,28.148148148148152,0)" xlink:href="#bx"/><use transform="matrix(0.07407407407407408,0,0,0.07407407407407408,42.96296296296297,0)" xlink:href="#by"/></g><g id="aG"><use transform="matrix(0.07407407407407408,0,0,0.07407407407407408,0,0)" xlink:href="#bF"/><use transform="matrix(0.07407407407407408,0,0,0.07407407407407408,5.851851851851853,0)" xlink:href="#bt"/></g><g id="aH"><use transform="matrix(0.07407407407407408,0,0,0.07407407407407408,0,0)" xlink:href="#be"/><use transform="matrix(0.07407407407407408,0,0,0.07407407407407408,17.77777777777778,0)" xlink:href="#bt"/><use transform="matrix(0.07407407407407408,0,0,0.07407407407407408,25.185185185185187,0)" xlink:href="#bt"/><use transform="matrix(0.07407407407407408,0,0,0.07407407407407408,32.592592592592595,0)" xlink:href="#bu"/><use transform="matrix(0.07407407407407408,0,0,0.07407407407407408,47.40740740740741,0)" xlink:href="#bv"/><use transform="matrix(0.07407407407407408,0,0,0.07407407407407408,60.74074074074075,0)" xlink:href="#bw"/></g><g id="aI"><use transform="matrix(0.07407407407407408,0,0,0.07407407407407408,0,0)" xlink:href="#bz"/><use transform="matrix(0.07407407407407408,0,0,0.07407407407407408,7.407407407407408,0)" xlink:href="#bV"/><use transform="matrix(0.07407407407407408,0,0,0.07407407407407408,22.222222222222225,0)" xlink:href="#bJ"/><use transform="matrix(0.07407407407407408,0,0,0.07407407407407408,28.074074074074076,0)" xlink:href="#bJ"/><use transform="matrix(0.07407407407407408,0,0,0.07407407407407408,33.92592592592593,0)" xlink:href="#bT"/></g><g id="aJ"><use transform="matrix(0.07407407407407408,0,0,0.07407407407407408,0,0)" xlink:href="#bD"/><use transform="matrix(0.07407407407407408,0,0,0.07407407407407408,14.814814814814817,0)" xlink:href="#bx"/><use transform="matrix(0.07407407407407408,0,0,0.07407407407407408,29.629629629629633,0)" xlink:href="#bV"/><use transform="matrix(0.07407407407407408,0,0,0.07407407407407408,44.44444444444445,0)" xlink:href="#bt"/><use transform="matrix(0.07407407407407408,0,0,0.07407407407407408,51.85185185185186,0)" xlink:href="#by"/><use transform="matrix(0.07407407407407408,0,0,0.07407407407407408,60.66666666666667,0)" xlink:href="#bu"/><use transform="matrix(0.07407407407407408,0,0,0.07407407407407408,75.4814814814815,0)" xlink:href="#bJ"/><use transform="matrix(0.07407407407407408,0,0,0.07407407407407408,81.33333333333334,0)" xlink:href="#bF"/><use transform="matrix(0.07407407407407408,0,0,0.07407407407407408,87.18518518518519,0)" xlink:href="#bZ"/><use transform="matrix(0.07407407407407408,0,0,0.07407407407407408,100.51851851851853,0)" xlink:href="#bx"/><use transform="matrix(0.07407407407407408,0,0,0.07407407407407408,115.33333333333334,0)" xlink:href="#bE"/></g><g id="aK"><use transform="matrix(0.07407407407407408,0,0,0.07407407407407408,0,0)" xlink:href="#bO"/><use transform="matrix(0.07407407407407408,0,0,0.07407407407407408,19.185185185185187,0)" xlink:href="#bF"/><use transform="matrix(0.07407407407407408,0,0,0.07407407407407408,25.037037037037035,0)" xlink:href="#bt"/><use transform="matrix(0.07407407407407408,0,0,0.07407407407407408,32.44444444444444,0)" xlink:href="#bP"/><use transform="matrix(0.07407407407407408,0,0,0.07407407407407408,47.25925925925926,0)" xlink:href="#bI"/><use transform="matrix(0.07407407407407408,0,0,0.07407407407407408,62.074074074074076,0)" xlink:href="#bV"/><use transform="matrix(0.07407407407407408,0,0,0.07407407407407408,76.88888888888889,0)" xlink:href="#bt"/></g><g id="aL"><use transform="matrix(0.07407407407407408,0,0,0.07407407407407408,0,0)" xlink:href="#bF"/><use transform="matrix(0.07407407407407408,0,0,0.07407407407407408,5.851851851851853,0)" xlink:href="#bD"/><use transform="matrix(0.07407407407407408,0,0,0.07407407407407408,20.666666666666668,0)" xlink:href="#bR"/><use transform="matrix(0.07407407407407408,0,0,0.07407407407407408,34.00000000000001,0)" xlink:href="#bI"/><use transform="matrix(0.07407407407407408,0,0,0.07407407407407408,48.814814814814824,0)" xlink:href="#bJ"/><use transform="matrix(0.07407407407407408,0,0,0.07407407407407408,54.666666666666686,0)" xlink:href="#bR"/><use transform="matrix(0.07407407407407408,0,0,0.07407407407407408,68.00000000000001,0)" xlink:href="#bx"/><use transform="matrix(0.07407407407407408,0,0,0.07407407407407408,82.81481481481484,0)" xlink:href="#bG"/><use transform="matrix(0.07407407407407408,0,0,0.07407407407407408,104.96296296296299,0)" xlink:href="#bx"/><use transform="matrix(0.07407407407407408,0,0,0.07407407407407408,119.7777777777778,0)" xlink:href="#bD"/><use transform="matrix(0.07407407407407408,0,0,0.07407407407407408,134.5925925925926,0)" xlink:href="#bt"/></g></defs></g></svg>