<svg xmlns="http://www.w3.org/2000/svg" xmlns:xlink="http://www.w3.org/1999/xlink" xmlns:lucid="lucid" width="2500" height="563.01"><g transform="translate(22120 18120)" lucid:page-tab-id="0_0"><path d="M-22120-18114a6 6 0 0 1 6-6h675.42a6 6 0 0 1 6 6v30a6 6 0 0 1-6 6H-22114a6 6 0 0 1-6-6z" fill="none"/><use xlink:href="#a" transform="matrix(1,0,0,1,-22115,-18115) translate(0 21.833333333333336)"/><use xlink:href="#b" transform="matrix(1,0,0,1,-22115,-18115) translate(154.962962962963 21.833333333333336)"/><use xlink:href="#c" transform="matrix(1,0,0,1,-22115,-18115) translate(291.03703703703707 21.833333333333336)"/><use xlink:href="#d" transform="matrix(1,0,0,1,-22115,-18115) translate(305.8518518518519 21.833333333333336)"/><use xlink:href="#e" transform="matrix(1,0,0,1,-22115,-18115) translate(396.88888888888897 21.833333333333336)"/><use xlink:href="#f" transform="matrix(1,0,0,1,-22115,-18115) translate(440.7407407407408 21.833333333333336)"/><use xlink:href="#g" transform="matrix(1,0,0,1,-22115,-18115) translate(572.2222222222224 21.833333333333336)"/><path d="M-21675.23-18034a6 6 0 0 1 6-6h568.67a6 6 0 0 1 6 6v30a6 6 0 0 1-6 6h-568.67a6 6 0 0 1-6-6z" fill="none"/><use xlink:href="#h" transform="matrix(1,0,0,1,-21670.23203703704,-18035) translate(0 21.833333333333336)"/><use xlink:href="#i" transform="matrix(1,0,0,1,-21670.23203703704,-18035) translate(114.96296296296298 21.833333333333336)"/><use xlink:href="#j" transform="matrix(1,0,0,1,-21670.23203703704,-18035) translate(296.8148148148149 21.833333333333336)"/><use xlink:href="#k" transform="matrix(1,0,0,1,-21670.23203703704,-18035) translate(414.0000000000001 21.833333333333336)"/><path d="M-21665.13-17794a6 6 0 0 1 6-6h696.9a6 6 0 0 1 6 6v30a6 6 0 0 1-6 6h-696.9a6 6 0 0 1-6-6z" fill="none"/><use xlink:href="#l" transform="matrix(1,0,0,1,-21660.133703703705,-17795) translate(0 21.833333333333336)"/><use xlink:href="#m" transform="matrix(1,0,0,1,-21660.133703703705,-17795) translate(142.00000000000003 21.833333333333336)"/><use xlink:href="#i" transform="matrix(1,0,0,1,-21660.133703703705,-17795) translate(228.37037037037038 21.833333333333336)"/><use xlink:href="#j" transform="matrix(1,0,0,1,-21660.133703703705,-17795) translate(410.2222222222223 21.833333333333336)"/><use xlink:href="#n" transform="matrix(1,0,0,1,-21660.133703703705,-17795) translate(527.4074074074075 21.833333333333336)"/><path d="M-22120-17832a6 6 0 0 1 6-6h308a6 6 0 0 1 6 6v122a6 6 0 0 1-6 6h-308a6 6 0 0 1-6-6z" fill="none"/><use xlink:href="#o" transform="matrix(1,0,0,1,-22115,-17833) translate(0 21.833346969665968)"/><use xlink:href="#p" transform="matrix(1,0,0,1,-22115,-17833) translate(105.1111111111111 21.833346969665968)"/><use xlink:href="#q" transform="matrix(1,0,0,1,-22115,-17833) translate(183.62962962962962 21.833346969665968)"/><use xlink:href="#r" transform="matrix(1,0,0,1,-22115,-17833) translate(0 52.500004545444206)"/><use xlink:href="#s" transform="matrix(1,0,0,1,-22115,-17833) translate(31.03703703703704 52.500004545444206)"/><use xlink:href="#t" transform="matrix(1,0,0,1,-22115,-17833) translate(189.25925925925927 52.500004545444206)"/><use xlink:href="#u" transform="matrix(1,0,0,1,-22115,-17833) translate(0 83.16666212122244)"/><use xlink:href="#v" transform="matrix(1,0,0,1,-22115,-17833) translate(81.33333333333334 83.16666212122244)"/><use xlink:href="#w" transform="matrix(1,0,0,1,-22115,-17833) translate(140.51851851851853 83.16666212122244)"/><use xlink:href="#x" transform="matrix(1,0,0,1,-22115,-17833) translate(170.14814814814815 83.16666212122244)"/><use xlink:href="#y" transform="matrix(1,0,0,1,-22115,-17833) translate(217.40740740740742 83.16666212122244)"/><use xlink:href="#z" transform="matrix(1,0,0,1,-22115,-17833) translate(0 113.83331969700069)"/><use xlink:href="#A" transform="matrix(1,0,0,1,-22115,-17833) translate(81.48148148148148 113.83331969700069)"/><path d="M-21658.46-17934a6 6 0 0 1 6-6h306.46a6 6 0 0 1 6 6v60.68a6 6 0 0 1-6 6h-306.46a6 6 0 0 1-6-6z" fill="none"/><use xlink:href="#B" transform="matrix(1,0,0,1,-21653.4616863685,-17935) translate(0 21.500004545444213)"/><use xlink:href="#C" transform="matrix(1,0,0,1,-21653.4616863685,-17935) translate(73.85185185185186 21.500004545444213)"/><use xlink:href="#D" transform="matrix(1,0,0,1,-21653.4616863685,-17935) translate(177.4814814814815 21.500004545444213)"/><use xlink:href="#E" transform="matrix(1,0,0,1,-21653.4616863685,-17935) translate(0 52.16666212122245)"/><use xlink:href="#F" transform="matrix(1,0,0,1,-21653.4616863685,-17935) translate(34.074074074074076 52.16666212122245)"/><use xlink:href="#G" transform="matrix(1,0,0,1,-21653.4616863685,-17935) translate(125.92592592592594 52.16666212122245)"/><use xlink:href="#H" transform="matrix(1,0,0,1,-21653.4616863685,-17935) translate(195.48148148148152 52.16666212122245)"/><path d="M-21224.48-17927a6 6 0 0 1 6-6h295.2a6 6 0 0 1 6 6v60.68a6 6 0 0 1-6 6h-295.2a6 6 0 0 1-6-6z" fill="none"/><use xlink:href="#I" transform="matrix(1,0,0,1,-21219.482962962964,-17928.000027272665) translate(0 21.500004545444213)"/><use xlink:href="#J" transform="matrix(1,0,0,1,-21219.482962962964,-17928.000027272665) translate(63.55555555555556 21.500004545444213)"/><use xlink:href="#K" transform="matrix(1,0,0,1,-21219.482962962964,-17928.000027272665) translate(124.14814814814817 21.500004545444213)"/><use xlink:href="#L" transform="matrix(1,0,0,1,-21219.482962962964,-17928.000027272665) translate(168.5925925925926 21.500004545444213)"/><use xlink:href="#M" transform="matrix(1,0,0,1,-21219.482962962964,-17928.000027272665) translate(266.22222222222223 21.500004545444213)"/><use xlink:href="#N" transform="matrix(1,0,0,1,-21219.482962962964,-17928.000027272665) translate(0 52.16666212122245)"/><path d="M-20800-17957.67a6 6 0 0 1 6-6h329.97a6 6 0 0 1 6 6v122a6 6 0 0 1-6 6H-20794a6 6 0 0 1-6-6z" fill="none"/><use xlink:href="#o" transform="matrix(1,0,0,1,-20795,-17958.666684848442) translate(0 37.1666757575551)"/><use xlink:href="#O" transform="matrix(1,0,0,1,-20795,-17958.666684848442) translate(105.1111111111111 37.1666757575551)"/><use xlink:href="#v" transform="matrix(1,0,0,1,-20795,-17958.666684848442) translate(230.96296296296296 37.1666757575551)"/><use xlink:href="#P" transform="matrix(1,0,0,1,-20795,-17958.666684848442) translate(290.14814814814815 37.1666757575551)"/><use xlink:href="#Q" transform="matrix(1,0,0,1,-20795,-17958.666684848442) translate(0 67.83333333333334)"/><use xlink:href="#R" transform="matrix(1,0,0,1,-20795,-17958.666684848442) translate(75.33333333333334 67.83333333333334)"/><use xlink:href="#S" transform="matrix(1,0,0,1,-20795,-17958.666684848442) translate(125.62962962962965 67.83333333333334)"/><use xlink:href="#T" transform="matrix(1,0,0,1,-20795,-17958.666684848442) translate(140.44444444444446 67.83333333333334)"/><use xlink:href="#U" transform="matrix(1,0,0,1,-20795,-17958.666684848442) translate(214.44444444444446 67.83333333333334)"/><use xlink:href="#V" transform="matrix(1,0,0,1,-20795,-17958.666684848442) translate(0 98.49999090911157)"/><use xlink:href="#S" transform="matrix(1,0,0,1,-20795,-17958.666684848442) translate(65.18518518518519 98.49999090911157)"/><use xlink:href="#W" transform="matrix(1,0,0,1,-20795,-17958.666684848442) translate(80 98.49999090911157)"/><use xlink:href="#X" transform="matrix(1,0,0,1,-20795,-17958.666684848442) translate(183.55555555555554 98.49999090911157)"/><path d="M-20380-17942.33a6 6 0 0 1 6-6h288.56a6 6 0 0 1 6 6v91.34a6 6 0 0 1-6 6H-20374a6 6 0 0 1-6-6z" fill="none"/><g><use xlink:href="#Y" transform="matrix(1,0,0,1,-20375,-17943.333356060553) translate(0 21.666675757555097)"/><use xlink:href="#Z" transform="matrix(1,0,0,1,-20375,-17943.333356060553) translate(165.7037037037037 21.666675757555097)"/><use xlink:href="#aa" transform="matrix(1,0,0,1,-20375,-17943.333356060553) translate(256.0740740740741 21.666675757555097)"/><use xlink:href="#ab" transform="matrix(1,0,0,1,-20375,-17943.333356060553) translate(0 52.333333333333336)"/><use xlink:href="#ac" transform="matrix(1,0,0,1,-20375,-17943.333356060553) translate(90.22222222222224 52.333333333333336)"/><use xlink:href="#ad" transform="matrix(1,0,0,1,-20375,-17943.333356060553) translate(177.48148148148152 52.333333333333336)"/><use xlink:href="#ae" transform="matrix(1,0,0,1,-20375,-17943.333356060553) translate(0 82.99999090911157)"/></g><path d="M-19980-17942.33a6 6 0 0 1 6-6h328a6 6 0 0 1 6 6v91.34a6 6 0 0 1-6 6h-328a6 6 0 0 1-6-6z" fill="none"/><g><use xlink:href="#af" transform="matrix(1,0,0,1,-19975,-17943.333356060553) translate(0 21.666675757555097)"/><use xlink:href="#ag" transform="matrix(1,0,0,1,-19975,-17943.333356060553) translate(65.11111111111111 21.666675757555097)"/><use xlink:href="#ah" transform="matrix(1,0,0,1,-19975,-17943.333356060553) translate(153.85185185185185 21.666675757555097)"/><use xlink:href="#ai" transform="matrix(1,0,0,1,-19975,-17943.333356060553) translate(210.07407407407408 21.666675757555097)"/><use xlink:href="#aj" transform="matrix(1,0,0,1,-19975,-17943.333356060553) translate(0 52.333333333333336)"/><use xlink:href="#ak" transform="matrix(1,0,0,1,-19975,-17943.333356060553) translate(131.70370370370372 52.333333333333336)"/><use xlink:href="#r" transform="matrix(1,0,0,1,-19975,-17943.333356060553) translate(195.2592592592593 52.333333333333336)"/><use xlink:href="#al" transform="matrix(1,0,0,1,-19975,-17943.333356060553) translate(226.29629629629633 52.333333333333336)"/><use xlink:href="#am" transform="matrix(1,0,0,1,-19975,-17943.333356060553) translate(0 82.99999090911157)"/></g><path d="M-21665.13-17685a6 6 0 0 1 6-6h385.5a6 6 0 0 1 6 6v122a6 6 0 0 1-6 6h-385.5a6 6 0 0 1-6-6z" fill="none"/><g><use xlink:href="#an" transform="matrix(1,0,0,1,-21660.133703703705,-17685.999972727335) translate(0 21.833346969665968)"/><use xlink:href="#ao" transform="matrix(1,0,0,1,-21660.133703703705,-17685.999972727335) translate(133.11111111111111 21.833346969665968)"/><use xlink:href="#ap" transform="matrix(1,0,0,1,-21660.133703703705,-17685.999972727335) translate(158.2962962962963 21.833346969665968)"/><use xlink:href="#aq" transform="matrix(1,0,0,1,-21660.133703703705,-17685.999972727335) translate(253.11111111111111 21.833346969665968)"/><use xlink:href="#ar" transform="matrix(1,0,0,1,-21660.133703703705,-17685.999972727335) translate(0 52.500004545444206)"/><use xlink:href="#as" transform="matrix(1,0,0,1,-21660.133703703705,-17685.999972727335) translate(93.33333333333333 52.500004545444206)"/><use xlink:href="#at" transform="matrix(1,0,0,1,-21660.133703703705,-17685.999972727335) translate(176.14814814814815 52.500004545444206)"/><use xlink:href="#au" transform="matrix(1,0,0,1,-21660.133703703705,-17685.999972727335) translate(279.70370370370375 52.500004545444206)"/><use xlink:href="#av" transform="matrix(1,0,0,1,-21660.133703703705,-17685.999972727335) translate(0 83.16666212122244)"/><use xlink:href="#aw" transform="matrix(1,0,0,1,-21660.133703703705,-17685.999972727335) translate(103.62962962962963 83.16666212122244)"/><use xlink:href="#ax" transform="matrix(1,0,0,1,-21660.133703703705,-17685.999972727335) translate(214.5925925925926 83.16666212122244)"/><use xlink:href="#ay" transform="matrix(1,0,0,1,-21660.133703703705,-17685.999972727335) translate(237.55555555555557 83.16666212122244)"/><use xlink:href="#L" transform="matrix(1,0,0,1,-21660.133703703705,-17685.999972727335) translate(0 113.83331969700069)"/><use xlink:href="#ax" transform="matrix(1,0,0,1,-21660.133703703705,-17685.999972727335) translate(97.62962962962963 113.83331969700069)"/><use xlink:href="#az" transform="matrix(1,0,0,1,-21660.133703703705,-17685.999972727335) translate(120.5925925925926 113.83331969700069)"/><use xlink:href="#aA" transform="matrix(1,0,0,1,-21660.133703703705,-17685.999972727335) translate(210.81481481481484 113.83331969700069)"/></g><path d="M-21168.32-17654a6 6 0 0 1 6-6h343.27a6 6 0 0 1 6 6v60.68a6 6 0 0 1-6 6h-343.27a6 6 0 0 1-6-6z" fill="none"/><g><use xlink:href="#aB" transform="matrix(1,0,0,1,-21163.32097672862,-17655) translate(0 21.500004545444213)"/><use xlink:href="#aC" transform="matrix(1,0,0,1,-21163.32097672862,-17655) translate(136.14814814814815 21.500004545444213)"/><use xlink:href="#aD" transform="matrix(1,0,0,1,-21163.32097672862,-17655) translate(0 52.16666212122245)"/><use xlink:href="#aE" transform="matrix(1,0,0,1,-21163.32097672862,-17655) translate(121.25925925925928 52.16666212122245)"/></g><path d="M-20740-17654.33a6 6 0 0 1 6-6h290.92a6 6 0 0 1 6 6v60.67a6 6 0 0 1-6 6H-20734a6 6 0 0 1-6-6z" fill="none"/><g><use xlink:href="#B" transform="matrix(1,0,0,1,-20735,-17655.333315151558) translate(0 21.500004545444213)"/><use xlink:href="#aF" transform="matrix(1,0,0,1,-20735,-17655.333315151558) translate(73.85185185185186 21.500004545444213)"/><use xlink:href="#aG" transform="matrix(1,0,0,1,-20735,-17655.333315151558) translate(0 52.16666212122245)"/><use xlink:href="#v" transform="matrix(1,0,0,1,-20735,-17655.333315151558) translate(82.8888888888889 52.16666212122245)"/><use xlink:href="#aH" transform="matrix(1,0,0,1,-20735,-17655.333315151558) translate(142.07407407407408 52.16666212122245)"/><use xlink:href="#aI" transform="matrix(1,0,0,1,-20735,-17655.333315151558) translate(192.44444444444446 52.16666212122245)"/><use xlink:href="#aJ" transform="matrix(1,0,0,1,-20735,-17655.333315151558) translate(235.40740740740742 52.16666212122245)"/><use xlink:href="#aK" transform="matrix(1,0,0,1,-20735,-17655.333315151558) translate(272.44444444444446 52.16666212122245)"/></g><path d="M-19980-17654.33a6 6 0 0 1 6-6h348a6 6 0 0 1 6 6v60.67a6 6 0 0 1-6 6h-348a6 6 0 0 1-6-6z" fill="none"/><g><use xlink:href="#aL" transform="matrix(1,0,0,1,-19975,-17655.333315151558) translate(0 21.500004545444213)"/><use xlink:href="#aM" transform="matrix(1,0,0,1,-19975,-17655.333315151558) translate(41.407407407407405 21.500004545444213)"/><use xlink:href="#aN" transform="matrix(1,0,0,1,-19975,-17655.333315151558) translate(103.4814814814815 21.500004545444213)"/><use xlink:href="#aO" transform="matrix(1,0,0,1,-19975,-17655.333315151558) translate(241.0370370370371 21.500004545444213)"/><use xlink:href="#Z" transform="matrix(1,0,0,1,-19975,-17655.333315151558) translate(0 52.16666212122245)"/><use xlink:href="#aP" transform="matrix(1,0,0,1,-19975,-17655.333315151558) translate(90.3703703703704 52.16666212122245)"/><use xlink:href="#w" transform="matrix(1,0,0,1,-19975,-17655.333315151558) translate(188.0740740740741 52.16666212122245)"/><use xlink:href="#aQ" transform="matrix(1,0,0,1,-19975,-17655.333315151558) translate(217.70370370370375 52.16666212122245)"/></g><path d="M-21266.64-17624h82.33" stroke="#000" stroke-width="2" fill="none"/><path d="M-21266.6-17623.02h-1.04v-1.95h1.03z" stroke="#000" stroke-width=".05"/><path d="M-21170.32-17624l-13 7.5v-15z" stroke="#000" stroke-width="2"/><path d="M-20812.05-17623.66h35.36a.17.17 0 0 0 .17-.17.17.17 0 0 1 .17-.16h20.37" stroke="#000" stroke-width="2" fill="none"/><path d="M-20812.03-17622.7h-1.02v-1.94h1.02z" stroke="#000" stroke-width=".05"/><path d="M-20742-17624l-13 7.5v-15z" stroke="#000" stroke-width="2"/><path d="M-20436.08-17624h440.1" stroke="#000" stroke-width="2" fill="none"/><path d="M-20436.05-17623.02h-1.03v-1.95h1.03z" stroke="#000" stroke-width=".05"/><path d="M-19982-17624l-13 7.5v-15z" stroke="#000" stroke-width="2"/><path d="M-20916.3-17896.66h100.3" stroke="#000" stroke-width="2" fill="none"/><path d="M-20916.26-17895.7h-1.03v-1.94h1.04z" stroke="#000" stroke-width=".05"/><path d="M-20802-17896.66l-13 7.5v-15z" stroke="#000" stroke-width="2"/><path d="M-20457.03-17896.66h61.04" stroke="#000" stroke-width="2" fill="none"/><path d="M-20457-17895.7h-1.03v-1.94h1.02z" stroke="#000" stroke-width=".05"/><path d="M-20382-17896.66l-13 7.5v-15z" stroke="#000" stroke-width="2"/><path d="M-20078.44-17896.66h82.45" stroke="#000" stroke-width="2" fill="none"/><path d="M-20078.4-17895.7h-1.04v-1.94h1.03z" stroke="#000" stroke-width=".05"/><path d="M-19982-17896.66l-13 7.5v-15z" stroke="#000" stroke-width="2"/><path d="M-21339-17903.66h98.53" stroke="#000" stroke-width="2" fill="none"/><path d="M-21338.97-17902.7h-1.03v-1.94h1.03z" stroke="#000" stroke-width=".05"/><path d="M-21226.48-17903.66l-13 7.5v-15z" stroke="#000" stroke-width="2"/><path d="M-21799.27-17771.68l129.14-121.05" stroke="#000" stroke-width="2" fill="none"/><path d="M-21798.6-17771l-1.4 1.34v-2.67l.08-.08z" stroke="#000" stroke-width=".05"/><path d="M-21659.92-17902.3l-4.35 14.36-10.26-10.94z" stroke="#000" stroke-width="2"/><path d="M-21799.32-17770.26l123.38 134.48" stroke="#000" stroke-width="2" fill="none"/><path d="M-21798.6-17770.9l-1.4 1.3v-2.84z" stroke="#000" stroke-width=".05"/><path d="M-21666.5-17625.47l-14.3-4.5 11.06-10.14z" stroke="#000" stroke-width="2"/><defs><path d="M67-125c0 53 21 87 73 88 37 1 54-22 65-47l45 17C233-25 199 4 140 4 58 4 20-42 15-125 8-235 124-281 211-232c18 10 29 29 36 50l-46 12c-8-25-30-41-62-41-52 0-71 34-72 86" id="aR"/><path d="M199 0l-22-63H83L61 0H9l90-248h61L250 0h-51zm-33-102l-36-108c-10 38-24 72-36 108h72" id="aS"/><path d="M24 0v-248h52v208h133V0H24" id="aT"/><path d="M182-130c37 4 62 22 62 59C244 23 116-4 24 0v-248c84 5 203-23 205 63 0 31-19 50-47 55zM76-148c40-3 101 13 101-30 0-44-60-28-101-31v61zm0 110c48-3 116 14 116-37 0-48-69-32-116-35v72" id="aU"/><path d="M195 0l-88-114-31 24V0H24v-248h52v113l112-113h60L142-143 257 0h-62" id="aV"/><g id="a"><use transform="matrix(0.07407407407407408,0,0,0.07407407407407408,0,0)" xlink:href="#aR"/><use transform="matrix(0.07407407407407408,0,0,0.07407407407407408,19.185185185185187,0)" xlink:href="#aS"/><use transform="matrix(0.07407407407407408,0,0,0.07407407407407408,38.370370370370374,0)" xlink:href="#aT"/><use transform="matrix(0.07407407407407408,0,0,0.07407407407407408,54.59259259259259,0)" xlink:href="#aT"/><use transform="matrix(0.07407407407407408,0,0,0.07407407407407408,70.81481481481482,0)" xlink:href="#aU"/><use transform="matrix(0.07407407407407408,0,0,0.07407407407407408,90.00000000000001,0)" xlink:href="#aS"/><use transform="matrix(0.07407407407407408,0,0,0.07407407407407408,109.1851851851852,0)" xlink:href="#aR"/><use transform="matrix(0.07407407407407408,0,0,0.07407407407407408,128.37037037037038,0)" xlink:href="#aV"/></g><path d="M24-248c93 1 206-16 204 79-1 75-69 88-152 82V0H24v-248zm52 121c47 0 100 7 100-41 0-47-54-39-100-39v80" id="aW"/><path d="M186 0v-106H76V0H24v-248h52v99h110v-99h50V0h-50" id="aX"/><path d="M24 0v-248h52V0H24" id="aY"/><path d="M169-182c-1-43-94-46-97-3 18 66 151 10 154 114 3 95-165 93-204 36-6-8-10-19-12-30l50-8c3 46 112 56 116 5-17-69-150-10-154-114-4-87 153-88 188-35 5 8 8 18 10 28" id="aZ"/><path d="M175 0L67-191c6 58 2 128 3 191H24v-248h59L193-55c-6-58-2-129-3-193h46V0h-61" id="ba"/><path d="M67-125c0 54 23 88 75 88 28 0 53-7 68-21v-34h-60v-39h108v91C232-14 192 4 140 4 58 4 20-42 15-125 8-236 126-280 215-234c19 10 29 26 37 47l-47 15c-11-23-29-39-63-39-53 1-75 33-75 86" id="bb"/><g id="b"><use transform="matrix(0.07407407407407408,0,0,0.07407407407407408,0,0)" xlink:href="#aW"/><use transform="matrix(0.07407407407407408,0,0,0.07407407407407408,17.77777777777778,0)" xlink:href="#aX"/><use transform="matrix(0.07407407407407408,0,0,0.07407407407407408,36.96296296296296,0)" xlink:href="#aY"/><use transform="matrix(0.07407407407407408,0,0,0.07407407407407408,44.37037037037037,0)" xlink:href="#aZ"/><use transform="matrix(0.07407407407407408,0,0,0.07407407407407408,62.148148148148145,0)" xlink:href="#aX"/><use transform="matrix(0.07407407407407408,0,0,0.07407407407407408,81.33333333333333,0)" xlink:href="#aY"/><use transform="matrix(0.07407407407407408,0,0,0.07407407407407408,88.74074074074073,0)" xlink:href="#ba"/><use transform="matrix(0.07407407407407408,0,0,0.07407407407407408,107.92592592592592,0)" xlink:href="#bb"/></g><path d="M4 7l51-268h42L46 7H4" id="bc"/><use transform="matrix(0.07407407407407408,0,0,0.07407407407407408,0,0)" xlink:href="#bc" id="c"/><path d="M102-146c0-40-1-80 19-102h32c-11 15-21 32-23 56h23v46h-51zm-75 0c0-40-1-80 19-102h32c-10 15-24 30-23 56h22v46H27" id="bd"/><g id="d"><use transform="matrix(0.07407407407407408,0,0,0.07407407407407408,0,0)" xlink:href="#bd"/><use transform="matrix(0.07407407407407408,0,0,0.07407407407407408,13.333333333333336,0)" xlink:href="#aR"/><use transform="matrix(0.07407407407407408,0,0,0.07407407407407408,32.51851851851852,0)" xlink:href="#aS"/><use transform="matrix(0.07407407407407408,0,0,0.07407407407407408,51.70370370370371,0)" xlink:href="#aT"/><use transform="matrix(0.07407407407407408,0,0,0.07407407407407408,67.92592592592594,0)" xlink:href="#aT"/></g><path d="M136-208V0H84v-208H4v-40h212v40h-80" id="be"/><path d="M140-251c80 0 125 45 125 126S219 4 139 4C58 4 15-44 15-125s44-126 125-126zm-1 214c52 0 73-35 73-88 0-50-21-86-72-86-52 0-73 35-73 86s22 88 72 88" id="bf"/><g id="e"><use transform="matrix(0.07407407407407408,0,0,0.07407407407407408,0,0)" xlink:href="#be"/><use transform="matrix(0.07407407407407408,0,0,0.07407407407407408,15.703703703703706,0)" xlink:href="#bf"/></g><path d="M24 0v-248h195v40H76v63h132v40H76v65h150V0H24" id="bg"/><path d="M153-248c0 40 1 80-19 102h-32c12-14 22-35 23-56h-22v-46h50zm-75 0c1 41 0 80-19 102H27c11-15 21-32 23-56H27v-46h51" id="bh"/><g id="f"><use transform="matrix(0.07407407407407408,0,0,0.07407407407407408,0,0)" xlink:href="#aR"/><use transform="matrix(0.07407407407407408,0,0,0.07407407407407408,19.185185185185187,0)" xlink:href="#aS"/><use transform="matrix(0.07407407407407408,0,0,0.07407407407407408,38.370370370370374,0)" xlink:href="#ba"/><use transform="matrix(0.07407407407407408,0,0,0.07407407407407408,57.55555555555556,0)" xlink:href="#aR"/><use transform="matrix(0.07407407407407408,0,0,0.07407407407407408,76.74074074074075,0)" xlink:href="#bg"/><use transform="matrix(0.07407407407407408,0,0,0.07407407407407408,94.51851851851853,0)" xlink:href="#aT"/><use transform="matrix(0.07407407407407408,0,0,0.07407407407407408,110.74074074074076,0)" xlink:href="#bh"/></g><g id="g"><use transform="matrix(0.07407407407407408,0,0,0.07407407407407408,0,0)" xlink:href="#aS"/><use transform="matrix(0.07407407407407408,0,0,0.07407407407407408,17.185185185185187,0)" xlink:href="#be"/><use transform="matrix(0.07407407407407408,0,0,0.07407407407407408,33.40740740740741,0)" xlink:href="#be"/><use transform="matrix(0.07407407407407408,0,0,0.07407407407407408,47.62962962962963,0)" xlink:href="#aS"/><use transform="matrix(0.07407407407407408,0,0,0.07407407407407408,66.81481481481482,0)" xlink:href="#aR"/><use transform="matrix(0.07407407407407408,0,0,0.07407407407407408,86.00000000000001,0)" xlink:href="#aV"/></g><path d="M30 0v-248h33v221h125V0H30" id="bi"/><path d="M30 0v-248h187v28H63v79h144v27H63v87h162V0H30" id="bj"/><path d="M143 4C61 4 22-44 18-125c-5-107 100-154 193-111 17 8 29 25 37 43l-32 9c-13-25-37-40-76-40-61 0-88 39-88 99 0 61 29 100 91 101 35 0 62-11 79-27v-45h-74v-28h105v86C228-13 192 4 143 4" id="bk"/><path d="M205 0l-28-72H64L36 0H1l101-248h38L239 0h-34zm-38-99l-47-123c-12 45-31 82-46 123h93" id="bl"/><path d="M212-179c-10-28-35-45-73-45-59 0-87 40-87 99 0 60 29 101 89 101 43 0 62-24 78-52l27 14C228-24 195 4 139 4 59 4 22-46 18-125c-6-104 99-153 187-111 19 9 31 26 39 46" id="bm"/><path d="M137-103V0h-34v-103L8-248h37l75 118 75-118h37" id="bn"/><g id="h"><use transform="matrix(0.07407407407407408,0,0,0.07407407407407408,0,0)" xlink:href="#bi"/><use transform="matrix(0.07407407407407408,0,0,0.07407407407407408,14.814814814814817,0)" xlink:href="#bj"/><use transform="matrix(0.07407407407407408,0,0,0.07407407407407408,32.592592592592595,0)" xlink:href="#bk"/><use transform="matrix(0.07407407407407408,0,0,0.07407407407407408,53.33333333333334,0)" xlink:href="#bl"/><use transform="matrix(0.07407407407407408,0,0,0.07407407407407408,71.11111111111111,0)" xlink:href="#bm"/><use transform="matrix(0.07407407407407408,0,0,0.07407407407407408,90.2962962962963,0)" xlink:href="#bn"/></g><path d="M30-248c87 1 191-15 191 75 0 78-77 80-158 76V0H30v-248zm33 125c57 0 124 11 124-50 0-59-68-47-124-48v98" id="bo"/><path d="M233-177c-1 41-23 64-60 70L243 0h-38l-65-103H63V0H30v-248c88 3 205-21 203 71zM63-129c60-2 137 13 137-47 0-61-80-42-137-45v92" id="bp"/><path d="M140-251c81 0 123 46 123 126C263-46 219 4 140 4 59 4 17-45 17-125s42-126 123-126zm0 227c63 0 89-41 89-101s-29-99-89-99c-61 0-89 39-89 99S79-25 140-24" id="bq"/><path d="M127-220V0H93v-220H8v-28h204v28h-85" id="br"/><path d="M33 0v-248h34V0H33" id="bs"/><path d="M190 0L58-211 59 0H30v-248h39L202-35l-2-213h31V0h-41" id="bt"/><g id="i"><use transform="matrix(0.07407407407407408,0,0,0.07407407407407408,0,0)" xlink:href="#bo"/><use transform="matrix(0.07407407407407408,0,0,0.07407407407407408,17.77777777777778,0)" xlink:href="#bp"/><use transform="matrix(0.07407407407407408,0,0,0.07407407407407408,36.96296296296296,0)" xlink:href="#bq"/><use transform="matrix(0.07407407407407408,0,0,0.07407407407407408,57.70370370370371,0)" xlink:href="#br"/><use transform="matrix(0.07407407407407408,0,0,0.07407407407407408,73.92592592592594,0)" xlink:href="#bj"/><use transform="matrix(0.07407407407407408,0,0,0.07407407407407408,91.70370370370371,0)" xlink:href="#bm"/><use transform="matrix(0.07407407407407408,0,0,0.07407407407407408,110.88888888888891,0)" xlink:href="#br"/><use transform="matrix(0.07407407407407408,0,0,0.07407407407407408,127.11111111111114,0)" xlink:href="#bs"/><use transform="matrix(0.07407407407407408,0,0,0.07407407407407408,134.51851851851856,0)" xlink:href="#bq"/><use transform="matrix(0.07407407407407408,0,0,0.07407407407407408,155.25925925925927,0)" xlink:href="#bt"/></g><path d="M87 75C49 33 22-17 22-94c0-76 28-126 65-167h31c-38 41-64 92-64 168S80 34 118 75H87" id="bu"/><path d="M194 0L95-120 63-95V0H30v-248h33v124l119-124h40L117-140 236 0h-42" id="bv"/><g id="j"><use transform="matrix(0.07407407407407408,0,0,0.07407407407407408,0,0)" xlink:href="#bu"/><use transform="matrix(0.07407407407407408,0,0,0.07407407407407408,8.814814814814817,0)" xlink:href="#bl"/><use transform="matrix(0.07407407407407408,0,0,0.07407407407407408,24.592592592592595,0)" xlink:href="#br"/><use transform="matrix(0.07407407407407408,0,0,0.07407407407407408,40.81481481481482,0)" xlink:href="#br"/><use transform="matrix(0.07407407407407408,0,0,0.07407407407407408,55.03703703703705,0)" xlink:href="#bl"/><use transform="matrix(0.07407407407407408,0,0,0.07407407407407408,72.81481481481484,0)" xlink:href="#bm"/><use transform="matrix(0.07407407407407408,0,0,0.07407407407407408,92.00000000000003,0)" xlink:href="#bv"/></g><path d="M185-189c-5-48-123-54-124 2 14 75 158 14 163 119 3 78-121 87-175 55-17-10-28-26-33-46l33-7c5 56 141 63 141-1 0-78-155-14-162-118-5-82 145-84 179-34 5 7 8 16 11 25" id="bw"/><path d="M232-93c-1 65-40 97-104 97C67 4 28-28 28-90v-158h33c8 89-33 224 67 224 102 0 64-133 71-224h33v155" id="bx"/><path d="M30-248c118-7 216 8 213 122C240-48 200 0 122 0H30v-248zM63-27c89 8 146-16 146-99s-60-101-146-95v194" id="by"/><path d="M33-261c38 41 65 92 65 168S71 34 33 75H2C39 34 66-17 66-93S39-220 2-261h31" id="bz"/><g id="k"><use transform="matrix(0.07407407407407408,0,0,0.07407407407407408,0,0)" xlink:href="#bw"/><use transform="matrix(0.07407407407407408,0,0,0.07407407407407408,17.77777777777778,0)" xlink:href="#bx"/><use transform="matrix(0.07407407407407408,0,0,0.07407407407407408,36.96296296296296,0)" xlink:href="#bm"/><use transform="matrix(0.07407407407407408,0,0,0.07407407407407408,56.14814814814815,0)" xlink:href="#bm"/><use transform="matrix(0.07407407407407408,0,0,0.07407407407407408,75.33333333333334,0)" xlink:href="#bj"/><use transform="matrix(0.07407407407407408,0,0,0.07407407407407408,93.1111111111111,0)" xlink:href="#bj"/><use transform="matrix(0.07407407407407408,0,0,0.07407407407407408,110.88888888888889,0)" xlink:href="#by"/><use transform="matrix(0.07407407407407408,0,0,0.07407407407407408,130.07407407407408,0)" xlink:href="#bw"/><use transform="matrix(0.07407407407407408,0,0,0.07407407407407408,147.85185185185185,0)" xlink:href="#bz"/></g><path d="M240 0l2-218c-23 76-54 145-80 218h-23L58-218 59 0H30v-248h44l77 211c21-75 51-140 76-211h43V0h-30" id="bA"/><g id="l"><use transform="matrix(0.07407407407407408,0,0,0.07407407407407408,0,0)" xlink:href="#bA"/><use transform="matrix(0.07407407407407408,0,0,0.07407407407407408,22.148148148148152,0)" xlink:href="#bl"/><use transform="matrix(0.07407407407407408,0,0,0.07407407407407408,39.92592592592593,0)" xlink:href="#bt"/><use transform="matrix(0.07407407407407408,0,0,0.07407407407407408,59.11111111111111,0)" xlink:href="#bl"/><use transform="matrix(0.07407407407407408,0,0,0.07407407407407408,76.88888888888889,0)" xlink:href="#bk"/><use transform="matrix(0.07407407407407408,0,0,0.07407407407407408,97.62962962962962,0)" xlink:href="#bj"/><use transform="matrix(0.07407407407407408,0,0,0.07407407407407408,115.40740740740742,0)" xlink:href="#by"/></g><g id="m"><use transform="matrix(0.07407407407407408,0,0,0.07407407407407408,0,0)" xlink:href="#bj"/><use transform="matrix(0.07407407407407408,0,0,0.07407407407407408,17.77777777777778,0)" xlink:href="#bA"/><use transform="matrix(0.07407407407407408,0,0,0.07407407407407408,39.92592592592593,0)" xlink:href="#bl"/><use transform="matrix(0.07407407407407408,0,0,0.07407407407407408,57.70370370370371,0)" xlink:href="#bs"/><use transform="matrix(0.07407407407407408,0,0,0.07407407407407408,65.11111111111111,0)" xlink:href="#bi"/></g><path d="M137 0h-34L2-248h35l83 218 83-218h36" id="bB"/><g id="n"><use transform="matrix(0.07407407407407408,0,0,0.07407407407407408,0,0)" xlink:href="#bo"/><use transform="matrix(0.07407407407407408,0,0,0.07407407407407408,17.77777777777778,0)" xlink:href="#bp"/><use transform="matrix(0.07407407407407408,0,0,0.07407407407407408,36.96296296296296,0)" xlink:href="#bj"/><use transform="matrix(0.07407407407407408,0,0,0.07407407407407408,54.74074074074074,0)" xlink:href="#bB"/><use transform="matrix(0.07407407407407408,0,0,0.07407407407407408,72.51851851851852,0)" xlink:href="#bj"/><use transform="matrix(0.07407407407407408,0,0,0.07407407407407408,90.2962962962963,0)" xlink:href="#bt"/><use transform="matrix(0.07407407407407408,0,0,0.07407407407407408,109.4814814814815,0)" xlink:href="#br"/><use transform="matrix(0.07407407407407408,0,0,0.07407407407407408,125.70370370370372,0)" xlink:href="#bj"/><use transform="matrix(0.07407407407407408,0,0,0.07407407407407408,143.4814814814815,0)" xlink:href="#by"/><use transform="matrix(0.07407407407407408,0,0,0.07407407407407408,162.66666666666669,0)" xlink:href="#bz"/></g><path d="M59-47c-2 24 18 29 38 22v24C64 9 27 4 27-40v-127H5v-23h24l9-43h21v43h35v23H59v120" id="bC"/><path d="M141-36C126-15 110 5 73 4 37 3 15-17 15-53c-1-64 63-63 125-63 3-35-9-54-41-54-24 1-41 7-42 31l-33-3c5-37 33-52 76-52 45 0 72 20 72 64v82c-1 20 7 32 28 27v20c-31 9-61-2-59-35zM48-53c0 20 12 33 32 33 41-3 63-29 60-74-43 2-92-5-92 41" id="bD"/><path d="M96-169c-40 0-48 33-48 73s9 75 48 75c24 0 41-14 43-38l32 2c-6 37-31 61-74 61-59 0-76-41-82-99-10-93 101-131 147-64 4 7 5 14 7 22l-32 3c-4-21-16-35-41-35" id="bE"/><path d="M143 0L79-87 56-68V0H24v-261h32v163l83-92h37l-77 82L181 0h-38" id="bF"/><path d="M100-194c63 0 86 42 84 106H49c0 40 14 67 53 68 26 1 43-12 49-29l28 8c-11 28-37 45-77 45C44 4 14-33 15-96c1-61 26-98 85-98zm52 81c6-60-76-77-97-28-3 7-6 17-6 28h103" id="bG"/><path d="M114-163C36-179 61-72 57 0H25l-1-190h30c1 12-1 29 2 39 6-27 23-49 58-41v29" id="bH"/><g id="o"><use transform="matrix(0.07407407407407408,0,0,0.07407407407407408,0,0)" xlink:href="#bl"/><use transform="matrix(0.07407407407407408,0,0,0.07407407407407408,17.77777777777778,0)" xlink:href="#bC"/><use transform="matrix(0.07407407407407408,0,0,0.07407407407407408,25.185185185185187,0)" xlink:href="#bC"/><use transform="matrix(0.07407407407407408,0,0,0.07407407407407408,32.592592592592595,0)" xlink:href="#bD"/><use transform="matrix(0.07407407407407408,0,0,0.07407407407407408,47.40740740740741,0)" xlink:href="#bE"/><use transform="matrix(0.07407407407407408,0,0,0.07407407407407408,60.74074074074075,0)" xlink:href="#bF"/><use transform="matrix(0.07407407407407408,0,0,0.07407407407407408,74.07407407407408,0)" xlink:href="#bG"/><use transform="matrix(0.07407407407407408,0,0,0.07407407407407408,88.88888888888889,0)" xlink:href="#bH"/></g><path d="M135-143c-3-34-86-38-87 0 15 53 115 12 119 90S17 21 10-45l28-5c4 36 97 45 98 0-10-56-113-15-118-90-4-57 82-63 122-42 12 7 21 19 24 35" id="bI"/><path d="M117-194c89-4 53 116 60 194h-32v-121c0-31-8-49-39-48C34-167 62-67 57 0H25l-1-190h30c1 10-1 24 2 32 11-22 29-35 61-36" id="bJ"/><path d="M85-194c31 0 48 13 60 33l-1-100h32l1 261h-30c-2-10 0-23-3-31C134-8 116 4 85 4 32 4 16-35 15-94c0-66 23-100 70-100zm9 24c-40 0-46 34-46 75 0 40 6 74 45 74 42 0 51-32 51-76 0-42-9-74-50-73" id="bK"/><g id="p"><use transform="matrix(0.07407407407407408,0,0,0.07407407407407408,0,0)" xlink:href="#bI"/><use transform="matrix(0.07407407407407408,0,0,0.07407407407407408,13.333333333333336,0)" xlink:href="#bG"/><use transform="matrix(0.07407407407407408,0,0,0.07407407407407408,28.148148148148152,0)" xlink:href="#bJ"/><use transform="matrix(0.07407407407407408,0,0,0.07407407407407408,42.96296296296297,0)" xlink:href="#bK"/><use transform="matrix(0.07407407407407408,0,0,0.07407407407407408,57.777777777777786,0)" xlink:href="#bI"/></g><path d="M72-167c-1-32 0-62 13-81h22c-9 13-17 26-17 46h16v35H72zm-59 0c-1-32 1-62 14-81h22c-9 13-17 26-17 46h15v35H13" id="bL"/><path d="M24-231v-30h32v30H24zM24 0v-190h32V0H24" id="bM"/><path d="M108 0H70L1-190h34L89-25l56-165h34" id="bN"/><path d="M100-194c62-1 85 37 85 99 1 63-27 99-86 99S16-35 15-95c0-66 28-99 85-99zM99-20c44 1 53-31 53-75 0-43-8-75-51-75s-53 32-53 75 10 74 51 75" id="bO"/><path d="M107-248c1 32-1 62-14 81H72c8-13 16-27 16-46H73v-35h34zm-58 0c1 32-1 62-14 81H13c8-13 16-27 17-46H14v-35h35" id="bP"/><g id="q"><use transform="matrix(0.07407407407407408,0,0,0.07407407407407408,0,0)" xlink:href="#bL"/><use transform="matrix(0.07407407407407408,0,0,0.07407407407407408,8.814814814814817,0)" xlink:href="#bM"/><use transform="matrix(0.07407407407407408,0,0,0.07407407407407408,14.666666666666668,0)" xlink:href="#bJ"/><use transform="matrix(0.07407407407407408,0,0,0.07407407407407408,29.481481481481488,0)" xlink:href="#bN"/><use transform="matrix(0.07407407407407408,0,0,0.07407407407407408,42.814814814814824,0)" xlink:href="#bO"/><use transform="matrix(0.07407407407407408,0,0,0.07407407407407408,57.62962962962964,0)" xlink:href="#bM"/><use transform="matrix(0.07407407407407408,0,0,0.07407407407407408,63.481481481481495,0)" xlink:href="#bE"/><use transform="matrix(0.07407407407407408,0,0,0.07407407407407408,76.81481481481484,0)" xlink:href="#bG"/><use transform="matrix(0.07407407407407408,0,0,0.07407407407407408,91.62962962962965,0)" xlink:href="#bP"/></g><g id="r"><use transform="matrix(0.07407407407407408,0,0,0.07407407407407408,0,0)" xlink:href="#bO"/><use transform="matrix(0.07407407407407408,0,0,0.07407407407407408,14.814814814814817,0)" xlink:href="#bH"/></g><path d="M84 4C-5 8 30-112 23-190h32v120c0 31 7 50 39 49 72-2 45-101 50-169h31l1 190h-30c-1-10 1-25-2-33-11 22-28 36-60 37" id="bQ"/><path d="M115-194c53 0 69 39 70 98 0 66-23 100-70 100C84 3 66-7 56-30L54 0H23l1-261h32v101c10-23 28-34 59-34zm-8 174c40 0 45-34 45-75 0-40-5-75-45-74-42 0-51 32-51 76 0 43 10 73 51 73" id="bR"/><path d="M115-194c55 1 70 41 70 98S169 2 115 4C84 4 66-9 55-30l1 105H24l-1-265h31l2 30c10-21 28-34 59-34zm-8 174c40 0 45-34 45-75s-6-73-45-74c-42 0-51 32-51 76 0 43 10 73 51 73" id="bS"/><g id="s"><use transform="matrix(0.07407407407407408,0,0,0.07407407407407408,0,0)" xlink:href="#bL"/><use transform="matrix(0.07407407407407408,0,0,0.07407407407407408,8.814814814814817,0)" xlink:href="#bI"/><use transform="matrix(0.07407407407407408,0,0,0.07407407407407408,22.148148148148152,0)" xlink:href="#bQ"/><use transform="matrix(0.07407407407407408,0,0,0.07407407407407408,36.96296296296297,0)" xlink:href="#bR"/><use transform="matrix(0.07407407407407408,0,0,0.07407407407407408,51.777777777777786,0)" xlink:href="#bI"/><use transform="matrix(0.07407407407407408,0,0,0.07407407407407408,65.11111111111111,0)" xlink:href="#bE"/><use transform="matrix(0.07407407407407408,0,0,0.07407407407407408,78.44444444444446,0)" xlink:href="#bH"/><use transform="matrix(0.07407407407407408,0,0,0.07407407407407408,87.25925925925927,0)" xlink:href="#bM"/><use transform="matrix(0.07407407407407408,0,0,0.07407407407407408,93.1111111111111,0)" xlink:href="#bS"/><use transform="matrix(0.07407407407407408,0,0,0.07407407407407408,107.92592592592592,0)" xlink:href="#bC"/><use transform="matrix(0.07407407407407408,0,0,0.07407407407407408,115.33333333333333,0)" xlink:href="#bM"/><use transform="matrix(0.07407407407407408,0,0,0.07407407407407408,121.18518518518519,0)" xlink:href="#bO"/><use transform="matrix(0.07407407407407408,0,0,0.07407407407407408,136,0)" xlink:href="#bJ"/></g><path d="M206 0h-36l-40-164L89 0H53L-1-190h32L70-26l43-164h34l41 164 42-164h31" id="bT"/><path d="M24 0v-261h32V0H24" id="bU"/><g id="t"><use transform="matrix(0.07407407407407408,0,0,0.07407407407407408,0,0)" xlink:href="#bH"/><use transform="matrix(0.07407407407407408,0,0,0.07407407407407408,8.814814814814817,0)" xlink:href="#bG"/><use transform="matrix(0.07407407407407408,0,0,0.07407407407407408,23.629629629629633,0)" xlink:href="#bJ"/><use transform="matrix(0.07407407407407408,0,0,0.07407407407407408,38.44444444444445,0)" xlink:href="#bG"/><use transform="matrix(0.07407407407407408,0,0,0.07407407407407408,53.25925925925927,0)" xlink:href="#bT"/><use transform="matrix(0.07407407407407408,0,0,0.07407407407407408,72.44444444444446,0)" xlink:href="#bD"/><use transform="matrix(0.07407407407407408,0,0,0.07407407407407408,87.25925925925927,0)" xlink:href="#bU"/><use transform="matrix(0.07407407407407408,0,0,0.07407407407407408,93.1111111111111,0)" xlink:href="#bP"/></g><path d="M177-190C167-65 218 103 67 71c-23-6-38-20-44-43l32-5c15 47 100 32 89-28v-30C133-14 115 1 83 1 29 1 15-40 15-95c0-56 16-97 71-98 29-1 48 16 59 35 1-10 0-23 2-32h30zM94-22c36 0 50-32 50-73 0-42-14-75-50-75-39 0-46 34-46 75s6 73 46 73" id="bV"/><g id="u"><use transform="matrix(0.07407407407407408,0,0,0.07407407407407408,0,0)" xlink:href="#bQ"/><use transform="matrix(0.07407407407407408,0,0,0.07407407407407408,14.814814814814817,0)" xlink:href="#bH"/><use transform="matrix(0.07407407407407408,0,0,0.07407407407407408,23.629629629629633,0)" xlink:href="#bV"/><use transform="matrix(0.07407407407407408,0,0,0.07407407407407408,38.44444444444445,0)" xlink:href="#bM"/><use transform="matrix(0.07407407407407408,0,0,0.07407407407407408,44.296296296296305,0)" xlink:href="#bJ"/><use transform="matrix(0.07407407407407408,0,0,0.07407407407407408,59.11111111111112,0)" xlink:href="#bV"/></g><g id="v"><use transform="matrix(0.07407407407407408,0,0,0.07407407407407408,0,0)" xlink:href="#bQ"/><use transform="matrix(0.07407407407407408,0,0,0.07407407407407408,14.814814814814817,0)" xlink:href="#bI"/><use transform="matrix(0.07407407407407408,0,0,0.07407407407407408,28.148148148148152,0)" xlink:href="#bG"/><use transform="matrix(0.07407407407407408,0,0,0.07407407407407408,42.96296296296297,0)" xlink:href="#bH"/></g><g id="w"><use transform="matrix(0.07407407407407408,0,0,0.07407407407407408,0,0)" xlink:href="#bC"/><use transform="matrix(0.07407407407407408,0,0,0.07407407407407408,7.407407407407408,0)" xlink:href="#bO"/></g><g id="x"><use transform="matrix(0.07407407407407408,0,0,0.07407407407407408,0,0)" xlink:href="#bE"/><use transform="matrix(0.07407407407407408,0,0,0.07407407407407408,13.333333333333336,0)" xlink:href="#bD"/><use transform="matrix(0.07407407407407408,0,0,0.07407407407407408,28.148148148148152,0)" xlink:href="#bU"/><use transform="matrix(0.07407407407407408,0,0,0.07407407407407408,34.00000000000001,0)" xlink:href="#bU"/></g><use transform="matrix(0.07407407407407408,0,0,0.07407407407407408,0,0)" xlink:href="#bD" id="y"/><path d="M106-169C34-169 62-67 57 0H25v-261h32l-1 103c12-21 28-36 61-36 89 0 53 116 60 194h-32v-121c2-32-8-49-39-48" id="bW"/><g id="z"><use transform="matrix(0.07407407407407408,0,0,0.07407407407407408,0,0)" xlink:href="#bS"/><use transform="matrix(0.07407407407407408,0,0,0.07407407407407408,14.814814814814817,0)" xlink:href="#bW"/><use transform="matrix(0.07407407407407408,0,0,0.07407407407407408,29.629629629629633,0)" xlink:href="#bO"/><use transform="matrix(0.07407407407407408,0,0,0.07407407407407408,44.44444444444445,0)" xlink:href="#bJ"/><use transform="matrix(0.07407407407407408,0,0,0.07407407407407408,59.25925925925927,0)" xlink:href="#bG"/></g><path d="M210-169c-67 3-38 105-44 169h-31v-121c0-29-5-50-35-48C34-165 62-65 56 0H25l-1-190h30c1 10-1 24 2 32 10-44 99-50 107 0 11-21 27-35 58-36 85-2 47 119 55 194h-31v-121c0-29-5-49-35-48" id="bX"/><g id="A"><use transform="matrix(0.07407407407407408,0,0,0.07407407407407408,0,0)" xlink:href="#bJ"/><use transform="matrix(0.07407407407407408,0,0,0.07407407407407408,14.814814814814817,0)" xlink:href="#bQ"/><use transform="matrix(0.07407407407407408,0,0,0.07407407407407408,29.629629629629633,0)" xlink:href="#bX"/><use transform="matrix(0.07407407407407408,0,0,0.07407407407407408,51.777777777777786,0)" xlink:href="#bR"/><use transform="matrix(0.07407407407407408,0,0,0.07407407407407408,66.59259259259261,0)" xlink:href="#bG"/><use transform="matrix(0.07407407407407408,0,0,0.07407407407407408,81.40740740740742,0)" xlink:href="#bH"/></g><g id="B"><use transform="matrix(0.07407407407407408,0,0,0.07407407407407408,0,0)" xlink:href="#bj"/><use transform="matrix(0.07407407407407408,0,0,0.07407407407407408,17.77777777777778,0)" xlink:href="#bX"/><use transform="matrix(0.07407407407407408,0,0,0.07407407407407408,39.92592592592593,0)" xlink:href="#bD"/><use transform="matrix(0.07407407407407408,0,0,0.07407407407407408,54.74074074074075,0)" xlink:href="#bM"/><use transform="matrix(0.07407407407407408,0,0,0.07407407407407408,60.5925925925926,0)" xlink:href="#bU"/></g><g id="C"><use transform="matrix(0.07407407407407408,0,0,0.07407407407407408,0,0)" xlink:href="#bD"/><use transform="matrix(0.07407407407407408,0,0,0.07407407407407408,14.814814814814817,0)" xlink:href="#bS"/><use transform="matrix(0.07407407407407408,0,0,0.07407407407407408,29.629629629629633,0)" xlink:href="#bS"/><use transform="matrix(0.07407407407407408,0,0,0.07407407407407408,44.44444444444445,0)" xlink:href="#bG"/><use transform="matrix(0.07407407407407408,0,0,0.07407407407407408,59.25925925925927,0)" xlink:href="#bD"/><use transform="matrix(0.07407407407407408,0,0,0.07407407407407408,74.07407407407408,0)" xlink:href="#bH"/><use transform="matrix(0.07407407407407408,0,0,0.07407407407407408,82.88888888888889,0)" xlink:href="#bI"/></g><g id="D"><use transform="matrix(0.07407407407407408,0,0,0.07407407407407408,0,0)" xlink:href="#bU"/><use transform="matrix(0.07407407407407408,0,0,0.07407407407407408,5.851851851851853,0)" xlink:href="#bG"/><use transform="matrix(0.07407407407407408,0,0,0.07407407407407408,20.666666666666668,0)" xlink:href="#bV"/><use transform="matrix(0.07407407407407408,0,0,0.07407407407407408,35.48148148148149,0)" xlink:href="#bM"/><use transform="matrix(0.07407407407407408,0,0,0.07407407407407408,41.333333333333336,0)" xlink:href="#bC"/><use transform="matrix(0.07407407407407408,0,0,0.07407407407407408,48.74074074074075,0)" xlink:href="#bM"/><use transform="matrix(0.07407407407407408,0,0,0.07407407407407408,54.5925925925926,0)" xlink:href="#bX"/><use transform="matrix(0.07407407407407408,0,0,0.07407407407407408,76.74074074074076,0)" xlink:href="#bD"/><use transform="matrix(0.07407407407407408,0,0,0.07407407407407408,91.55555555555557,0)" xlink:href="#bC"/><use transform="matrix(0.07407407407407408,0,0,0.07407407407407408,98.96296296296298,0)" xlink:href="#bG"/></g><path d="M287-57c-19 10-34 24-48 39h-13c7-13 13-24 21-34H73v-15h174c-8-10-14-22-21-35h13c14 15 28 30 48 39v6" id="bY"/><use transform="matrix(0.07407407407407408,0,0,0.07407407407407408,0,0)" xlink:href="#bY" id="E"/><g id="F"><use transform="matrix(0.07407407407407408,0,0,0.07407407407407408,0,0)" xlink:href="#bS"/><use transform="matrix(0.07407407407407408,0,0,0.07407407407407408,14.814814814814817,0)" xlink:href="#bD"/><use transform="matrix(0.07407407407407408,0,0,0.07407407407407408,29.629629629629633,0)" xlink:href="#bI"/><use transform="matrix(0.07407407407407408,0,0,0.07407407407407408,42.96296296296297,0)" xlink:href="#bI"/><use transform="matrix(0.07407407407407408,0,0,0.07407407407407408,56.296296296296305,0)" xlink:href="#bG"/><use transform="matrix(0.07407407407407408,0,0,0.07407407407407408,71.11111111111111,0)" xlink:href="#bI"/></g><g id="G"><use transform="matrix(0.07407407407407408,0,0,0.07407407407407408,0,0)" xlink:href="#bR"/><use transform="matrix(0.07407407407407408,0,0,0.07407407407407408,14.814814814814817,0)" xlink:href="#bD"/><use transform="matrix(0.07407407407407408,0,0,0.07407407407407408,29.629629629629633,0)" xlink:href="#bI"/><use transform="matrix(0.07407407407407408,0,0,0.07407407407407408,42.96296296296297,0)" xlink:href="#bM"/><use transform="matrix(0.07407407407407408,0,0,0.07407407407407408,48.814814814814824,0)" xlink:href="#bE"/></g><path d="M101-234c-31-9-42 10-38 44h38v23H63V0H32v-167H5v-23h27c-7-52 17-82 69-68v24" id="bZ"/><g id="H"><use transform="matrix(0.07407407407407408,0,0,0.07407407407407408,0,0)" xlink:href="#bZ"/><use transform="matrix(0.07407407407407408,0,0,0.07407407407407408,7.407407407407408,0)" xlink:href="#bM"/><use transform="matrix(0.07407407407407408,0,0,0.07407407407407408,13.259259259259261,0)" xlink:href="#bU"/><use transform="matrix(0.07407407407407408,0,0,0.07407407407407408,19.111111111111114,0)" xlink:href="#bC"/><use transform="matrix(0.07407407407407408,0,0,0.07407407407407408,26.518518518518523,0)" xlink:href="#bG"/><use transform="matrix(0.07407407407407408,0,0,0.07407407407407408,41.333333333333336,0)" xlink:href="#bH"/><use transform="matrix(0.07407407407407408,0,0,0.07407407407407408,50.14814814814817,0)" xlink:href="#bI"/></g><g id="I"><use transform="matrix(0.07407407407407408,0,0,0.07407407407407408,0,0)" xlink:href="#bx"/><use transform="matrix(0.07407407407407408,0,0,0.07407407407407408,19.185185185185187,0)" xlink:href="#bI"/><use transform="matrix(0.07407407407407408,0,0,0.07407407407407408,32.51851851851852,0)" xlink:href="#bG"/><use transform="matrix(0.07407407407407408,0,0,0.07407407407407408,47.33333333333334,0)" xlink:href="#bH"/></g><g id="J"><use transform="matrix(0.07407407407407408,0,0,0.07407407407407408,0,0)" xlink:href="#bE"/><use transform="matrix(0.07407407407407408,0,0,0.07407407407407408,13.333333333333336,0)" xlink:href="#bD"/><use transform="matrix(0.07407407407407408,0,0,0.07407407407407408,28.148148148148152,0)" xlink:href="#bU"/><use transform="matrix(0.07407407407407408,0,0,0.07407407407407408,34.00000000000001,0)" xlink:href="#bU"/><use transform="matrix(0.07407407407407408,0,0,0.07407407407407408,39.85185185185187,0)" xlink:href="#bI"/></g><g id="K"><use transform="matrix(0.07407407407407408,0,0,0.07407407407407408,0,0)" xlink:href="#bC"/><use transform="matrix(0.07407407407407408,0,0,0.07407407407407408,7.407407407407408,0)" xlink:href="#bW"/><use transform="matrix(0.07407407407407408,0,0,0.07407407407407408,22.222222222222225,0)" xlink:href="#bG"/></g><g id="L"><use transform="matrix(0.07407407407407408,0,0,0.07407407407407408,0,0)" xlink:href="#bJ"/><use transform="matrix(0.07407407407407408,0,0,0.07407407407407408,14.814814814814817,0)" xlink:href="#bQ"/><use transform="matrix(0.07407407407407408,0,0,0.07407407407407408,29.629629629629633,0)" xlink:href="#bX"/><use transform="matrix(0.07407407407407408,0,0,0.07407407407407408,51.777777777777786,0)" xlink:href="#bR"/><use transform="matrix(0.07407407407407408,0,0,0.07407407407407408,66.59259259259261,0)" xlink:href="#bG"/><use transform="matrix(0.07407407407407408,0,0,0.07407407407407408,81.40740740740742,0)" xlink:href="#bH"/></g><g id="M"><use transform="matrix(0.07407407407407408,0,0,0.07407407407407408,0,0)" xlink:href="#bD"/><use transform="matrix(0.07407407407407408,0,0,0.07407407407407408,14.814814814814817,0)" xlink:href="#bI"/></g><g id="N"><use transform="matrix(0.07407407407407408,0,0,0.07407407407407408,0,0)" xlink:href="#bM"/><use transform="matrix(0.07407407407407408,0,0,0.07407407407407408,5.851851851851853,0)" xlink:href="#bJ"/><use transform="matrix(0.07407407407407408,0,0,0.07407407407407408,20.666666666666668,0)" xlink:href="#bI"/><use transform="matrix(0.07407407407407408,0,0,0.07407407407407408,34.00000000000001,0)" xlink:href="#bC"/><use transform="matrix(0.07407407407407408,0,0,0.07407407407407408,41.40740740740742,0)" xlink:href="#bH"/><use transform="matrix(0.07407407407407408,0,0,0.07407407407407408,50.222222222222236,0)" xlink:href="#bQ"/><use transform="matrix(0.07407407407407408,0,0,0.07407407407407408,65.03703703703705,0)" xlink:href="#bE"/><use transform="matrix(0.07407407407407408,0,0,0.07407407407407408,78.37037037037038,0)" xlink:href="#bC"/><use transform="matrix(0.07407407407407408,0,0,0.07407407407407408,85.77777777777779,0)" xlink:href="#bG"/><use transform="matrix(0.07407407407407408,0,0,0.07407407407407408,100.59259259259261,0)" xlink:href="#bK"/></g><g id="O"><use transform="matrix(0.07407407407407408,0,0,0.07407407407407408,0,0)" xlink:href="#bE"/><use transform="matrix(0.07407407407407408,0,0,0.07407407407407408,13.333333333333336,0)" xlink:href="#bO"/><use transform="matrix(0.07407407407407408,0,0,0.07407407407407408,28.148148148148152,0)" xlink:href="#bJ"/><use transform="matrix(0.07407407407407408,0,0,0.07407407407407408,42.96296296296297,0)" xlink:href="#bN"/><use transform="matrix(0.07407407407407408,0,0,0.07407407407407408,56.296296296296305,0)" xlink:href="#bM"/><use transform="matrix(0.07407407407407408,0,0,0.07407407407407408,62.14814814814816,0)" xlink:href="#bJ"/><use transform="matrix(0.07407407407407408,0,0,0.07407407407407408,76.96296296296298,0)" xlink:href="#bE"/><use transform="matrix(0.07407407407407408,0,0,0.07407407407407408,90.2962962962963,0)" xlink:href="#bG"/><use transform="matrix(0.07407407407407408,0,0,0.07407407407407408,105.11111111111111,0)" xlink:href="#bI"/></g><g id="P"><use transform="matrix(0.07407407407407408,0,0,0.07407407407407408,0,0)" xlink:href="#bC"/><use transform="matrix(0.07407407407407408,0,0,0.07407407407407408,7.407407407407408,0)" xlink:href="#bO"/></g><g id="Q"><use transform="matrix(0.07407407407407408,0,0,0.07407407407407408,0,0)" xlink:href="#bM"/><use transform="matrix(0.07407407407407408,0,0,0.07407407407407408,5.851851851851853,0)" xlink:href="#bJ"/><use transform="matrix(0.07407407407407408,0,0,0.07407407407407408,20.666666666666668,0)" xlink:href="#bI"/><use transform="matrix(0.07407407407407408,0,0,0.07407407407407408,34.00000000000001,0)" xlink:href="#bC"/><use transform="matrix(0.07407407407407408,0,0,0.07407407407407408,41.40740740740742,0)" xlink:href="#bD"/><use transform="matrix(0.07407407407407408,0,0,0.07407407407407408,56.222222222222236,0)" xlink:href="#bU"/><use transform="matrix(0.07407407407407408,0,0,0.07407407407407408,62.07407407407409,0)" xlink:href="#bU"/></g><g id="R"><use transform="matrix(0.07407407407407408,0,0,0.07407407407407408,0,0)" xlink:href="#bC"/><use transform="matrix(0.07407407407407408,0,0,0.07407407407407408,7.407407407407408,0)" xlink:href="#bO"/><use transform="matrix(0.07407407407407408,0,0,0.07407407407407408,22.222222222222225,0)" xlink:href="#bO"/><use transform="matrix(0.07407407407407408,0,0,0.07407407407407408,37.03703703703704,0)" xlink:href="#bU"/></g><path d="M0 4l72-265h28L28 4H0" id="ca"/><use transform="matrix(0.07407407407407408,0,0,0.07407407407407408,0,0)" xlink:href="#ca" id="S"/><g id="T"><use transform="matrix(0.07407407407407408,0,0,0.07407407407407408,0,0)" xlink:href="#bI"/><use transform="matrix(0.07407407407407408,0,0,0.07407407407407408,13.333333333333336,0)" xlink:href="#bW"/><use transform="matrix(0.07407407407407408,0,0,0.07407407407407408,28.148148148148152,0)" xlink:href="#bD"/><use transform="matrix(0.07407407407407408,0,0,0.07407407407407408,42.96296296296297,0)" xlink:href="#bH"/><use transform="matrix(0.07407407407407408,0,0,0.07407407407407408,51.777777777777786,0)" xlink:href="#bG"/></g><path d="M63-220v92h138v28H63V0H30v-248h175v28H63" id="cb"/><g id="U"><use transform="matrix(0.07407407407407408,0,0,0.07407407407407408,0,0)" xlink:href="#bA"/><use transform="matrix(0.07407407407407408,0,0,0.07407407407407408,22.148148148148152,0)" xlink:href="#cb"/><use transform="matrix(0.07407407407407408,0,0,0.07407407407407408,36.8888888888889,0)" xlink:href="#bl"/></g><g id="V"><use transform="matrix(0.07407407407407408,0,0,0.07407407407407408,0,0)" xlink:href="#bE"/><use transform="matrix(0.07407407407407408,0,0,0.07407407407407408,13.333333333333336,0)" xlink:href="#bO"/><use transform="matrix(0.07407407407407408,0,0,0.07407407407407408,28.148148148148152,0)" xlink:href="#bK"/><use transform="matrix(0.07407407407407408,0,0,0.07407407407407408,42.96296296296297,0)" xlink:href="#bG"/></g><g id="W"><use transform="matrix(0.07407407407407408,0,0,0.07407407407407408,0,0)" xlink:href="#bK"/><use transform="matrix(0.07407407407407408,0,0,0.07407407407407408,14.814814814814817,0)" xlink:href="#bM"/><use transform="matrix(0.07407407407407408,0,0,0.07407407407407408,20.666666666666668,0)" xlink:href="#bI"/><use transform="matrix(0.07407407407407408,0,0,0.07407407407407408,34.00000000000001,0)" xlink:href="#bE"/><use transform="matrix(0.07407407407407408,0,0,0.07407407407407408,47.33333333333334,0)" xlink:href="#bU"/><use transform="matrix(0.07407407407407408,0,0,0.07407407407407408,53.1851851851852,0)" xlink:href="#bO"/><use transform="matrix(0.07407407407407408,0,0,0.07407407407407408,68.00000000000001,0)" xlink:href="#bI"/><use transform="matrix(0.07407407407407408,0,0,0.07407407407407408,81.33333333333334,0)" xlink:href="#bG"/></g><g id="X"><use transform="matrix(0.07407407407407408,0,0,0.07407407407407408,0,0)" xlink:href="#bE"/><use transform="matrix(0.07407407407407408,0,0,0.07407407407407408,13.333333333333336,0)" xlink:href="#bH"/><use transform="matrix(0.07407407407407408,0,0,0.07407407407407408,22.148148148148152,0)" xlink:href="#bG"/><use transform="matrix(0.07407407407407408,0,0,0.07407407407407408,36.96296296296297,0)" xlink:href="#bK"/><use transform="matrix(0.07407407407407408,0,0,0.07407407407407408,51.777777777777786,0)" xlink:href="#bG"/><use transform="matrix(0.07407407407407408,0,0,0.07407407407407408,66.59259259259261,0)" xlink:href="#bJ"/><use transform="matrix(0.07407407407407408,0,0,0.07407407407407408,81.40740740740742,0)" xlink:href="#bC"/><use transform="matrix(0.07407407407407408,0,0,0.07407407407407408,88.81481481481482,0)" xlink:href="#bM"/><use transform="matrix(0.07407407407407408,0,0,0.07407407407407408,94.66666666666669,0)" xlink:href="#bD"/><use transform="matrix(0.07407407407407408,0,0,0.07407407407407408,109.4814814814815,0)" xlink:href="#bU"/><use transform="matrix(0.07407407407407408,0,0,0.07407407407407408,115.33333333333334,0)" xlink:href="#bI"/></g><path d="M9 0v-24l116-142H16v-24h144v24L44-24h123V0H9" id="cc"/><g id="Y"><use transform="matrix(0.07407407407407408,0,0,0.07407407407407408,0,0)" xlink:href="#bx"/><use transform="matrix(0.07407407407407408,0,0,0.07407407407407408,19.185185185185187,0)" xlink:href="#bJ"/><use transform="matrix(0.07407407407407408,0,0,0.07407407407407408,34,0)" xlink:href="#bD"/><use transform="matrix(0.07407407407407408,0,0,0.07407407407407408,48.81481481481481,0)" xlink:href="#bQ"/><use transform="matrix(0.07407407407407408,0,0,0.07407407407407408,63.629629629629626,0)" xlink:href="#bC"/><use transform="matrix(0.07407407407407408,0,0,0.07407407407407408,71.03703703703704,0)" xlink:href="#bW"/><use transform="matrix(0.07407407407407408,0,0,0.07407407407407408,85.85185185185185,0)" xlink:href="#bO"/><use transform="matrix(0.07407407407407408,0,0,0.07407407407407408,100.66666666666666,0)" xlink:href="#bH"/><use transform="matrix(0.07407407407407408,0,0,0.07407407407407408,109.48148148148147,0)" xlink:href="#bM"/><use transform="matrix(0.07407407407407408,0,0,0.07407407407407408,115.33333333333331,0)" xlink:href="#cc"/><use transform="matrix(0.07407407407407408,0,0,0.07407407407407408,128.66666666666666,0)" xlink:href="#bG"/><use transform="matrix(0.07407407407407408,0,0,0.07407407407407408,143.48148148148147,0)" xlink:href="#bK"/></g><g id="Z"><use transform="matrix(0.07407407407407408,0,0,0.07407407407407408,0,0)" xlink:href="#bD"/><use transform="matrix(0.07407407407407408,0,0,0.07407407407407408,14.814814814814817,0)" xlink:href="#bE"/><use transform="matrix(0.07407407407407408,0,0,0.07407407407407408,28.148148148148152,0)" xlink:href="#bE"/><use transform="matrix(0.07407407407407408,0,0,0.07407407407407408,41.48148148148149,0)" xlink:href="#bG"/><use transform="matrix(0.07407407407407408,0,0,0.07407407407407408,56.296296296296305,0)" xlink:href="#bI"/><use transform="matrix(0.07407407407407408,0,0,0.07407407407407408,69.62962962962965,0)" xlink:href="#bI"/></g><g id="aa"><use transform="matrix(0.07407407407407408,0,0,0.07407407407407408,0,0)" xlink:href="#bO"/><use transform="matrix(0.07407407407407408,0,0,0.07407407407407408,14.814814814814817,0)" xlink:href="#bH"/></g><g id="ab"><use transform="matrix(0.07407407407407408,0,0,0.07407407407407408,0,0)" xlink:href="#bH"/><use transform="matrix(0.07407407407407408,0,0,0.07407407407407408,8.814814814814817,0)" xlink:href="#bG"/><use transform="matrix(0.07407407407407408,0,0,0.07407407407407408,23.629629629629633,0)" xlink:href="#bX"/><use transform="matrix(0.07407407407407408,0,0,0.07407407407407408,45.777777777777786,0)" xlink:href="#bO"/><use transform="matrix(0.07407407407407408,0,0,0.07407407407407408,60.5925925925926,0)" xlink:href="#bC"/><use transform="matrix(0.07407407407407408,0,0,0.07407407407407408,68.00000000000001,0)" xlink:href="#bG"/></g><g id="ac"><use transform="matrix(0.07407407407407408,0,0,0.07407407407407408,0,0)" xlink:href="#bE"/><use transform="matrix(0.07407407407407408,0,0,0.07407407407407408,13.333333333333336,0)" xlink:href="#bO"/><use transform="matrix(0.07407407407407408,0,0,0.07407407407407408,28.148148148148152,0)" xlink:href="#bJ"/><use transform="matrix(0.07407407407407408,0,0,0.07407407407407408,42.96296296296297,0)" xlink:href="#bC"/><use transform="matrix(0.07407407407407408,0,0,0.07407407407407408,50.370370370370374,0)" xlink:href="#bH"/><use transform="matrix(0.07407407407407408,0,0,0.07407407407407408,59.185185185185205,0)" xlink:href="#bO"/><use transform="matrix(0.07407407407407408,0,0,0.07407407407407408,74.00000000000001,0)" xlink:href="#bU"/></g><g id="ad"><use transform="matrix(0.07407407407407408,0,0,0.07407407407407408,0,0)" xlink:href="#bI"/><use transform="matrix(0.07407407407407408,0,0,0.07407407407407408,13.333333333333336,0)" xlink:href="#bG"/><use transform="matrix(0.07407407407407408,0,0,0.07407407407407408,28.148148148148152,0)" xlink:href="#bI"/><use transform="matrix(0.07407407407407408,0,0,0.07407407407407408,41.48148148148149,0)" xlink:href="#bI"/><use transform="matrix(0.07407407407407408,0,0,0.07407407407407408,54.814814814814824,0)" xlink:href="#bM"/><use transform="matrix(0.07407407407407408,0,0,0.07407407407407408,60.66666666666667,0)" xlink:href="#bO"/><use transform="matrix(0.07407407407407408,0,0,0.07407407407407408,75.4814814814815,0)" xlink:href="#bJ"/></g><g id="ae"><use transform="matrix(0.07407407407407408,0,0,0.07407407407407408,0,0)" xlink:href="#bE"/><use transform="matrix(0.07407407407407408,0,0,0.07407407407407408,13.333333333333336,0)" xlink:href="#bH"/><use transform="matrix(0.07407407407407408,0,0,0.07407407407407408,22.148148148148152,0)" xlink:href="#bG"/><use transform="matrix(0.07407407407407408,0,0,0.07407407407407408,36.96296296296297,0)" xlink:href="#bD"/><use transform="matrix(0.07407407407407408,0,0,0.07407407407407408,51.777777777777786,0)" xlink:href="#bC"/><use transform="matrix(0.07407407407407408,0,0,0.07407407407407408,59.18518518518519,0)" xlink:href="#bG"/><use transform="matrix(0.07407407407407408,0,0,0.07407407407407408,74,0)" xlink:href="#bK"/></g><g id="af"><use transform="matrix(0.07407407407407408,0,0,0.07407407407407408,0,0)" xlink:href="#bw"/><use transform="matrix(0.07407407407407408,0,0,0.07407407407407408,17.77777777777778,0)" xlink:href="#bq"/><use transform="matrix(0.07407407407407408,0,0,0.07407407407407408,38.51851851851851,0)" xlink:href="#bm"/></g><g id="ag"><use transform="matrix(0.07407407407407408,0,0,0.07407407407407408,0,0)" xlink:href="#bD"/><use transform="matrix(0.07407407407407408,0,0,0.07407407407407408,14.814814814814817,0)" xlink:href="#bU"/><use transform="matrix(0.07407407407407408,0,0,0.07407407407407408,20.666666666666668,0)" xlink:href="#bG"/><use transform="matrix(0.07407407407407408,0,0,0.07407407407407408,35.48148148148149,0)" xlink:href="#bH"/><use transform="matrix(0.07407407407407408,0,0,0.07407407407407408,44.296296296296305,0)" xlink:href="#bC"/><use transform="matrix(0.07407407407407408,0,0,0.07407407407407408,51.70370370370371,0)" xlink:href="#bG"/><use transform="matrix(0.07407407407407408,0,0,0.07407407407407408,66.51851851851853,0)" xlink:href="#bK"/></g><path d="M179-190L93 31C79 59 56 82 12 73V49c39 6 53-20 64-50L1-190h34L92-34l54-156h33" id="cd"/><g id="ah"><use transform="matrix(0.07407407407407408,0,0,0.07407407407407408,0,0)" xlink:href="#bO"/><use transform="matrix(0.07407407407407408,0,0,0.07407407407407408,14.814814814814817,0)" xlink:href="#bJ"/><use transform="matrix(0.07407407407407408,0,0,0.07407407407407408,29.629629629629633,0)" xlink:href="#bU"/><use transform="matrix(0.07407407407407408,0,0,0.07407407407407408,35.48148148148149,0)" xlink:href="#cd"/></g><g id="ai"><use transform="matrix(0.07407407407407408,0,0,0.07407407407407408,0,0)" xlink:href="#bD"/><use transform="matrix(0.07407407407407408,0,0,0.07407407407407408,14.814814814814817,0)" xlink:href="#bZ"/><use transform="matrix(0.07407407407407408,0,0,0.07407407407407408,22.222222222222225,0)" xlink:href="#bC"/><use transform="matrix(0.07407407407407408,0,0,0.07407407407407408,29.629629629629633,0)" xlink:href="#bG"/><use transform="matrix(0.07407407407407408,0,0,0.07407407407407408,44.44444444444445,0)" xlink:href="#bH"/></g><g id="aj"><use transform="matrix(0.07407407407407408,0,0,0.07407407407407408,0,0)" xlink:href="#bI"/><use transform="matrix(0.07407407407407408,0,0,0.07407407407407408,13.333333333333336,0)" xlink:href="#bQ"/><use transform="matrix(0.07407407407407408,0,0,0.07407407407407408,28.148148148148152,0)" xlink:href="#bI"/><use transform="matrix(0.07407407407407408,0,0,0.07407407407407408,41.48148148148149,0)" xlink:href="#bS"/><use transform="matrix(0.07407407407407408,0,0,0.07407407407407408,56.296296296296305,0)" xlink:href="#bM"/><use transform="matrix(0.07407407407407408,0,0,0.07407407407407408,62.14814814814816,0)" xlink:href="#bE"/><use transform="matrix(0.07407407407407408,0,0,0.07407407407407408,75.4814814814815,0)" xlink:href="#bM"/><use transform="matrix(0.07407407407407408,0,0,0.07407407407407408,81.33333333333334,0)" xlink:href="#bO"/><use transform="matrix(0.07407407407407408,0,0,0.07407407407407408,96.14814814814814,0)" xlink:href="#bQ"/><use transform="matrix(0.07407407407407408,0,0,0.07407407407407408,110.96296296296296,0)" xlink:href="#bI"/></g><g id="ak"><use transform="matrix(0.07407407407407408,0,0,0.07407407407407408,0,0)" xlink:href="#bU"/><use transform="matrix(0.07407407407407408,0,0,0.07407407407407408,5.851851851851853,0)" xlink:href="#bO"/><use transform="matrix(0.07407407407407408,0,0,0.07407407407407408,20.666666666666668,0)" xlink:href="#bV"/><use transform="matrix(0.07407407407407408,0,0,0.07407407407407408,35.48148148148149,0)" xlink:href="#bM"/><use transform="matrix(0.07407407407407408,0,0,0.07407407407407408,41.333333333333336,0)" xlink:href="#bJ"/></g><g id="al"><use transform="matrix(0.07407407407407408,0,0,0.07407407407407408,0,0)" xlink:href="#bK"/><use transform="matrix(0.07407407407407408,0,0,0.07407407407407408,14.814814814814817,0)" xlink:href="#bG"/><use transform="matrix(0.07407407407407408,0,0,0.07407407407407408,29.629629629629633,0)" xlink:href="#bN"/><use transform="matrix(0.07407407407407408,0,0,0.07407407407407408,42.96296296296297,0)" xlink:href="#bM"/><use transform="matrix(0.07407407407407408,0,0,0.07407407407407408,48.814814814814824,0)" xlink:href="#bE"/><use transform="matrix(0.07407407407407408,0,0,0.07407407407407408,62.14814814814816,0)" xlink:href="#bG"/></g><g id="am"><use transform="matrix(0.07407407407407408,0,0,0.07407407407407408,0,0)" xlink:href="#bD"/><use transform="matrix(0.07407407407407408,0,0,0.07407407407407408,14.814814814814817,0)" xlink:href="#bE"/><use transform="matrix(0.07407407407407408,0,0,0.07407407407407408,28.148148148148152,0)" xlink:href="#bC"/><use transform="matrix(0.07407407407407408,0,0,0.07407407407407408,35.55555555555556,0)" xlink:href="#bM"/><use transform="matrix(0.07407407407407408,0,0,0.07407407407407408,41.40740740740741,0)" xlink:href="#bN"/><use transform="matrix(0.07407407407407408,0,0,0.07407407407407408,54.74074074074075,0)" xlink:href="#bM"/><use transform="matrix(0.07407407407407408,0,0,0.07407407407407408,60.5925925925926,0)" xlink:href="#bC"/><use transform="matrix(0.07407407407407408,0,0,0.07407407407407408,68.00000000000001,0)" xlink:href="#cd"/></g><path d="M160-131c35 5 61 23 61 61C221 17 115-2 30 0v-248c76 3 177-17 177 60 0 33-19 50-47 57zm-97-11c50-1 110 9 110-42 0-47-63-36-110-37v79zm0 115c55-2 124 14 124-45 0-56-70-42-124-44v89" id="ce"/><g id="an"><use transform="matrix(0.07407407407407408,0,0,0.07407407407407408,0,0)" xlink:href="#ce"/><use transform="matrix(0.07407407407407408,0,0,0.07407407407407408,17.77777777777778,0)" xlink:href="#bG"/><use transform="matrix(0.07407407407407408,0,0,0.07407407407407408,32.592592592592595,0)" xlink:href="#bW"/><use transform="matrix(0.07407407407407408,0,0,0.07407407407407408,47.40740740740741,0)" xlink:href="#bD"/><use transform="matrix(0.07407407407407408,0,0,0.07407407407407408,62.22222222222223,0)" xlink:href="#bN"/><use transform="matrix(0.07407407407407408,0,0,0.07407407407407408,75.55555555555557,0)" xlink:href="#bM"/><use transform="matrix(0.07407407407407408,0,0,0.07407407407407408,81.40740740740742,0)" xlink:href="#bO"/><use transform="matrix(0.07407407407407408,0,0,0.07407407407407408,96.22222222222223,0)" xlink:href="#bH"/><use transform="matrix(0.07407407407407408,0,0,0.07407407407407408,105.03703703703704,0)" xlink:href="#bD"/><use transform="matrix(0.07407407407407408,0,0,0.07407407407407408,119.85185185185185,0)" xlink:href="#bU"/></g><path d="M234-2c-28 10-62 0-77-18C117 19 8 12 13-65c3-43 29-61 60-76-25-40-17-114 47-108 35 3 59 15 59 50 0 44-40 53-71 69 14 26 32 50 51 72 14-21 24-43 30-72l26 8c-9 33-21 57-38 82 13 13 33 22 57 15v23zM97-151c25-10 52-18 56-48-1-18-13-29-33-29-42 0-39 50-23 77zM42-66c-3 51 71 58 98 28-20-24-41-51-56-80-23 10-40 24-42 52" id="cf"/><use transform="matrix(0.07407407407407408,0,0,0.07407407407407408,0,0)" xlink:href="#cf" id="ao"/><g id="ap"><use transform="matrix(0.07407407407407408,0,0,0.07407407407407408,0,0)" xlink:href="#bE"/><use transform="matrix(0.07407407407407408,0,0,0.07407407407407408,13.333333333333336,0)" xlink:href="#bO"/><use transform="matrix(0.07407407407407408,0,0,0.07407407407407408,28.148148148148152,0)" xlink:href="#bJ"/><use transform="matrix(0.07407407407407408,0,0,0.07407407407407408,42.96296296296297,0)" xlink:href="#bC"/><use transform="matrix(0.07407407407407408,0,0,0.07407407407407408,50.370370370370374,0)" xlink:href="#bG"/><use transform="matrix(0.07407407407407408,0,0,0.07407407407407408,65.18518518518519,0)" xlink:href="#bJ"/><use transform="matrix(0.07407407407407408,0,0,0.07407407407407408,80,0)" xlink:href="#bC"/></g><g id="aq"><use transform="matrix(0.07407407407407408,0,0,0.07407407407407408,0,0)" xlink:href="#bG"/><use transform="matrix(0.07407407407407408,0,0,0.07407407407407408,14.814814814814817,0)" xlink:href="#bJ"/><use transform="matrix(0.07407407407407408,0,0,0.07407407407407408,29.629629629629633,0)" xlink:href="#bV"/><use transform="matrix(0.07407407407407408,0,0,0.07407407407407408,44.44444444444445,0)" xlink:href="#bM"/><use transform="matrix(0.07407407407407408,0,0,0.07407407407407408,50.296296296296305,0)" xlink:href="#bJ"/><use transform="matrix(0.07407407407407408,0,0,0.07407407407407408,65.11111111111111,0)" xlink:href="#bG"/></g><g id="ar"><use transform="matrix(0.07407407407407408,0,0,0.07407407407407408,0,0)" xlink:href="#bK"/><use transform="matrix(0.07407407407407408,0,0,0.07407407407407408,14.814814814814817,0)" xlink:href="#bG"/><use transform="matrix(0.07407407407407408,0,0,0.07407407407407408,29.629629629629633,0)" xlink:href="#bC"/><use transform="matrix(0.07407407407407408,0,0,0.07407407407407408,37.03703703703704,0)" xlink:href="#bG"/><use transform="matrix(0.07407407407407408,0,0,0.07407407407407408,51.85185185185186,0)" xlink:href="#bE"/><use transform="matrix(0.07407407407407408,0,0,0.07407407407407408,65.18518518518519,0)" xlink:href="#bC"/><use transform="matrix(0.07407407407407408,0,0,0.07407407407407408,72.5925925925926,0)" xlink:href="#bI"/></g><g id="as"><use transform="matrix(0.07407407407407408,0,0,0.07407407407407408,0,0)" xlink:href="#bC"/><use transform="matrix(0.07407407407407408,0,0,0.07407407407407408,7.407407407407408,0)" xlink:href="#cd"/><use transform="matrix(0.07407407407407408,0,0,0.07407407407407408,20.740740740740744,0)" xlink:href="#bS"/><use transform="matrix(0.07407407407407408,0,0,0.07407407407407408,35.55555555555556,0)" xlink:href="#bM"/><use transform="matrix(0.07407407407407408,0,0,0.07407407407407408,41.40740740740741,0)" xlink:href="#bE"/><use transform="matrix(0.07407407407407408,0,0,0.07407407407407408,54.74074074074075,0)" xlink:href="#bD"/><use transform="matrix(0.07407407407407408,0,0,0.07407407407407408,69.55555555555557,0)" xlink:href="#bU"/></g><g id="at"><use transform="matrix(0.07407407407407408,0,0,0.07407407407407408,0,0)" xlink:href="#bE"/><use transform="matrix(0.07407407407407408,0,0,0.07407407407407408,13.333333333333336,0)" xlink:href="#bD"/><use transform="matrix(0.07407407407407408,0,0,0.07407407407407408,28.148148148148152,0)" xlink:href="#bU"/><use transform="matrix(0.07407407407407408,0,0,0.07407407407407408,34.00000000000001,0)" xlink:href="#bU"/><use transform="matrix(0.07407407407407408,0,0,0.07407407407407408,39.85185185185187,0)" xlink:href="#bR"/><use transform="matrix(0.07407407407407408,0,0,0.07407407407407408,54.666666666666686,0)" xlink:href="#bD"/><use transform="matrix(0.07407407407407408,0,0,0.07407407407407408,69.4814814814815,0)" xlink:href="#bE"/><use transform="matrix(0.07407407407407408,0,0,0.07407407407407408,82.81481481481484,0)" xlink:href="#bF"/></g><g id="au"><use transform="matrix(0.07407407407407408,0,0,0.07407407407407408,0,0)" xlink:href="#bS"/><use transform="matrix(0.07407407407407408,0,0,0.07407407407407408,14.814814814814817,0)" xlink:href="#bW"/><use transform="matrix(0.07407407407407408,0,0,0.07407407407407408,29.629629629629633,0)" xlink:href="#bM"/><use transform="matrix(0.07407407407407408,0,0,0.07407407407407408,35.48148148148149,0)" xlink:href="#bI"/><use transform="matrix(0.07407407407407408,0,0,0.07407407407407408,48.814814814814824,0)" xlink:href="#bW"/><use transform="matrix(0.07407407407407408,0,0,0.07407407407407408,63.62962962962964,0)" xlink:href="#bM"/><use transform="matrix(0.07407407407407408,0,0,0.07407407407407408,69.4814814814815,0)" xlink:href="#bJ"/><use transform="matrix(0.07407407407407408,0,0,0.07407407407407408,84.2962962962963,0)" xlink:href="#bV"/></g><g id="av"><use transform="matrix(0.07407407407407408,0,0,0.07407407407407408,0,0)" xlink:href="#bS"/><use transform="matrix(0.07407407407407408,0,0,0.07407407407407408,14.814814814814817,0)" xlink:href="#bD"/><use transform="matrix(0.07407407407407408,0,0,0.07407407407407408,29.629629629629633,0)" xlink:href="#bC"/><use transform="matrix(0.07407407407407408,0,0,0.07407407407407408,37.03703703703704,0)" xlink:href="#bC"/><use transform="matrix(0.07407407407407408,0,0,0.07407407407407408,44.44444444444444,0)" xlink:href="#bG"/><use transform="matrix(0.07407407407407408,0,0,0.07407407407407408,59.25925925925926,0)" xlink:href="#bH"/><use transform="matrix(0.07407407407407408,0,0,0.07407407407407408,68.07407407407408,0)" xlink:href="#bJ"/><use transform="matrix(0.07407407407407408,0,0,0.07407407407407408,82.88888888888889,0)" xlink:href="#bI"/></g><g id="aw"><use transform="matrix(0.07407407407407408,0,0,0.07407407407407408,0,0)" xlink:href="#bu"/><use transform="matrix(0.07407407407407408,0,0,0.07407407407407408,8.814814814814817,0)" xlink:href="#bQ"/><use transform="matrix(0.07407407407407408,0,0,0.07407407407407408,23.629629629629633,0)" xlink:href="#bH"/><use transform="matrix(0.07407407407407408,0,0,0.07407407407407408,32.44444444444445,0)" xlink:href="#bV"/><use transform="matrix(0.07407407407407408,0,0,0.07407407407407408,47.25925925925927,0)" xlink:href="#bG"/><use transform="matrix(0.07407407407407408,0,0,0.07407407407407408,62.07407407407408,0)" xlink:href="#bJ"/><use transform="matrix(0.07407407407407408,0,0,0.07407407407407408,76.8888888888889,0)" xlink:href="#bE"/><use transform="matrix(0.07407407407407408,0,0,0.07407407407407408,90.22222222222223,0)" xlink:href="#cd"/></g><path d="M118-107v75H92v-75H18v-26h74v-75h26v75h74v26h-74" id="cg"/><use transform="matrix(0.07407407407407408,0,0,0.07407407407407408,0,0)" xlink:href="#cg" id="ax"/><g id="ay"><use transform="matrix(0.07407407407407408,0,0,0.07407407407407408,0,0)" xlink:href="#bS"/><use transform="matrix(0.07407407407407408,0,0,0.07407407407407408,14.814814814814817,0)" xlink:href="#bW"/><use transform="matrix(0.07407407407407408,0,0,0.07407407407407408,29.629629629629633,0)" xlink:href="#bO"/><use transform="matrix(0.07407407407407408,0,0,0.07407407407407408,44.44444444444445,0)" xlink:href="#bJ"/><use transform="matrix(0.07407407407407408,0,0,0.07407407407407408,59.25925925925927,0)" xlink:href="#bG"/></g><g id="az"><use transform="matrix(0.07407407407407408,0,0,0.07407407407407408,0,0)" xlink:href="#bM"/><use transform="matrix(0.07407407407407408,0,0,0.07407407407407408,5.851851851851853,0)" xlink:href="#bJ"/><use transform="matrix(0.07407407407407408,0,0,0.07407407407407408,20.666666666666668,0)" xlink:href="#bN"/><use transform="matrix(0.07407407407407408,0,0,0.07407407407407408,34.00000000000001,0)" xlink:href="#bO"/><use transform="matrix(0.07407407407407408,0,0,0.07407407407407408,48.814814814814824,0)" xlink:href="#bM"/><use transform="matrix(0.07407407407407408,0,0,0.07407407407407408,54.666666666666686,0)" xlink:href="#bE"/><use transform="matrix(0.07407407407407408,0,0,0.07407407407407408,68.00000000000001,0)" xlink:href="#bG"/></g><g id="aA"><use transform="matrix(0.07407407407407408,0,0,0.07407407407407408,0,0)" xlink:href="#bX"/><use transform="matrix(0.07407407407407408,0,0,0.07407407407407408,22.148148148148152,0)" xlink:href="#bM"/><use transform="matrix(0.07407407407407408,0,0,0.07407407407407408,28.000000000000007,0)" xlink:href="#bI"/><use transform="matrix(0.07407407407407408,0,0,0.07407407407407408,41.333333333333336,0)" xlink:href="#bX"/><use transform="matrix(0.07407407407407408,0,0,0.07407407407407408,63.481481481481495,0)" xlink:href="#bD"/><use transform="matrix(0.07407407407407408,0,0,0.07407407407407408,78.2962962962963,0)" xlink:href="#bC"/><use transform="matrix(0.07407407407407408,0,0,0.07407407407407408,85.70370370370371,0)" xlink:href="#bE"/><use transform="matrix(0.07407407407407408,0,0,0.07407407407407408,99.03703703703704,0)" xlink:href="#bW"/><use transform="matrix(0.07407407407407408,0,0,0.07407407407407408,113.85185185185185,0)" xlink:href="#bz"/></g><g id="aB"><use transform="matrix(0.07407407407407408,0,0,0.07407407407407408,0,0)" xlink:href="#bw"/><use transform="matrix(0.07407407407407408,0,0,0.07407407407407408,17.77777777777778,0)" xlink:href="#bQ"/><use transform="matrix(0.07407407407407408,0,0,0.07407407407407408,32.592592592592595,0)" xlink:href="#bI"/><use transform="matrix(0.07407407407407408,0,0,0.07407407407407408,45.92592592592593,0)" xlink:href="#bS"/><use transform="matrix(0.07407407407407408,0,0,0.07407407407407408,60.74074074074075,0)" xlink:href="#bM"/><use transform="matrix(0.07407407407407408,0,0,0.07407407407407408,66.5925925925926,0)" xlink:href="#bE"/><use transform="matrix(0.07407407407407408,0,0,0.07407407407407408,79.92592592592592,0)" xlink:href="#bM"/><use transform="matrix(0.07407407407407408,0,0,0.07407407407407408,85.77777777777777,0)" xlink:href="#bO"/><use transform="matrix(0.07407407407407408,0,0,0.07407407407407408,100.5925925925926,0)" xlink:href="#bQ"/><use transform="matrix(0.07407407407407408,0,0,0.07407407407407408,115.40740740740739,0)" xlink:href="#bI"/></g><path d="M16-82v-28h88v28H16" id="ch"/><g id="aC"><use transform="matrix(0.07407407407407408,0,0,0.07407407407407408,0,0)" xlink:href="#bS"/><use transform="matrix(0.07407407407407408,0,0,0.07407407407407408,14.814814814814817,0)" xlink:href="#bW"/><use transform="matrix(0.07407407407407408,0,0,0.07407407407407408,29.629629629629633,0)" xlink:href="#bO"/><use transform="matrix(0.07407407407407408,0,0,0.07407407407407408,44.44444444444445,0)" xlink:href="#bJ"/><use transform="matrix(0.07407407407407408,0,0,0.07407407407407408,59.25925925925927,0)" xlink:href="#bG"/><use transform="matrix(0.07407407407407408,0,0,0.07407407407407408,74.07407407407408,0)" xlink:href="#ch"/><use transform="matrix(0.07407407407407408,0,0,0.07407407407407408,82.88888888888889,0)" xlink:href="#bJ"/><use transform="matrix(0.07407407407407408,0,0,0.07407407407407408,97.7037037037037,0)" xlink:href="#bQ"/><use transform="matrix(0.07407407407407408,0,0,0.07407407407407408,112.5185185185185,0)" xlink:href="#bX"/><use transform="matrix(0.07407407407407408,0,0,0.07407407407407408,134.66666666666666,0)" xlink:href="#bR"/><use transform="matrix(0.07407407407407408,0,0,0.07407407407407408,149.48148148148147,0)" xlink:href="#bG"/><use transform="matrix(0.07407407407407408,0,0,0.07407407407407408,164.29629629629628,0)" xlink:href="#bH"/></g><g id="aD"><use transform="matrix(0.07407407407407408,0,0,0.07407407407407408,0,0)" xlink:href="#bM"/><use transform="matrix(0.07407407407407408,0,0,0.07407407407407408,5.851851851851853,0)" xlink:href="#bJ"/><use transform="matrix(0.07407407407407408,0,0,0.07407407407407408,20.666666666666668,0)" xlink:href="#bK"/><use transform="matrix(0.07407407407407408,0,0,0.07407407407407408,35.48148148148149,0)" xlink:href="#bM"/><use transform="matrix(0.07407407407407408,0,0,0.07407407407407408,41.333333333333336,0)" xlink:href="#bE"/><use transform="matrix(0.07407407407407408,0,0,0.07407407407407408,54.666666666666686,0)" xlink:href="#bD"/><use transform="matrix(0.07407407407407408,0,0,0.07407407407407408,69.4814814814815,0)" xlink:href="#bC"/><use transform="matrix(0.07407407407407408,0,0,0.07407407407407408,76.8888888888889,0)" xlink:href="#bO"/><use transform="matrix(0.07407407407407408,0,0,0.07407407407407408,91.70370370370371,0)" xlink:href="#bH"/><use transform="matrix(0.07407407407407408,0,0,0.07407407407407408,100.51851851851853,0)" xlink:href="#bI"/></g><g id="aE"><use transform="matrix(0.07407407407407408,0,0,0.07407407407407408,0,0)" xlink:href="#bZ"/><use transform="matrix(0.07407407407407408,0,0,0.07407407407407408,7.407407407407408,0)" xlink:href="#bU"/><use transform="matrix(0.07407407407407408,0,0,0.07407407407407408,13.259259259259261,0)" xlink:href="#bD"/><use transform="matrix(0.07407407407407408,0,0,0.07407407407407408,28.074074074074076,0)" xlink:href="#bV"/><use transform="matrix(0.07407407407407408,0,0,0.07407407407407408,42.88888888888889,0)" xlink:href="#bV"/><use transform="matrix(0.07407407407407408,0,0,0.07407407407407408,57.70370370370371,0)" xlink:href="#bG"/><use transform="matrix(0.07407407407407408,0,0,0.07407407407407408,72.51851851851853,0)" xlink:href="#bK"/></g><path d="M145-31C134-9 116 4 85 4 32 4 16-35 15-94c0-59 17-99 70-100 32-1 48 14 60 33 0-11-1-24 2-32h30l-1 268h-32zM93-21c41 0 51-33 51-76s-8-73-50-73c-40 0-46 35-46 75s5 74 45 74" id="ci"/><g id="aF"><use transform="matrix(0.07407407407407408,0,0,0.07407407407407408,0,0)" xlink:href="#ci"/><use transform="matrix(0.07407407407407408,0,0,0.07407407407407408,14.814814814814817,0)" xlink:href="#bQ"/><use transform="matrix(0.07407407407407408,0,0,0.07407407407407408,29.629629629629633,0)" xlink:href="#bD"/><use transform="matrix(0.07407407407407408,0,0,0.07407407407407408,44.44444444444445,0)" xlink:href="#bH"/><use transform="matrix(0.07407407407407408,0,0,0.07407407407407408,53.25925925925927,0)" xlink:href="#bD"/><use transform="matrix(0.07407407407407408,0,0,0.07407407407407408,68.07407407407408,0)" xlink:href="#bJ"/><use transform="matrix(0.07407407407407408,0,0,0.07407407407407408,82.88888888888889,0)" xlink:href="#bC"/><use transform="matrix(0.07407407407407408,0,0,0.07407407407407408,90.29629629629629,0)" xlink:href="#bM"/><use transform="matrix(0.07407407407407408,0,0,0.07407407407407408,96.14814814814814,0)" xlink:href="#bJ"/><use transform="matrix(0.07407407407407408,0,0,0.07407407407407408,110.96296296296296,0)" xlink:href="#bG"/><use transform="matrix(0.07407407407407408,0,0,0.07407407407407408,125.77777777777777,0)" xlink:href="#bK"/></g><g id="aG"><use transform="matrix(0.07407407407407408,0,0,0.07407407407407408,0,0)" xlink:href="#bR"/><use transform="matrix(0.07407407407407408,0,0,0.07407407407407408,14.814814814814817,0)" xlink:href="#bG"/><use transform="matrix(0.07407407407407408,0,0,0.07407407407407408,29.629629629629633,0)" xlink:href="#bZ"/><use transform="matrix(0.07407407407407408,0,0,0.07407407407407408,37.03703703703704,0)" xlink:href="#bO"/><use transform="matrix(0.07407407407407408,0,0,0.07407407407407408,51.85185185185186,0)" xlink:href="#bH"/><use transform="matrix(0.07407407407407408,0,0,0.07407407407407408,60.66666666666667,0)" xlink:href="#bG"/></g><g id="aH"><use transform="matrix(0.07407407407407408,0,0,0.07407407407407408,0,0)" xlink:href="#bE"/><use transform="matrix(0.07407407407407408,0,0,0.07407407407407408,13.333333333333336,0)" xlink:href="#bD"/><use transform="matrix(0.07407407407407408,0,0,0.07407407407407408,28.148148148148152,0)" xlink:href="#bJ"/></g><g id="aI"><use transform="matrix(0.07407407407407408,0,0,0.07407407407407408,0,0)" xlink:href="#bD"/><use transform="matrix(0.07407407407407408,0,0,0.07407407407407408,14.814814814814817,0)" xlink:href="#bE"/><use transform="matrix(0.07407407407407408,0,0,0.07407407407407408,28.148148148148152,0)" xlink:href="#bC"/></g><g id="aJ"><use transform="matrix(0.07407407407407408,0,0,0.07407407407407408,0,0)" xlink:href="#bO"/><use transform="matrix(0.07407407407407408,0,0,0.07407407407407408,14.814814814814817,0)" xlink:href="#bJ"/></g><g id="aK"><use transform="matrix(0.07407407407407408,0,0,0.07407407407407408,0,0)" xlink:href="#bM"/><use transform="matrix(0.07407407407407408,0,0,0.07407407407407408,5.851851851851853,0)" xlink:href="#bC"/></g><g id="aL"><use transform="matrix(0.07407407407407408,0,0,0.07407407407407408,0,0)" xlink:href="#bt"/><use transform="matrix(0.07407407407407408,0,0,0.07407407407407408,19.185185185185187,0)" xlink:href="#bO"/></g><g id="aM"><use transform="matrix(0.07407407407407408,0,0,0.07407407407407408,0,0)" xlink:href="#bH"/><use transform="matrix(0.07407407407407408,0,0,0.07407407407407408,8.814814814814817,0)" xlink:href="#bM"/><use transform="matrix(0.07407407407407408,0,0,0.07407407407407408,14.666666666666668,0)" xlink:href="#bI"/><use transform="matrix(0.07407407407407408,0,0,0.07407407407407408,28.000000000000007,0)" xlink:href="#bF"/><use transform="matrix(0.07407407407407408,0,0,0.07407407407407408,41.333333333333336,0)" xlink:href="#cd"/></g><path d="M68-38c1 34 0 65-14 84H32c9-13 17-26 17-46H33v-38h35" id="cj"/><g id="aN"><use transform="matrix(0.07407407407407408,0,0,0.07407407407407408,0,0)" xlink:href="#bM"/><use transform="matrix(0.07407407407407408,0,0,0.07407407407407408,5.851851851851853,0)" xlink:href="#bJ"/><use transform="matrix(0.07407407407407408,0,0,0.07407407407407408,20.666666666666668,0)" xlink:href="#bC"/><use transform="matrix(0.07407407407407408,0,0,0.07407407407407408,28.074074074074076,0)" xlink:href="#bG"/><use transform="matrix(0.07407407407407408,0,0,0.07407407407407408,42.8888888888889,0)" xlink:href="#bH"/><use transform="matrix(0.07407407407407408,0,0,0.07407407407407408,51.70370370370372,0)" xlink:href="#bD"/><use transform="matrix(0.07407407407407408,0,0,0.07407407407407408,66.51851851851853,0)" xlink:href="#bE"/><use transform="matrix(0.07407407407407408,0,0,0.07407407407407408,79.85185185185188,0)" xlink:href="#bC"/><use transform="matrix(0.07407407407407408,0,0,0.07407407407407408,87.25925925925928,0)" xlink:href="#bM"/><use transform="matrix(0.07407407407407408,0,0,0.07407407407407408,93.11111111111113,0)" xlink:href="#bO"/><use transform="matrix(0.07407407407407408,0,0,0.07407407407407408,107.92592592592595,0)" xlink:href="#bJ"/><use transform="matrix(0.07407407407407408,0,0,0.07407407407407408,122.74074074074076,0)" xlink:href="#cj"/></g><g id="aO"><use transform="matrix(0.07407407407407408,0,0,0.07407407407407408,0,0)" xlink:href="#bJ"/><use transform="matrix(0.07407407407407408,0,0,0.07407407407407408,14.814814814814817,0)" xlink:href="#bO"/></g><g id="aP"><use transform="matrix(0.07407407407407408,0,0,0.07407407407407408,0,0)" xlink:href="#bV"/><use transform="matrix(0.07407407407407408,0,0,0.07407407407407408,14.814814814814817,0)" xlink:href="#bH"/><use transform="matrix(0.07407407407407408,0,0,0.07407407407407408,23.629629629629633,0)" xlink:href="#bD"/><use transform="matrix(0.07407407407407408,0,0,0.07407407407407408,38.44444444444445,0)" xlink:href="#bJ"/><use transform="matrix(0.07407407407407408,0,0,0.07407407407407408,53.25925925925927,0)" xlink:href="#bC"/><use transform="matrix(0.07407407407407408,0,0,0.07407407407407408,60.66666666666667,0)" xlink:href="#bG"/><use transform="matrix(0.07407407407407408,0,0,0.07407407407407408,75.4814814814815,0)" xlink:href="#bK"/></g><g id="aQ"><use transform="matrix(0.07407407407407408,0,0,0.07407407407407408,0,0)" xlink:href="#bD"/><use transform="matrix(0.07407407407407408,0,0,0.07407407407407408,14.814814814814817,0)" xlink:href="#bC"/><use transform="matrix(0.07407407407407408,0,0,0.07407407407407408,22.222222222222225,0)" xlink:href="#bC"/><use transform="matrix(0.07407407407407408,0,0,0.07407407407407408,29.629629629629633,0)" xlink:href="#bD"/><use transform="matrix(0.07407407407407408,0,0,0.07407407407407408,44.44444444444445,0)" xlink:href="#bE"/><use transform="matrix(0.07407407407407408,0,0,0.07407407407407408,57.777777777777786,0)" xlink:href="#bF"/><use transform="matrix(0.07407407407407408,0,0,0.07407407407407408,71.11111111111111,0)" xlink:href="#bG"/><use transform="matrix(0.07407407407407408,0,0,0.07407407407407408,85.92592592592592,0)" xlink:href="#bH"/></g></defs></g></svg>