<svg xmlns="http://www.w3.org/2000/svg" xmlns:xlink="http://www.w3.org/1999/xlink" xmlns:lucid="lucid" width="2368.94" height="592"><g transform="translate(22108.935740740744 19000)" lucid:page-tab-id="0_0"><path d="M-22108.94-18994a6 6 0 0 1 6-6h537.87a6 6 0 0 1 6 6v30a6 6 0 0 1-6 6h-537.87a6 6 0 0 1-6-6z" fill="none"/><use xlink:href="#a" transform="matrix(1,0,0,1,-22103.935740740744,-18995) translate(0 21.833333333333336)"/><use xlink:href="#b" transform="matrix(1,0,0,1,-22103.935740740744,-18995) translate(47.33333333333334 21.833333333333336)"/><use xlink:href="#c" transform="matrix(1,0,0,1,-22103.935740740744,-18995) translate(131.62962962962962 21.833333333333336)"/><use xlink:href="#d" transform="matrix(1,0,0,1,-22103.935740740744,-18995) translate(267.7037037037037 21.833333333333336)"/><use xlink:href="#e" transform="matrix(1,0,0,1,-22103.935740740744,-18995) translate(434.6666666666667 21.833333333333336)"/><path d="M-21669.7-18914a6 6 0 0 1 6-6h568.67a6 6 0 0 1 6 6v30a6 6 0 0 1-6 6h-568.68a6 6 0 0 1-6-6z" fill="none"/><use xlink:href="#f" transform="matrix(1,0,0,1,-21664.71168773144,-18915) translate(0 21.833333333333336)"/><use xlink:href="#g" transform="matrix(1,0,0,1,-21664.71168773144,-18915) translate(114.96296296296298 21.833333333333336)"/><use xlink:href="#h" transform="matrix(1,0,0,1,-21664.71168773144,-18915) translate(296.8148148148149 21.833333333333336)"/><use xlink:href="#i" transform="matrix(1,0,0,1,-21664.71168773144,-18915) translate(414.0000000000001 21.833333333333336)"/><path d="M-21660-18648a6 6 0 0 1 6-6h696.9a6 6 0 0 1 6 6v30a6 6 0 0 1-6 6h-696.9a6 6 0 0 1-6-6z" fill="none"/><use xlink:href="#j" transform="matrix(1,0,0,1,-21655,-18649.000013636334) translate(0 21.833333333333336)"/><use xlink:href="#k" transform="matrix(1,0,0,1,-21655,-18649.000013636334) translate(142.00000000000003 21.833333333333336)"/><use xlink:href="#g" transform="matrix(1,0,0,1,-21655,-18649.000013636334) translate(228.37037037037038 21.833333333333336)"/><use xlink:href="#h" transform="matrix(1,0,0,1,-21655,-18649.000013636334) translate(410.2222222222223 21.833333333333336)"/><use xlink:href="#l" transform="matrix(1,0,0,1,-21655,-18649.000013636334) translate(527.4074074074075 21.833333333333336)"/><path d="M-22100-18713.32a6 6 0 0 1 6-6h308a6 6 0 0 1 6 6v152.67a6 6 0 0 1-6 6h-308a6 6 0 0 1-6-6z" fill="none"/><use xlink:href="#m" transform="matrix(1,0,0,1,-22095,-18714.32331515156) translate(0 36.83334696966597)"/><use xlink:href="#n" transform="matrix(1,0,0,1,-22095,-18714.32331515156) translate(105.1111111111111 36.83334696966597)"/><use xlink:href="#o" transform="matrix(1,0,0,1,-22095,-18714.32331515156) translate(183.62962962962962 36.83334696966597)"/><use xlink:href="#p" transform="matrix(1,0,0,1,-22095,-18714.32331515156) translate(0 67.5000045454442)"/><use xlink:href="#q" transform="matrix(1,0,0,1,-22095,-18714.32331515156) translate(128.74074074074073 67.5000045454442)"/><use xlink:href="#r" transform="matrix(1,0,0,1,-22095,-18714.32331515156) translate(176.07407407407408 67.5000045454442)"/><use xlink:href="#s" transform="matrix(1,0,0,1,-22095,-18714.32331515156) translate(0 98.16666212122246)"/><use xlink:href="#t" transform="matrix(1,0,0,1,-22095,-18714.32331515156) translate(79.85185185185186 98.16666212122246)"/><use xlink:href="#u" transform="matrix(1,0,0,1,-22095,-18714.32331515156) translate(159.62962962962965 98.16666212122246)"/><use xlink:href="#v" transform="matrix(1,0,0,1,-22095,-18714.32331515156) translate(220.22222222222226 98.16666212122246)"/><use xlink:href="#w" transform="matrix(1,0,0,1,-22095,-18714.32331515156) translate(0 128.8333196970007)"/><use xlink:href="#x" transform="matrix(1,0,0,1,-22095,-18714.32331515156) translate(108.14814814814814 128.8333196970007)"/><use xlink:href="#y" transform="matrix(1,0,0,1,-22095,-18714.32331515156) translate(199.92592592592592 128.8333196970007)"/><path d="M-21665.13-18821.32a6 6 0 0 1 6-6h268a6 6 0 0 1 6 6v91.34a6 6 0 0 1-6 6h-268a6 6 0 0 1-6-6z" fill="none"/><use xlink:href="#z" transform="matrix(1,0,0,1,-21660.133703703705,-18822.32334242422) translate(0 21.666675757555097)"/><use xlink:href="#A" transform="matrix(1,0,0,1,-21660.133703703705,-18822.32334242422) translate(79.70370370370371 21.666675757555097)"/><use xlink:href="#B" transform="matrix(1,0,0,1,-21660.133703703705,-18822.32334242422) translate(116.74074074074075 21.666675757555097)"/><use xlink:href="#C" transform="matrix(1,0,0,1,-21660.133703703705,-18822.32334242422) translate(161.1851851851852 21.666675757555097)"/><use xlink:href="#q" transform="matrix(1,0,0,1,-21660.133703703705,-18822.32334242422) translate(0 52.333333333333336)"/><use xlink:href="#D" transform="matrix(1,0,0,1,-21660.133703703705,-18822.32334242422) translate(47.33333333333334 52.333333333333336)"/><use xlink:href="#E" transform="matrix(1,0,0,1,-21660.133703703705,-18822.32334242422) translate(125.85185185185186 52.333333333333336)"/><use xlink:href="#o" transform="matrix(1,0,0,1,-21660.133703703705,-18822.32334242422) translate(166.44444444444446 52.333333333333336)"/><use xlink:href="#F" transform="matrix(1,0,0,1,-21660.133703703705,-18822.32334242422) translate(0 82.99999090911157)"/><path d="M-21267.64-18806a6 6 0 0 1 6-6h217.8a6 6 0 0 1 6 6v60.7a6 6 0 0 1-6 6h-217.8a6 6 0 0 1-6-6z" fill="none"/><use xlink:href="#G" transform="matrix(1,0,0,1,-21262.636975190315,-18806.990013636332) translate(0 21.500004545444213)"/><use xlink:href="#H" transform="matrix(1,0,0,1,-21262.636975190315,-18806.990013636332) translate(63.55555555555556 21.500004545444213)"/><use xlink:href="#I" transform="matrix(1,0,0,1,-21262.636975190315,-18806.990013636332) translate(140.5925925925926 21.500004545444213)"/><use xlink:href="#J" transform="matrix(1,0,0,1,-21262.636975190315,-18806.990013636332) translate(0 52.16666212122245)"/><use xlink:href="#K" transform="matrix(1,0,0,1,-21262.636975190315,-18806.990013636332) translate(65.18518518518519 52.16666212122245)"/><use xlink:href="#L" transform="matrix(1,0,0,1,-21262.636975190315,-18806.990013636332) translate(119.85185185185186 52.16666212122245)"/><path d="M-20872.4-18821.32a6 6 0 0 1 6-6h220.4a6 6 0 0 1 6 6v91.34a6 6 0 0 1-6 6h-220.4a6 6 0 0 1-6-6z" fill="none"/><use xlink:href="#M" transform="matrix(1,0,0,1,-20867.40490740741,-18822.32334242422) translate(0 21.666675757555097)"/><use xlink:href="#N" transform="matrix(1,0,0,1,-20867.40490740741,-18822.32334242422) translate(47.33333333333334 21.666675757555097)"/><use xlink:href="#O" transform="matrix(1,0,0,1,-20867.40490740741,-18822.32334242422) translate(156.74074074074076 21.666675757555097)"/><use xlink:href="#P" transform="matrix(1,0,0,1,-20867.40490740741,-18822.32334242422) translate(0 52.333333333333336)"/><use xlink:href="#Q" transform="matrix(1,0,0,1,-20867.40490740741,-18822.32334242422) translate(0 82.99999090911157)"/><path d="M-20520-18821.32a6 6 0 0 1 6-6h297a6 6 0 0 1 6 6v91.34a6 6 0 0 1-6 6h-297a6 6 0 0 1-6-6z" fill="none"/><use xlink:href="#R" transform="matrix(1,0,0,1,-20515,-18822.32334242422) translate(0 21.666675757555097)"/><use xlink:href="#S" transform="matrix(1,0,0,1,-20515,-18822.32334242422) translate(65.11111111111111 21.666675757555097)"/><use xlink:href="#T" transform="matrix(1,0,0,1,-20515,-18822.32334242422) translate(128.81481481481484 21.666675757555097)"/><use xlink:href="#U" transform="matrix(1,0,0,1,-20515,-18822.32334242422) translate(0 52.333333333333336)"/><use xlink:href="#V" transform="matrix(1,0,0,1,-20515,-18822.32334242422) translate(63.55555555555557 52.333333333333336)"/><use xlink:href="#W" transform="matrix(1,0,0,1,-20515,-18822.32334242422) translate(173.11111111111114 52.333333333333336)"/><use xlink:href="#X" transform="matrix(1,0,0,1,-20515,-18822.32334242422) translate(233.77777777777783 52.333333333333336)"/><use xlink:href="#Y" transform="matrix(1,0,0,1,-20515,-18822.32334242422) translate(0 82.99999090911157)"/><path d="M-20080-18825.33a6 6 0 0 1 6-6h328a6 6 0 0 1 6 6v91.34a6 6 0 0 1-6 6h-328a6 6 0 0 1-6-6z" fill="none"/><g><use xlink:href="#Z" transform="matrix(1,0,0,1,-20075,-18826.333319697) translate(0 21.666675757555097)"/><use xlink:href="#aa" transform="matrix(1,0,0,1,-20075,-18826.333319697) translate(103.7037037037037 21.666675757555097)"/><use xlink:href="#ab" transform="matrix(1,0,0,1,-20075,-18826.333319697) translate(256 21.666675757555097)"/><use xlink:href="#ac" transform="matrix(1,0,0,1,-20075,-18826.333319697) translate(0 52.333333333333336)"/><use xlink:href="#ad" transform="matrix(1,0,0,1,-20075,-18826.333319697) translate(161.33333333333334 52.333333333333336)"/><use xlink:href="#ae" transform="matrix(1,0,0,1,-20075,-18826.333319697) translate(251.70370370370375 52.333333333333336)"/><use xlink:href="#af" transform="matrix(1,0,0,1,-20075,-18826.333319697) translate(0 82.99999090911157)"/></g><path d="M-21664.98-18536a6 6 0 0 1 6-6h288.82a6 6 0 0 1 6 6v122a6 6 0 0 1-6 6h-288.82a6 6 0 0 1-6-6z" fill="none"/><g><use xlink:href="#ag" transform="matrix(1,0,0,1,-21659.98020488702,-18537.010000000006) translate(0 21.833346969665968)"/><use xlink:href="#ah" transform="matrix(1,0,0,1,-21659.98020488702,-18537.010000000006) translate(73.85185185185186 21.833346969665968)"/><use xlink:href="#ai" transform="matrix(1,0,0,1,-21659.98020488702,-18537.010000000006) translate(168.66666666666669 21.833346969665968)"/><use xlink:href="#aj" transform="matrix(1,0,0,1,-21659.98020488702,-18537.010000000006) translate(191.62962962962965 21.833346969665968)"/><use xlink:href="#ak" transform="matrix(1,0,0,1,-21659.98020488702,-18537.010000000006) translate(0 52.500004545444206)"/><use xlink:href="#al" transform="matrix(1,0,0,1,-21659.98020488702,-18537.010000000006) translate(114.00000000000001 52.500004545444206)"/><use xlink:href="#am" transform="matrix(1,0,0,1,-21659.98020488702,-18537.010000000006) translate(152.44444444444446 52.500004545444206)"/><use xlink:href="#an" transform="matrix(1,0,0,1,-21659.98020488702,-18537.010000000006) translate(0 83.16666212122244)"/><use xlink:href="#ao" transform="matrix(1,0,0,1,-21659.98020488702,-18537.010000000006) translate(73.92592592592594 83.16666212122244)"/><use xlink:href="#q" transform="matrix(1,0,0,1,-21659.98020488702,-18537.010000000006) translate(88.74074074074076 83.16666212122244)"/><use xlink:href="#r" transform="matrix(1,0,0,1,-21659.98020488702,-18537.010000000006) translate(136.0740740740741 83.16666212122244)"/><use xlink:href="#ap" transform="matrix(1,0,0,1,-21659.98020488702,-18537.010000000006) translate(0 113.83331969700069)"/></g><path d="M-21275.82-18520.68a6 6 0 0 1 6-6h292a6 6 0 0 1 6 6v91.35a6 6 0 0 1-6 6h-292a6 6 0 0 1-6-6z" fill="none"/><g><use xlink:href="#aq" transform="matrix(1,0,0,1,-21270.818487595156,-18521.676671212117) translate(0 21.666675757555097)"/><use xlink:href="#q" transform="matrix(1,0,0,1,-21270.818487595156,-18521.676671212117) translate(113.99999999999999 21.666675757555097)"/><use xlink:href="#ar" transform="matrix(1,0,0,1,-21270.818487595156,-18521.676671212117) translate(161.33333333333331 21.666675757555097)"/><use xlink:href="#as" transform="matrix(1,0,0,1,-21270.818487595156,-18521.676671212117) translate(0 52.333333333333336)"/><use xlink:href="#al" transform="matrix(1,0,0,1,-21270.818487595156,-18521.676671212117) translate(121.4074074074074 52.333333333333336)"/><use xlink:href="#at" transform="matrix(1,0,0,1,-21270.818487595156,-18521.676671212117) translate(159.85185185185185 52.333333333333336)"/><use xlink:href="#au" transform="matrix(1,0,0,1,-21270.818487595156,-18521.676671212117) translate(208.5925925925926 52.333333333333336)"/><use xlink:href="#av" transform="matrix(1,0,0,1,-21270.818487595156,-18521.676671212117) translate(0 82.99999090911157)"/></g><path d="M-20874.36-18505.34a6 6 0 0 1 6-6h237.52a6 6 0 0 1 6 6v60.67a6 6 0 0 1-6 6h-237.52a6 6 0 0 1-6-6z" fill="none"/><g><use xlink:href="#aw" transform="matrix(1,0,0,1,-20869.35568993805,-18506.34334242423) translate(0 21.500004545444213)"/><use xlink:href="#ax" transform="matrix(1,0,0,1,-20869.35568993805,-18506.34334242423) translate(91.77777777777779 21.500004545444213)"/><use xlink:href="#ay" transform="matrix(1,0,0,1,-20869.35568993805,-18506.34334242423) translate(0 52.16666212122245)"/></g><path d="M-20503.55-18505.34a6 6 0 0 1 6-6h278a6 6 0 0 1 6 6v60.67a6 6 0 0 1-6 6h-278a6 6 0 0 1-6-6z" fill="none"/><g><use xlink:href="#ag" transform="matrix(1,0,0,1,-20498.551717469363,-18506.34334242423) translate(0 21.500004545444213)"/><use xlink:href="#az" transform="matrix(1,0,0,1,-20498.551717469363,-18506.34334242423) translate(73.85185185185186 21.500004545444213)"/><use xlink:href="#aA" transform="matrix(1,0,0,1,-20498.551717469363,-18506.34334242423) translate(0 52.16666212122245)"/><use xlink:href="#aB" transform="matrix(1,0,0,1,-20498.551717469363,-18506.34334242423) translate(82.8888888888889 52.16666212122245)"/><use xlink:href="#aC" transform="matrix(1,0,0,1,-20498.551717469363,-18506.34334242423) translate(142.07407407407408 52.16666212122245)"/></g><path d="M-20060-18505.34a6 6 0 0 1 6-6h252a6 6 0 0 1 6 6v60.67a6 6 0 0 1-6 6h-252a6 6 0 0 1-6-6z" fill="none"/><g><use xlink:href="#aD" transform="matrix(1,0,0,1,-20055,-18506.34334242423) translate(0 21.500004545444213)"/><use xlink:href="#aE" transform="matrix(1,0,0,1,-20055,-18506.34334242423) translate(41.407407407407405 21.500004545444213)"/><use xlink:href="#aF" transform="matrix(1,0,0,1,-20055,-18506.34334242423) translate(164.14814814814815 21.500004545444213)"/><use xlink:href="#aG" transform="matrix(1,0,0,1,-20055,-18506.34334242423) translate(223.4074074074074 21.500004545444213)"/><use xlink:href="#aH" transform="matrix(1,0,0,1,-20055,-18506.34334242423) translate(0 52.16666212122245)"/><use xlink:href="#aI" transform="matrix(1,0,0,1,-20055,-18506.34334242423) translate(152.37037037037038 52.16666212122245)"/></g><path d="M-21384.13-18775.65h100.5" stroke="#000" stroke-width="2" fill="none"/><path d="M-21384.1-18774.68h-1.03v-1.95h1.02z" stroke="#000" stroke-width=".05"/><path d="M-21269.64-18775.65l-13 7.5v-15z" stroke="#000" stroke-width="2"/><path d="M-21036.85-18775.65h148.45" stroke="#000" stroke-width="2" fill="none"/><path d="M-21036.82-18774.68h-1.03v-1.95h1.03z" stroke="#000" stroke-width=".05"/><path d="M-20874.4-18775.65l-13 7.5v-15z" stroke="#000" stroke-width="2"/><path d="M-21779.36-18637.76l104.03-125.58" stroke="#000" stroke-width="2" fill="none"/><path d="M-21778.6-18637.15l-1.4 1.7v-2.87z" stroke="#000" stroke-width=".05"/><path d="M-21666.4-18774.1l-2.52 14.78-11.55-9.57z" stroke="#000" stroke-width="2"/><path d="M-21779.42-18636.17l105.18 148.13" stroke="#000" stroke-width="2" fill="none"/><path d="M-21778.6-18636.7l-1.4.97v-2.94z" stroke="#000" stroke-width=".05"/><path d="M-21666.14-18476.64l-13.63-6.24 12.23-8.7z" stroke="#000" stroke-width="2"/><path d="M-21363.16-18475h71.35" stroke="#000" stroke-width="2" fill="none"/><path d="M-21363.14-18474.03h-1.02v-1.95h1.02z" stroke="#000" stroke-width=".05"/><path d="M-21277.82-18475l-13 7.5v-15z" stroke="#000" stroke-width="2"/><path d="M-20970.82-18475h80.47" stroke="#000" stroke-width="2" fill="none"/><path d="M-20970.8-18474.03h-1.02v-1.95h1.03z" stroke="#000" stroke-width=".05"/><path d="M-20876.36-18475l-13 7.5v-15z" stroke="#000" stroke-width="2"/><path d="M-20623.84-18475h104.3" stroke="#000" stroke-width="2" fill="none"/><path d="M-20623.8-18474.03h-1.04v-1.95h1.03z" stroke="#000" stroke-width=".05"/><path d="M-20505.55-18475l-13 7.5v-15z" stroke="#000" stroke-width="2"/><path d="M-20212.55-18475h136.56" stroke="#000" stroke-width="2" fill="none"/><path d="M-20212.53-18474.03h-1.02v-1.95h1.02z" stroke="#000" stroke-width=".05"/><path d="M-20062-18475l-13 7.5v-15z" stroke="#000" stroke-width="2"/><path d="M-20210-18775.65h114" stroke="#000" stroke-width="2" fill="none"/><path d="M-20209.97-18774.68h-1.03v-1.95h1.03z" stroke="#000" stroke-width=".05"/><path d="M-20082-18775.65l-13 7.5v-15z" stroke="#000" stroke-width="2"/><path d="M-20639-18775.65h103" stroke="#000" stroke-width="2" fill="none"/><path d="M-20638.97-18774.68h-1.03v-1.95h1.03z" stroke="#000" stroke-width=".05"/><path d="M-20522-18775.65l-13 7.5v-15z" stroke="#000" stroke-width="2"/><defs><path d="M140-251c80 0 125 45 125 126 0 70-33 111-92 124 6 28 34 38 68 31l-1 36C177 83 129 55 120 2 51-6 15-50 15-125c0-81 44-126 125-126zm-1 214c52 0 73-35 73-88 0-50-21-86-72-86-52 0-73 35-73 86s22 88 72 88" id="aJ"/><path d="M240-174c0 40-23 61-54 70L253 0h-59l-57-94H76V0H24v-248c93 4 217-23 216 74zM76-134c48-2 112 12 112-38 0-48-66-32-112-35v73" id="aK"/><g id="a"><use transform="matrix(0.07407407407407408,0,0,0.07407407407407408,0,0)" xlink:href="#aJ"/><use transform="matrix(0.07407407407407408,0,0,0.07407407407407408,20.740740740740744,0)" xlink:href="#aK"/></g><path d="M67-125c0 53 21 87 73 88 37 1 54-22 65-47l45 17C233-25 199 4 140 4 58 4 20-42 15-125 8-235 124-281 211-232c18 10 29 29 36 50l-46 12c-8-25-30-41-62-41-52 0-71 34-72 86" id="aL"/><path d="M140-251c80 0 125 45 125 126S219 4 139 4C58 4 15-44 15-125s44-126 125-126zm-1 214c52 0 73-35 73-88 0-50-21-86-72-86-52 0-73 35-73 86s22 88 72 88" id="aM"/><path d="M24-248c120-7 223 5 221 122C244-46 201 0 124 0H24v-248zM76-40c74 7 117-18 117-86 0-67-45-88-117-82v168" id="aN"/><path d="M24 0v-248h195v40H76v63h132v40H76v65h150V0H24" id="aO"/><g id="b"><use transform="matrix(0.07407407407407408,0,0,0.07407407407407408,0,0)" xlink:href="#aL"/><use transform="matrix(0.07407407407407408,0,0,0.07407407407407408,19.185185185185187,0)" xlink:href="#aM"/><use transform="matrix(0.07407407407407408,0,0,0.07407407407407408,39.92592592592593,0)" xlink:href="#aN"/><use transform="matrix(0.07407407407407408,0,0,0.07407407407407408,59.11111111111111,0)" xlink:href="#aO"/></g><path d="M24-248c93 1 206-16 204 79-1 75-69 88-152 82V0H24v-248zm52 121c47 0 100 7 100-41 0-47-54-39-100-39v80" id="aP"/><path d="M186 0v-106H76V0H24v-248h52v99h110v-99h50V0h-50" id="aQ"/><path d="M24 0v-248h52V0H24" id="aR"/><path d="M169-182c-1-43-94-46-97-3 18 66 151 10 154 114 3 95-165 93-204 36-6-8-10-19-12-30l50-8c3 46 112 56 116 5-17-69-150-10-154-114-4-87 153-88 188-35 5 8 8 18 10 28" id="aS"/><path d="M175 0L67-191c6 58 2 128 3 191H24v-248h59L193-55c-6-58-2-129-3-193h46V0h-61" id="aT"/><path d="M67-125c0 54 23 88 75 88 28 0 53-7 68-21v-34h-60v-39h108v91C232-14 192 4 140 4 58 4 20-42 15-125 8-236 126-280 215-234c19 10 29 26 37 47l-47 15c-11-23-29-39-63-39-53 1-75 33-75 86" id="aU"/><g id="c"><use transform="matrix(0.07407407407407408,0,0,0.07407407407407408,0,0)" xlink:href="#aP"/><use transform="matrix(0.07407407407407408,0,0,0.07407407407407408,17.77777777777778,0)" xlink:href="#aQ"/><use transform="matrix(0.07407407407407408,0,0,0.07407407407407408,36.96296296296296,0)" xlink:href="#aR"/><use transform="matrix(0.07407407407407408,0,0,0.07407407407407408,44.37037037037037,0)" xlink:href="#aS"/><use transform="matrix(0.07407407407407408,0,0,0.07407407407407408,62.148148148148145,0)" xlink:href="#aQ"/><use transform="matrix(0.07407407407407408,0,0,0.07407407407407408,81.33333333333333,0)" xlink:href="#aR"/><use transform="matrix(0.07407407407407408,0,0,0.07407407407407408,88.74074074074073,0)" xlink:href="#aT"/><use transform="matrix(0.07407407407407408,0,0,0.07407407407407408,107.92592592592592,0)" xlink:href="#aU"/></g><path d="M67-93c0 74 22 123 53 168H70C40 30 18-18 18-93s22-123 52-168h50c-32 44-53 94-53 168" id="aV"/><path d="M102-146c0-40-1-80 19-102h32c-11 15-21 32-23 56h23v46h-51zm-75 0c0-40-1-80 19-102h32c-10 15-24 30-23 56h22v46H27" id="aW"/><path d="M85 4C-2 5 27-109 22-190h50c7 57-23 150 33 157 60-5 35-97 40-157h50l1 190h-47c-2-12 1-28-3-38-12 25-28 42-61 42" id="aX"/><path d="M25-224v-37h50v37H25zM25 0v-190h50V0H25" id="aY"/><path d="M137-138c1-29-70-34-71-4 15 46 118 7 119 86 1 83-164 76-172 9l43-7c4 19 20 25 44 25 33 8 57-30 24-41C81-84 22-81 20-136c-2-80 154-74 161-7" id="aZ"/><path d="M114-157C55-157 80-60 75 0H25v-261h50l-1 109c12-26 28-41 61-42 86-1 58 113 63 194h-50c-7-57 23-157-34-157" id="ba"/><path d="M135-194c87-1 58 113 63 194h-50c-7-57 23-157-34-157-59 0-34 97-39 157H25l-1-190h47c2 12-1 28 3 38 12-26 28-41 61-42" id="bb"/><path d="M195-6C206 82 75 100 31 46c-4-6-6-13-8-21l49-6c3 16 16 24 34 25 40 0 42-37 40-79-11 22-30 35-61 35-53 0-70-43-70-97 0-56 18-96 73-97 30 0 46 14 59 34l2-30h47zm-90-29c32 0 41-27 41-63 0-35-9-62-40-62-32 0-39 29-40 63 0 36 9 62 39 62" id="bc"/><path d="M153-248c0 40 1 80-19 102h-32c12-14 22-35 23-56h-22v-46h50zm-75 0c1 41 0 80-19 102H27c11-15 21-32 23-56H27v-46h51" id="bd"/><path d="M102-93c0 74-22 123-52 168H0C30 29 54-18 53-93c0-74-22-123-53-168h50c30 45 52 94 52 168" id="be"/><g id="d"><use transform="matrix(0.07407407407407408,0,0,0.07407407407407408,0,0)" xlink:href="#aV"/><use transform="matrix(0.07407407407407408,0,0,0.07407407407407408,8.814814814814817,0)" xlink:href="#aW"/><use transform="matrix(0.07407407407407408,0,0,0.07407407407407408,22.148148148148152,0)" xlink:href="#aJ"/><use transform="matrix(0.07407407407407408,0,0,0.07407407407407408,42.8888888888889,0)" xlink:href="#aX"/><use transform="matrix(0.07407407407407408,0,0,0.07407407407407408,59.11111111111113,0)" xlink:href="#aY"/><use transform="matrix(0.07407407407407408,0,0,0.07407407407407408,66.51851851851853,0)" xlink:href="#aZ"/><use transform="matrix(0.07407407407407408,0,0,0.07407407407407408,81.33333333333334,0)" xlink:href="#ba"/><use transform="matrix(0.07407407407407408,0,0,0.07407407407407408,97.55555555555557,0)" xlink:href="#aY"/><use transform="matrix(0.07407407407407408,0,0,0.07407407407407408,104.96296296296298,0)" xlink:href="#bb"/><use transform="matrix(0.07407407407407408,0,0,0.07407407407407408,121.1851851851852,0)" xlink:href="#bc"/><use transform="matrix(0.07407407407407408,0,0,0.07407407407407408,137.40740740740742,0)" xlink:href="#bd"/><use transform="matrix(0.07407407407407408,0,0,0.07407407407407408,150.74074074074076,0)" xlink:href="#be"/></g><path d="M199 0l-22-63H83L61 0H9l90-248h61L250 0h-51zm-33-102l-36-108c-10 38-24 72-36 108h72" id="bf"/><path d="M136-208V0H84v-208H4v-40h212v40h-80" id="bg"/><path d="M195 0l-88-114-31 24V0H24v-248h52v113l112-113h60L142-143 257 0h-62" id="bh"/><g id="e"><use transform="matrix(0.07407407407407408,0,0,0.07407407407407408,0,0)" xlink:href="#bf"/><use transform="matrix(0.07407407407407408,0,0,0.07407407407407408,17.185185185185187,0)" xlink:href="#bg"/><use transform="matrix(0.07407407407407408,0,0,0.07407407407407408,33.40740740740741,0)" xlink:href="#bg"/><use transform="matrix(0.07407407407407408,0,0,0.07407407407407408,47.62962962962963,0)" xlink:href="#bf"/><use transform="matrix(0.07407407407407408,0,0,0.07407407407407408,66.81481481481482,0)" xlink:href="#aL"/><use transform="matrix(0.07407407407407408,0,0,0.07407407407407408,86.00000000000001,0)" xlink:href="#bh"/></g><path d="M30 0v-248h33v221h125V0H30" id="bi"/><path d="M30 0v-248h187v28H63v79h144v27H63v87h162V0H30" id="bj"/><path d="M143 4C61 4 22-44 18-125c-5-107 100-154 193-111 17 8 29 25 37 43l-32 9c-13-25-37-40-76-40-61 0-88 39-88 99 0 61 29 100 91 101 35 0 62-11 79-27v-45h-74v-28h105v86C228-13 192 4 143 4" id="bk"/><path d="M205 0l-28-72H64L36 0H1l101-248h38L239 0h-34zm-38-99l-47-123c-12 45-31 82-46 123h93" id="bl"/><path d="M212-179c-10-28-35-45-73-45-59 0-87 40-87 99 0 60 29 101 89 101 43 0 62-24 78-52l27 14C228-24 195 4 139 4 59 4 22-46 18-125c-6-104 99-153 187-111 19 9 31 26 39 46" id="bm"/><path d="M137-103V0h-34v-103L8-248h37l75 118 75-118h37" id="bn"/><g id="f"><use transform="matrix(0.07407407407407408,0,0,0.07407407407407408,0,0)" xlink:href="#bi"/><use transform="matrix(0.07407407407407408,0,0,0.07407407407407408,14.814814814814817,0)" xlink:href="#bj"/><use transform="matrix(0.07407407407407408,0,0,0.07407407407407408,32.592592592592595,0)" xlink:href="#bk"/><use transform="matrix(0.07407407407407408,0,0,0.07407407407407408,53.33333333333334,0)" xlink:href="#bl"/><use transform="matrix(0.07407407407407408,0,0,0.07407407407407408,71.11111111111111,0)" xlink:href="#bm"/><use transform="matrix(0.07407407407407408,0,0,0.07407407407407408,90.2962962962963,0)" xlink:href="#bn"/></g><path d="M30-248c87 1 191-15 191 75 0 78-77 80-158 76V0H30v-248zm33 125c57 0 124 11 124-50 0-59-68-47-124-48v98" id="bo"/><path d="M233-177c-1 41-23 64-60 70L243 0h-38l-65-103H63V0H30v-248c88 3 205-21 203 71zM63-129c60-2 137 13 137-47 0-61-80-42-137-45v92" id="bp"/><path d="M140-251c81 0 123 46 123 126C263-46 219 4 140 4 59 4 17-45 17-125s42-126 123-126zm0 227c63 0 89-41 89-101s-29-99-89-99c-61 0-89 39-89 99S79-25 140-24" id="bq"/><path d="M127-220V0H93v-220H8v-28h204v28h-85" id="br"/><path d="M33 0v-248h34V0H33" id="bs"/><path d="M190 0L58-211 59 0H30v-248h39L202-35l-2-213h31V0h-41" id="bt"/><g id="g"><use transform="matrix(0.07407407407407408,0,0,0.07407407407407408,0,0)" xlink:href="#bo"/><use transform="matrix(0.07407407407407408,0,0,0.07407407407407408,17.77777777777778,0)" xlink:href="#bp"/><use transform="matrix(0.07407407407407408,0,0,0.07407407407407408,36.96296296296296,0)" xlink:href="#bq"/><use transform="matrix(0.07407407407407408,0,0,0.07407407407407408,57.70370370370371,0)" xlink:href="#br"/><use transform="matrix(0.07407407407407408,0,0,0.07407407407407408,73.92592592592594,0)" xlink:href="#bj"/><use transform="matrix(0.07407407407407408,0,0,0.07407407407407408,91.70370370370371,0)" xlink:href="#bm"/><use transform="matrix(0.07407407407407408,0,0,0.07407407407407408,110.88888888888891,0)" xlink:href="#br"/><use transform="matrix(0.07407407407407408,0,0,0.07407407407407408,127.11111111111114,0)" xlink:href="#bs"/><use transform="matrix(0.07407407407407408,0,0,0.07407407407407408,134.51851851851856,0)" xlink:href="#bq"/><use transform="matrix(0.07407407407407408,0,0,0.07407407407407408,155.25925925925927,0)" xlink:href="#bt"/></g><path d="M87 75C49 33 22-17 22-94c0-76 28-126 65-167h31c-38 41-64 92-64 168S80 34 118 75H87" id="bu"/><path d="M194 0L95-120 63-95V0H30v-248h33v124l119-124h40L117-140 236 0h-42" id="bv"/><g id="h"><use transform="matrix(0.07407407407407408,0,0,0.07407407407407408,0,0)" xlink:href="#bu"/><use transform="matrix(0.07407407407407408,0,0,0.07407407407407408,8.814814814814817,0)" xlink:href="#bl"/><use transform="matrix(0.07407407407407408,0,0,0.07407407407407408,24.592592592592595,0)" xlink:href="#br"/><use transform="matrix(0.07407407407407408,0,0,0.07407407407407408,40.81481481481482,0)" xlink:href="#br"/><use transform="matrix(0.07407407407407408,0,0,0.07407407407407408,55.03703703703705,0)" xlink:href="#bl"/><use transform="matrix(0.07407407407407408,0,0,0.07407407407407408,72.81481481481484,0)" xlink:href="#bm"/><use transform="matrix(0.07407407407407408,0,0,0.07407407407407408,92.00000000000003,0)" xlink:href="#bv"/></g><path d="M185-189c-5-48-123-54-124 2 14 75 158 14 163 119 3 78-121 87-175 55-17-10-28-26-33-46l33-7c5 56 141 63 141-1 0-78-155-14-162-118-5-82 145-84 179-34 5 7 8 16 11 25" id="bw"/><path d="M232-93c-1 65-40 97-104 97C67 4 28-28 28-90v-158h33c8 89-33 224 67 224 102 0 64-133 71-224h33v155" id="bx"/><path d="M30-248c118-7 216 8 213 122C240-48 200 0 122 0H30v-248zM63-27c89 8 146-16 146-99s-60-101-146-95v194" id="by"/><path d="M33-261c38 41 65 92 65 168S71 34 33 75H2C39 34 66-17 66-93S39-220 2-261h31" id="bz"/><g id="i"><use transform="matrix(0.07407407407407408,0,0,0.07407407407407408,0,0)" xlink:href="#bw"/><use transform="matrix(0.07407407407407408,0,0,0.07407407407407408,17.77777777777778,0)" xlink:href="#bx"/><use transform="matrix(0.07407407407407408,0,0,0.07407407407407408,36.96296296296296,0)" xlink:href="#bm"/><use transform="matrix(0.07407407407407408,0,0,0.07407407407407408,56.14814814814815,0)" xlink:href="#bm"/><use transform="matrix(0.07407407407407408,0,0,0.07407407407407408,75.33333333333334,0)" xlink:href="#bj"/><use transform="matrix(0.07407407407407408,0,0,0.07407407407407408,93.1111111111111,0)" xlink:href="#bj"/><use transform="matrix(0.07407407407407408,0,0,0.07407407407407408,110.88888888888889,0)" xlink:href="#by"/><use transform="matrix(0.07407407407407408,0,0,0.07407407407407408,130.07407407407408,0)" xlink:href="#bw"/><use transform="matrix(0.07407407407407408,0,0,0.07407407407407408,147.85185185185185,0)" xlink:href="#bz"/></g><path d="M240 0l2-218c-23 76-54 145-80 218h-23L58-218 59 0H30v-248h44l77 211c21-75 51-140 76-211h43V0h-30" id="bA"/><g id="j"><use transform="matrix(0.07407407407407408,0,0,0.07407407407407408,0,0)" xlink:href="#bA"/><use transform="matrix(0.07407407407407408,0,0,0.07407407407407408,22.148148148148152,0)" xlink:href="#bl"/><use transform="matrix(0.07407407407407408,0,0,0.07407407407407408,39.92592592592593,0)" xlink:href="#bt"/><use transform="matrix(0.07407407407407408,0,0,0.07407407407407408,59.11111111111111,0)" xlink:href="#bl"/><use transform="matrix(0.07407407407407408,0,0,0.07407407407407408,76.88888888888889,0)" xlink:href="#bk"/><use transform="matrix(0.07407407407407408,0,0,0.07407407407407408,97.62962962962962,0)" xlink:href="#bj"/><use transform="matrix(0.07407407407407408,0,0,0.07407407407407408,115.40740740740742,0)" xlink:href="#by"/></g><g id="k"><use transform="matrix(0.07407407407407408,0,0,0.07407407407407408,0,0)" xlink:href="#bj"/><use transform="matrix(0.07407407407407408,0,0,0.07407407407407408,17.77777777777778,0)" xlink:href="#bA"/><use transform="matrix(0.07407407407407408,0,0,0.07407407407407408,39.92592592592593,0)" xlink:href="#bl"/><use transform="matrix(0.07407407407407408,0,0,0.07407407407407408,57.70370370370371,0)" xlink:href="#bs"/><use transform="matrix(0.07407407407407408,0,0,0.07407407407407408,65.11111111111111,0)" xlink:href="#bi"/></g><path d="M137 0h-34L2-248h35l83 218 83-218h36" id="bB"/><g id="l"><use transform="matrix(0.07407407407407408,0,0,0.07407407407407408,0,0)" xlink:href="#bo"/><use transform="matrix(0.07407407407407408,0,0,0.07407407407407408,17.77777777777778,0)" xlink:href="#bp"/><use transform="matrix(0.07407407407407408,0,0,0.07407407407407408,36.96296296296296,0)" xlink:href="#bj"/><use transform="matrix(0.07407407407407408,0,0,0.07407407407407408,54.74074074074074,0)" xlink:href="#bB"/><use transform="matrix(0.07407407407407408,0,0,0.07407407407407408,72.51851851851852,0)" xlink:href="#bj"/><use transform="matrix(0.07407407407407408,0,0,0.07407407407407408,90.2962962962963,0)" xlink:href="#bt"/><use transform="matrix(0.07407407407407408,0,0,0.07407407407407408,109.4814814814815,0)" xlink:href="#br"/><use transform="matrix(0.07407407407407408,0,0,0.07407407407407408,125.70370370370372,0)" xlink:href="#bj"/><use transform="matrix(0.07407407407407408,0,0,0.07407407407407408,143.4814814814815,0)" xlink:href="#by"/><use transform="matrix(0.07407407407407408,0,0,0.07407407407407408,162.66666666666669,0)" xlink:href="#bz"/></g><path d="M59-47c-2 24 18 29 38 22v24C64 9 27 4 27-40v-127H5v-23h24l9-43h21v43h35v23H59v120" id="bC"/><path d="M141-36C126-15 110 5 73 4 37 3 15-17 15-53c-1-64 63-63 125-63 3-35-9-54-41-54-24 1-41 7-42 31l-33-3c5-37 33-52 76-52 45 0 72 20 72 64v82c-1 20 7 32 28 27v20c-31 9-61-2-59-35zM48-53c0 20 12 33 32 33 41-3 63-29 60-74-43 2-92-5-92 41" id="bD"/><path d="M96-169c-40 0-48 33-48 73s9 75 48 75c24 0 41-14 43-38l32 2c-6 37-31 61-74 61-59 0-76-41-82-99-10-93 101-131 147-64 4 7 5 14 7 22l-32 3c-4-21-16-35-41-35" id="bE"/><path d="M143 0L79-87 56-68V0H24v-261h32v163l83-92h37l-77 82L181 0h-38" id="bF"/><path d="M100-194c63 0 86 42 84 106H49c0 40 14 67 53 68 26 1 43-12 49-29l28 8c-11 28-37 45-77 45C44 4 14-33 15-96c1-61 26-98 85-98zm52 81c6-60-76-77-97-28-3 7-6 17-6 28h103" id="bG"/><path d="M114-163C36-179 61-72 57 0H25l-1-190h30c1 12-1 29 2 39 6-27 23-49 58-41v29" id="bH"/><g id="m"><use transform="matrix(0.07407407407407408,0,0,0.07407407407407408,0,0)" xlink:href="#bl"/><use transform="matrix(0.07407407407407408,0,0,0.07407407407407408,17.77777777777778,0)" xlink:href="#bC"/><use transform="matrix(0.07407407407407408,0,0,0.07407407407407408,25.185185185185187,0)" xlink:href="#bC"/><use transform="matrix(0.07407407407407408,0,0,0.07407407407407408,32.592592592592595,0)" xlink:href="#bD"/><use transform="matrix(0.07407407407407408,0,0,0.07407407407407408,47.40740740740741,0)" xlink:href="#bE"/><use transform="matrix(0.07407407407407408,0,0,0.07407407407407408,60.74074074074075,0)" xlink:href="#bF"/><use transform="matrix(0.07407407407407408,0,0,0.07407407407407408,74.07407407407408,0)" xlink:href="#bG"/><use transform="matrix(0.07407407407407408,0,0,0.07407407407407408,88.88888888888889,0)" xlink:href="#bH"/></g><path d="M135-143c-3-34-86-38-87 0 15 53 115 12 119 90S17 21 10-45l28-5c4 36 97 45 98 0-10-56-113-15-118-90-4-57 82-63 122-42 12 7 21 19 24 35" id="bI"/><path d="M117-194c89-4 53 116 60 194h-32v-121c0-31-8-49-39-48C34-167 62-67 57 0H25l-1-190h30c1 10-1 24 2 32 11-22 29-35 61-36" id="bJ"/><path d="M85-194c31 0 48 13 60 33l-1-100h32l1 261h-30c-2-10 0-23-3-31C134-8 116 4 85 4 32 4 16-35 15-94c0-66 23-100 70-100zm9 24c-40 0-46 34-46 75 0 40 6 74 45 74 42 0 51-32 51-76 0-42-9-74-50-73" id="bK"/><g id="n"><use transform="matrix(0.07407407407407408,0,0,0.07407407407407408,0,0)" xlink:href="#bI"/><use transform="matrix(0.07407407407407408,0,0,0.07407407407407408,13.333333333333336,0)" xlink:href="#bG"/><use transform="matrix(0.07407407407407408,0,0,0.07407407407407408,28.148148148148152,0)" xlink:href="#bJ"/><use transform="matrix(0.07407407407407408,0,0,0.07407407407407408,42.96296296296297,0)" xlink:href="#bK"/><use transform="matrix(0.07407407407407408,0,0,0.07407407407407408,57.777777777777786,0)" xlink:href="#bI"/></g><path d="M210-169c-67 3-38 105-44 169h-31v-121c0-29-5-50-35-48C34-165 62-65 56 0H25l-1-190h30c1 10-1 24 2 32 10-44 99-50 107 0 11-21 27-35 58-36 85-2 47 119 55 194h-31v-121c0-29-5-49-35-48" id="bL"/><path d="M24-231v-30h32v30H24zM24 0v-190h32V0H24" id="bM"/><path d="M24 0v-261h32V0H24" id="bN"/><g id="o"><use transform="matrix(0.07407407407407408,0,0,0.07407407407407408,0,0)" xlink:href="#bG"/><use transform="matrix(0.07407407407407408,0,0,0.07407407407407408,14.814814814814817,0)" xlink:href="#bL"/><use transform="matrix(0.07407407407407408,0,0,0.07407407407407408,36.96296296296297,0)" xlink:href="#bD"/><use transform="matrix(0.07407407407407408,0,0,0.07407407407407408,51.777777777777786,0)" xlink:href="#bM"/><use transform="matrix(0.07407407407407408,0,0,0.07407407407407408,57.62962962962964,0)" xlink:href="#bN"/></g><path d="M100-194c62-1 85 37 85 99 1 63-27 99-86 99S16-35 15-95c0-66 28-99 85-99zM99-20c44 1 53-31 53-75 0-43-8-75-51-75s-53 32-53 75 10 74 51 75" id="bO"/><path d="M177-190C167-65 218 103 67 71c-23-6-38-20-44-43l32-5c15 47 100 32 89-28v-30C133-14 115 1 83 1 29 1 15-40 15-95c0-56 16-97 71-98 29-1 48 16 59 35 1-10 0-23 2-32h30zM94-22c36 0 50-32 50-73 0-42-14-75-50-75-39 0-46 34-46 75s6 73 46 73" id="bP"/><g id="p"><use transform="matrix(0.07407407407407408,0,0,0.07407407407407408,0,0)" xlink:href="#bE"/><use transform="matrix(0.07407407407407408,0,0,0.07407407407407408,13.333333333333336,0)" xlink:href="#bO"/><use transform="matrix(0.07407407407407408,0,0,0.07407407407407408,28.148148148148152,0)" xlink:href="#bJ"/><use transform="matrix(0.07407407407407408,0,0,0.07407407407407408,42.96296296296297,0)" xlink:href="#bC"/><use transform="matrix(0.07407407407407408,0,0,0.07407407407407408,50.370370370370374,0)" xlink:href="#bD"/><use transform="matrix(0.07407407407407408,0,0,0.07407407407407408,65.18518518518519,0)" xlink:href="#bM"/><use transform="matrix(0.07407407407407408,0,0,0.07407407407407408,71.03703703703704,0)" xlink:href="#bJ"/><use transform="matrix(0.07407407407407408,0,0,0.07407407407407408,85.85185185185185,0)" xlink:href="#bM"/><use transform="matrix(0.07407407407407408,0,0,0.07407407407407408,91.7037037037037,0)" xlink:href="#bJ"/><use transform="matrix(0.07407407407407408,0,0,0.07407407407407408,106.5185185185185,0)" xlink:href="#bP"/></g><path d="M140-251c81 0 123 46 123 126C263-53 228-8 163 1c7 30 30 48 69 40v23c-55 16-95-15-103-61C56-3 17-48 17-125c0-80 42-126 123-126zm0 227c63 0 89-41 89-101s-29-99-89-99c-61 0-89 39-89 99S79-25 140-24" id="bQ"/><g id="q"><use transform="matrix(0.07407407407407408,0,0,0.07407407407407408,0,0)" xlink:href="#bQ"/><use transform="matrix(0.07407407407407408,0,0,0.07407407407407408,20.740740740740744,0)" xlink:href="#bp"/></g><g id="r"><use transform="matrix(0.07407407407407408,0,0,0.07407407407407408,0,0)" xlink:href="#bE"/><use transform="matrix(0.07407407407407408,0,0,0.07407407407407408,13.333333333333336,0)" xlink:href="#bO"/><use transform="matrix(0.07407407407407408,0,0,0.07407407407407408,28.148148148148152,0)" xlink:href="#bK"/><use transform="matrix(0.07407407407407408,0,0,0.07407407407407408,42.96296296296297,0)" xlink:href="#bG"/></g><g id="s"><use transform="matrix(0.07407407407407408,0,0,0.07407407407407408,0,0)" xlink:href="#bM"/><use transform="matrix(0.07407407407407408,0,0,0.07407407407407408,5.851851851851853,0)" xlink:href="#bL"/><use transform="matrix(0.07407407407407408,0,0,0.07407407407407408,28.000000000000007,0)" xlink:href="#bD"/><use transform="matrix(0.07407407407407408,0,0,0.07407407407407408,42.814814814814824,0)" xlink:href="#bP"/><use transform="matrix(0.07407407407407408,0,0,0.07407407407407408,57.62962962962964,0)" xlink:href="#bG"/></g><path d="M68-38c1 34 0 65-14 84H32c9-13 17-26 17-46H33v-38h35" id="bR"/><g id="t"><use transform="matrix(0.07407407407407408,0,0,0.07407407407407408,0,0)" xlink:href="#bu"/><use transform="matrix(0.07407407407407408,0,0,0.07407407407407408,8.814814814814817,0)" xlink:href="#bN"/><use transform="matrix(0.07407407407407408,0,0,0.07407407407407408,14.666666666666668,0)" xlink:href="#bO"/><use transform="matrix(0.07407407407407408,0,0,0.07407407407407408,29.481481481481488,0)" xlink:href="#bP"/><use transform="matrix(0.07407407407407408,0,0,0.07407407407407408,44.296296296296305,0)" xlink:href="#bM"/><use transform="matrix(0.07407407407407408,0,0,0.07407407407407408,50.14814814814817,0)" xlink:href="#bJ"/><use transform="matrix(0.07407407407407408,0,0,0.07407407407407408,64.96296296296298,0)" xlink:href="#bR"/></g><path d="M63-220v92h138v28H63V0H30v-248h175v28H63" id="bS"/><g id="u"><use transform="matrix(0.07407407407407408,0,0,0.07407407407407408,0,0)" xlink:href="#bA"/><use transform="matrix(0.07407407407407408,0,0,0.07407407407407408,22.148148148148152,0)" xlink:href="#bS"/><use transform="matrix(0.07407407407407408,0,0,0.07407407407407408,36.8888888888889,0)" xlink:href="#bl"/></g><g id="v"><use transform="matrix(0.07407407407407408,0,0,0.07407407407407408,0,0)" xlink:href="#bH"/><use transform="matrix(0.07407407407407408,0,0,0.07407407407407408,8.814814814814817,0)" xlink:href="#bG"/><use transform="matrix(0.07407407407407408,0,0,0.07407407407407408,23.629629629629633,0)" xlink:href="#bI"/><use transform="matrix(0.07407407407407408,0,0,0.07407407407407408,36.96296296296297,0)" xlink:href="#bG"/><use transform="matrix(0.07407407407407408,0,0,0.07407407407407408,51.777777777777786,0)" xlink:href="#bC"/><use transform="matrix(0.07407407407407408,0,0,0.07407407407407408,59.18518518518519,0)" xlink:href="#bR"/></g><path d="M115-194c55 1 70 41 70 98S169 2 115 4C84 4 66-9 55-30l1 105H24l-1-265h31l2 30c10-21 28-34 59-34zm-8 174c40 0 45-34 45-75s-6-73-45-74c-42 0-51 32-51 76 0 43 10 73 51 73" id="bT"/><g id="w"><use transform="matrix(0.07407407407407408,0,0,0.07407407407407408,0,0)" xlink:href="#bT"/><use transform="matrix(0.07407407407407408,0,0,0.07407407407407408,14.814814814814817,0)" xlink:href="#bD"/><use transform="matrix(0.07407407407407408,0,0,0.07407407407407408,29.629629629629633,0)" xlink:href="#bE"/><use transform="matrix(0.07407407407407408,0,0,0.07407407407407408,42.96296296296297,0)" xlink:href="#bF"/><use transform="matrix(0.07407407407407408,0,0,0.07407407407407408,56.296296296296305,0)" xlink:href="#bD"/><use transform="matrix(0.07407407407407408,0,0,0.07407407407407408,71.11111111111111,0)" xlink:href="#bP"/><use transform="matrix(0.07407407407407408,0,0,0.07407407407407408,85.92592592592592,0)" xlink:href="#bG"/></g><path d="M84 4C-5 8 30-112 23-190h32v120c0 31 7 50 39 49 72-2 45-101 50-169h31l1 190h-30c-1-10 1-25-2-33-11 22-28 36-60 37" id="bU"/><g id="x"><use transform="matrix(0.07407407407407408,0,0,0.07407407407407408,0,0)" xlink:href="#bT"/><use transform="matrix(0.07407407407407408,0,0,0.07407407407407408,14.814814814814817,0)" xlink:href="#bM"/><use transform="matrix(0.07407407407407408,0,0,0.07407407407407408,20.666666666666668,0)" xlink:href="#bE"/><use transform="matrix(0.07407407407407408,0,0,0.07407407407407408,34.00000000000001,0)" xlink:href="#bF"/><use transform="matrix(0.07407407407407408,0,0,0.07407407407407408,47.33333333333334,0)" xlink:href="#bU"/><use transform="matrix(0.07407407407407408,0,0,0.07407407407407408,62.14814814814816,0)" xlink:href="#bT"/><use transform="matrix(0.07407407407407408,0,0,0.07407407407407408,76.96296296296298,0)" xlink:href="#bR"/></g><path d="M33 0v-38h34V0H33" id="bV"/><g id="y"><use transform="matrix(0.07407407407407408,0,0,0.07407407407407408,0,0)" xlink:href="#bG"/><use transform="matrix(0.07407407407407408,0,0,0.07407407407407408,14.814814814814817,0)" xlink:href="#bC"/><use transform="matrix(0.07407407407407408,0,0,0.07407407407407408,22.222222222222225,0)" xlink:href="#bE"/><use transform="matrix(0.07407407407407408,0,0,0.07407407407407408,35.55555555555556,0)" xlink:href="#bV"/><use transform="matrix(0.07407407407407408,0,0,0.07407407407407408,42.96296296296296,0)" xlink:href="#bz"/></g><g id="z"><use transform="matrix(0.07407407407407408,0,0,0.07407407407407408,0,0)" xlink:href="#bS"/><use transform="matrix(0.07407407407407408,0,0,0.07407407407407408,16.222222222222225,0)" xlink:href="#bM"/><use transform="matrix(0.07407407407407408,0,0,0.07407407407407408,22.074074074074076,0)" xlink:href="#bN"/><use transform="matrix(0.07407407407407408,0,0,0.07407407407407408,27.92592592592593,0)" xlink:href="#bC"/><use transform="matrix(0.07407407407407408,0,0,0.07407407407407408,35.33333333333334,0)" xlink:href="#bG"/><use transform="matrix(0.07407407407407408,0,0,0.07407407407407408,50.14814814814817,0)" xlink:href="#bH"/><use transform="matrix(0.07407407407407408,0,0,0.07407407407407408,58.962962962962976,0)" xlink:href="#bI"/></g><g id="A"><use transform="matrix(0.07407407407407408,0,0,0.07407407407407408,0,0)" xlink:href="#bK"/><use transform="matrix(0.07407407407407408,0,0,0.07407407407407408,14.814814814814817,0)" xlink:href="#bO"/></g><g id="B"><use transform="matrix(0.07407407407407408,0,0,0.07407407407407408,0,0)" xlink:href="#bJ"/><use transform="matrix(0.07407407407407408,0,0,0.07407407407407408,14.814814814814817,0)" xlink:href="#bO"/><use transform="matrix(0.07407407407407408,0,0,0.07407407407407408,29.629629629629633,0)" xlink:href="#bC"/></g><g id="C"><use transform="matrix(0.07407407407407408,0,0,0.07407407407407408,0,0)" xlink:href="#bM"/><use transform="matrix(0.07407407407407408,0,0,0.07407407407407408,5.851851851851853,0)" xlink:href="#bJ"/><use transform="matrix(0.07407407407407408,0,0,0.07407407407407408,20.666666666666668,0)" xlink:href="#bI"/><use transform="matrix(0.07407407407407408,0,0,0.07407407407407408,34.00000000000001,0)" xlink:href="#bT"/><use transform="matrix(0.07407407407407408,0,0,0.07407407407407408,48.814814814814824,0)" xlink:href="#bG"/><use transform="matrix(0.07407407407407408,0,0,0.07407407407407408,63.62962962962964,0)" xlink:href="#bE"/><use transform="matrix(0.07407407407407408,0,0,0.07407407407407408,76.96296296296298,0)" xlink:href="#bC"/></g><g id="D"><use transform="matrix(0.07407407407407408,0,0,0.07407407407407408,0,0)" xlink:href="#bE"/><use transform="matrix(0.07407407407407408,0,0,0.07407407407407408,13.333333333333336,0)" xlink:href="#bO"/><use transform="matrix(0.07407407407407408,0,0,0.07407407407407408,28.148148148148152,0)" xlink:href="#bK"/><use transform="matrix(0.07407407407407408,0,0,0.07407407407407408,42.96296296296297,0)" xlink:href="#bG"/><use transform="matrix(0.07407407407407408,0,0,0.07407407407407408,57.777777777777786,0)" xlink:href="#bI"/></g><path d="M16-82v-28h88v28H16" id="bW"/><path d="M18-27v-27l151-64-151-65v-27l175 74v36" id="bX"/><g id="E"><use transform="matrix(0.07407407407407408,0,0,0.07407407407407408,0,0)" xlink:href="#bW"/><use transform="matrix(0.07407407407407408,0,0,0.07407407407407408,8.814814814814817,0)" xlink:href="#bW"/><use transform="matrix(0.07407407407407408,0,0,0.07407407407407408,17.629629629629633,0)" xlink:href="#bX"/></g><path d="M108 0H70L1-190h34L89-25l56-165h34" id="bY"/><g id="F"><use transform="matrix(0.07407407407407408,0,0,0.07407407407407408,0,0)" xlink:href="#bK"/><use transform="matrix(0.07407407407407408,0,0,0.07407407407407408,14.814814814814817,0)" xlink:href="#bG"/><use transform="matrix(0.07407407407407408,0,0,0.07407407407407408,29.629629629629633,0)" xlink:href="#bN"/><use transform="matrix(0.07407407407407408,0,0,0.07407407407407408,35.48148148148149,0)" xlink:href="#bM"/><use transform="matrix(0.07407407407407408,0,0,0.07407407407407408,41.333333333333336,0)" xlink:href="#bY"/><use transform="matrix(0.07407407407407408,0,0,0.07407407407407408,54.666666666666686,0)" xlink:href="#bG"/><use transform="matrix(0.07407407407407408,0,0,0.07407407407407408,69.4814814814815,0)" xlink:href="#bH"/><use transform="matrix(0.07407407407407408,0,0,0.07407407407407408,78.2962962962963,0)" xlink:href="#bG"/><use transform="matrix(0.07407407407407408,0,0,0.07407407407407408,93.1111111111111,0)" xlink:href="#bK"/></g><g id="G"><use transform="matrix(0.07407407407407408,0,0,0.07407407407407408,0,0)" xlink:href="#bx"/><use transform="matrix(0.07407407407407408,0,0,0.07407407407407408,19.185185185185187,0)" xlink:href="#bI"/><use transform="matrix(0.07407407407407408,0,0,0.07407407407407408,32.51851851851852,0)" xlink:href="#bG"/><use transform="matrix(0.07407407407407408,0,0,0.07407407407407408,47.33333333333334,0)" xlink:href="#bH"/></g><g id="H"><use transform="matrix(0.07407407407407408,0,0,0.07407407407407408,0,0)" xlink:href="#bI"/><use transform="matrix(0.07407407407407408,0,0,0.07407407407407408,13.333333333333336,0)" xlink:href="#bE"/><use transform="matrix(0.07407407407407408,0,0,0.07407407407407408,26.66666666666667,0)" xlink:href="#bD"/><use transform="matrix(0.07407407407407408,0,0,0.07407407407407408,41.48148148148149,0)" xlink:href="#bJ"/><use transform="matrix(0.07407407407407408,0,0,0.07407407407407408,56.296296296296305,0)" xlink:href="#bI"/></g><g id="I"><use transform="matrix(0.07407407407407408,0,0,0.07407407407407408,0,0)" xlink:href="#bQ"/><use transform="matrix(0.07407407407407408,0,0,0.07407407407407408,20.740740740740744,0)" xlink:href="#bp"/></g><g id="J"><use transform="matrix(0.07407407407407408,0,0,0.07407407407407408,0,0)" xlink:href="#bE"/><use transform="matrix(0.07407407407407408,0,0,0.07407407407407408,13.333333333333336,0)" xlink:href="#bO"/><use transform="matrix(0.07407407407407408,0,0,0.07407407407407408,28.148148148148152,0)" xlink:href="#bK"/><use transform="matrix(0.07407407407407408,0,0,0.07407407407407408,42.96296296296297,0)" xlink:href="#bG"/></g><path d="M206 0h-36l-40-164L89 0H53L-1-190h32L70-26l43-164h34l41 164 42-164h31" id="bZ"/><path d="M106-169C34-169 62-67 57 0H25v-261h32l-1 103c12-21 28-36 61-36 89 0 53 116 60 194h-32v-121c2-32-8-49-39-48" id="ca"/><g id="K"><use transform="matrix(0.07407407407407408,0,0,0.07407407407407408,0,0)" xlink:href="#bZ"/><use transform="matrix(0.07407407407407408,0,0,0.07407407407407408,19.185185185185187,0)" xlink:href="#bM"/><use transform="matrix(0.07407407407407408,0,0,0.07407407407407408,25.037037037037035,0)" xlink:href="#bC"/><use transform="matrix(0.07407407407407408,0,0,0.07407407407407408,32.44444444444444,0)" xlink:href="#ca"/></g><g id="L"><use transform="matrix(0.07407407407407408,0,0,0.07407407407407408,0,0)" xlink:href="#bT"/><use transform="matrix(0.07407407407407408,0,0,0.07407407407407408,14.814814814814817,0)" xlink:href="#ca"/><use transform="matrix(0.07407407407407408,0,0,0.07407407407407408,29.629629629629633,0)" xlink:href="#bO"/><use transform="matrix(0.07407407407407408,0,0,0.07407407407407408,44.44444444444445,0)" xlink:href="#bJ"/><use transform="matrix(0.07407407407407408,0,0,0.07407407407407408,59.25925925925927,0)" xlink:href="#bG"/></g><g id="M"><use transform="matrix(0.07407407407407408,0,0,0.07407407407407408,0,0)" xlink:href="#bQ"/><use transform="matrix(0.07407407407407408,0,0,0.07407407407407408,20.740740740740744,0)" xlink:href="#bp"/></g><g id="N"><use transform="matrix(0.07407407407407408,0,0,0.07407407407407408,0,0)" xlink:href="#bH"/><use transform="matrix(0.07407407407407408,0,0,0.07407407407407408,8.814814814814817,0)" xlink:href="#bG"/><use transform="matrix(0.07407407407407408,0,0,0.07407407407407408,23.629629629629633,0)" xlink:href="#bK"/><use transform="matrix(0.07407407407407408,0,0,0.07407407407407408,38.44444444444445,0)" xlink:href="#bM"/><use transform="matrix(0.07407407407407408,0,0,0.07407407407407408,44.296296296296305,0)" xlink:href="#bH"/><use transform="matrix(0.07407407407407408,0,0,0.07407407407407408,53.11111111111112,0)" xlink:href="#bG"/><use transform="matrix(0.07407407407407408,0,0,0.07407407407407408,67.92592592592594,0)" xlink:href="#bE"/><use transform="matrix(0.07407407407407408,0,0,0.07407407407407408,81.25925925925927,0)" xlink:href="#bC"/><use transform="matrix(0.07407407407407408,0,0,0.07407407407407408,88.66666666666667,0)" xlink:href="#bI"/></g><g id="O"><use transform="matrix(0.07407407407407408,0,0,0.07407407407407408,0,0)" xlink:href="#bC"/><use transform="matrix(0.07407407407407408,0,0,0.07407407407407408,7.407407407407408,0)" xlink:href="#bO"/></g><g id="P"><use transform="matrix(0.07407407407407408,0,0,0.07407407407407408,0,0)" xlink:href="#bE"/><use transform="matrix(0.07407407407407408,0,0,0.07407407407407408,13.333333333333336,0)" xlink:href="#bH"/><use transform="matrix(0.07407407407407408,0,0,0.07407407407407408,22.148148148148152,0)" xlink:href="#bG"/><use transform="matrix(0.07407407407407408,0,0,0.07407407407407408,36.96296296296297,0)" xlink:href="#bK"/><use transform="matrix(0.07407407407407408,0,0,0.07407407407407408,51.777777777777786,0)" xlink:href="#bG"/><use transform="matrix(0.07407407407407408,0,0,0.07407407407407408,66.59259259259261,0)" xlink:href="#bJ"/><use transform="matrix(0.07407407407407408,0,0,0.07407407407407408,81.40740740740742,0)" xlink:href="#bC"/><use transform="matrix(0.07407407407407408,0,0,0.07407407407407408,88.81481481481482,0)" xlink:href="#bM"/><use transform="matrix(0.07407407407407408,0,0,0.07407407407407408,94.66666666666669,0)" xlink:href="#bD"/><use transform="matrix(0.07407407407407408,0,0,0.07407407407407408,109.4814814814815,0)" xlink:href="#bN"/><use transform="matrix(0.07407407407407408,0,0,0.07407407407407408,115.33333333333334,0)" xlink:href="#bW"/><use transform="matrix(0.07407407407407408,0,0,0.07407407407407408,124.14814814814815,0)" xlink:href="#bI"/><use transform="matrix(0.07407407407407408,0,0,0.07407407407407408,137.4814814814815,0)" xlink:href="#bC"/><use transform="matrix(0.07407407407407408,0,0,0.07407407407407408,144.8888888888889,0)" xlink:href="#bG"/><use transform="matrix(0.07407407407407408,0,0,0.07407407407407408,159.70370370370372,0)" xlink:href="#bD"/><use transform="matrix(0.07407407407407408,0,0,0.07407407407407408,174.51851851851853,0)" xlink:href="#bN"/><use transform="matrix(0.07407407407407408,0,0,0.07407407407407408,180.37037037037038,0)" xlink:href="#bM"/><use transform="matrix(0.07407407407407408,0,0,0.07407407407407408,186.2222222222222,0)" xlink:href="#bJ"/><use transform="matrix(0.07407407407407408,0,0,0.07407407407407408,201.03703703703704,0)" xlink:href="#bP"/></g><g id="Q"><use transform="matrix(0.07407407407407408,0,0,0.07407407407407408,0,0)" xlink:href="#bI"/><use transform="matrix(0.07407407407407408,0,0,0.07407407407407408,13.333333333333336,0)" xlink:href="#bM"/><use transform="matrix(0.07407407407407408,0,0,0.07407407407407408,19.18518518518519,0)" xlink:href="#bC"/><use transform="matrix(0.07407407407407408,0,0,0.07407407407407408,26.5925925925926,0)" xlink:href="#bG"/></g><g id="R"><use transform="matrix(0.07407407407407408,0,0,0.07407407407407408,0,0)" xlink:href="#bw"/><use transform="matrix(0.07407407407407408,0,0,0.07407407407407408,17.77777777777778,0)" xlink:href="#bq"/><use transform="matrix(0.07407407407407408,0,0,0.07407407407407408,38.51851851851851,0)" xlink:href="#bm"/></g><g id="S"><use transform="matrix(0.07407407407407408,0,0,0.07407407407407408,0,0)" xlink:href="#bI"/><use transform="matrix(0.07407407407407408,0,0,0.07407407407407408,13.333333333333336,0)" xlink:href="#bG"/><use transform="matrix(0.07407407407407408,0,0,0.07407407407407408,28.148148148148152,0)" xlink:href="#bG"/><use transform="matrix(0.07407407407407408,0,0,0.07407407407407408,42.96296296296297,0)" xlink:href="#bI"/></g><g id="T"><use transform="matrix(0.07407407407407408,0,0,0.07407407407407408,0,0)" xlink:href="#bI"/><use transform="matrix(0.07407407407407408,0,0,0.07407407407407408,13.333333333333336,0)" xlink:href="#bU"/><use transform="matrix(0.07407407407407408,0,0,0.07407407407407408,28.148148148148152,0)" xlink:href="#bI"/><use transform="matrix(0.07407407407407408,0,0,0.07407407407407408,41.48148148148149,0)" xlink:href="#bT"/><use transform="matrix(0.07407407407407408,0,0,0.07407407407407408,56.296296296296305,0)" xlink:href="#bM"/><use transform="matrix(0.07407407407407408,0,0,0.07407407407407408,62.14814814814816,0)" xlink:href="#bE"/><use transform="matrix(0.07407407407407408,0,0,0.07407407407407408,75.4814814814815,0)" xlink:href="#bM"/><use transform="matrix(0.07407407407407408,0,0,0.07407407407407408,81.33333333333334,0)" xlink:href="#bO"/><use transform="matrix(0.07407407407407408,0,0,0.07407407407407408,96.14814814814814,0)" xlink:href="#bU"/><use transform="matrix(0.07407407407407408,0,0,0.07407407407407408,110.96296296296296,0)" xlink:href="#bI"/></g><g id="U"><use transform="matrix(0.07407407407407408,0,0,0.07407407407407408,0,0)" xlink:href="#bN"/><use transform="matrix(0.07407407407407408,0,0,0.07407407407407408,5.851851851851853,0)" xlink:href="#bO"/><use transform="matrix(0.07407407407407408,0,0,0.07407407407407408,20.666666666666668,0)" xlink:href="#bP"/><use transform="matrix(0.07407407407407408,0,0,0.07407407407407408,35.48148148148149,0)" xlink:href="#bM"/><use transform="matrix(0.07407407407407408,0,0,0.07407407407407408,41.333333333333336,0)" xlink:href="#bJ"/></g><g id="V"><use transform="matrix(0.07407407407407408,0,0,0.07407407407407408,0,0)" xlink:href="#bD"/><use transform="matrix(0.07407407407407408,0,0,0.07407407407407408,14.814814814814817,0)" xlink:href="#bC"/><use transform="matrix(0.07407407407407408,0,0,0.07407407407407408,22.222222222222225,0)" xlink:href="#bC"/><use transform="matrix(0.07407407407407408,0,0,0.07407407407407408,29.629629629629633,0)" xlink:href="#bG"/><use transform="matrix(0.07407407407407408,0,0,0.07407407407407408,44.44444444444445,0)" xlink:href="#bL"/><use transform="matrix(0.07407407407407408,0,0,0.07407407407407408,66.59259259259261,0)" xlink:href="#bT"/><use transform="matrix(0.07407407407407408,0,0,0.07407407407407408,81.40740740740742,0)" xlink:href="#bC"/><use transform="matrix(0.07407407407407408,0,0,0.07407407407407408,88.81481481481482,0)" xlink:href="#bI"/></g><path d="M101-234c-31-9-42 10-38 44h38v23H63V0H32v-167H5v-23h27c-7-52 17-82 69-68v24" id="cb"/><g id="W"><use transform="matrix(0.07407407407407408,0,0,0.07407407407407408,0,0)" xlink:href="#bD"/><use transform="matrix(0.07407407407407408,0,0,0.07407407407407408,14.814814814814817,0)" xlink:href="#cb"/><use transform="matrix(0.07407407407407408,0,0,0.07407407407407408,22.222222222222225,0)" xlink:href="#bC"/><use transform="matrix(0.07407407407407408,0,0,0.07407407407407408,29.629629629629633,0)" xlink:href="#bG"/><use transform="matrix(0.07407407407407408,0,0,0.07407407407407408,44.44444444444445,0)" xlink:href="#bH"/></g><g id="X"><use transform="matrix(0.07407407407407408,0,0,0.07407407407407408,0,0)" xlink:href="#bC"/><use transform="matrix(0.07407407407407408,0,0,0.07407407407407408,7.407407407407408,0)" xlink:href="#ca"/><use transform="matrix(0.07407407407407408,0,0,0.07407407407407408,22.222222222222225,0)" xlink:href="#bG"/></g><g id="Y"><use transform="matrix(0.07407407407407408,0,0,0.07407407407407408,0,0)" xlink:href="#cb"/><use transform="matrix(0.07407407407407408,0,0,0.07407407407407408,7.407407407407408,0)" xlink:href="#bD"/><use transform="matrix(0.07407407407407408,0,0,0.07407407407407408,22.222222222222225,0)" xlink:href="#bE"/><use transform="matrix(0.07407407407407408,0,0,0.07407407407407408,35.55555555555556,0)" xlink:href="#bC"/></g><g id="Z"><use transform="matrix(0.07407407407407408,0,0,0.07407407407407408,0,0)" xlink:href="#bl"/><use transform="matrix(0.07407407407407408,0,0,0.07407407407407408,17.77777777777778,0)" xlink:href="#bE"/><use transform="matrix(0.07407407407407408,0,0,0.07407407407407408,31.111111111111114,0)" xlink:href="#bE"/><use transform="matrix(0.07407407407407408,0,0,0.07407407407407408,44.44444444444445,0)" xlink:href="#bO"/><use transform="matrix(0.07407407407407408,0,0,0.07407407407407408,59.25925925925927,0)" xlink:href="#bU"/><use transform="matrix(0.07407407407407408,0,0,0.07407407407407408,74.07407407407408,0)" xlink:href="#bJ"/><use transform="matrix(0.07407407407407408,0,0,0.07407407407407408,88.88888888888889,0)" xlink:href="#bC"/></g><g id="aa"><use transform="matrix(0.07407407407407408,0,0,0.07407407407407408,0,0)" xlink:href="#bE"/><use transform="matrix(0.07407407407407408,0,0,0.07407407407407408,13.333333333333336,0)" xlink:href="#bO"/><use transform="matrix(0.07407407407407408,0,0,0.07407407407407408,28.148148148148152,0)" xlink:href="#bL"/><use transform="matrix(0.07407407407407408,0,0,0.07407407407407408,50.296296296296305,0)" xlink:href="#bT"/><use transform="matrix(0.07407407407407408,0,0,0.07407407407407408,65.11111111111111,0)" xlink:href="#bH"/><use transform="matrix(0.07407407407407408,0,0,0.07407407407407408,73.92592592592592,0)" xlink:href="#bO"/><use transform="matrix(0.07407407407407408,0,0,0.07407407407407408,88.74074074074073,0)" xlink:href="#bL"/><use transform="matrix(0.07407407407407408,0,0,0.07407407407407408,110.88888888888889,0)" xlink:href="#bM"/><use transform="matrix(0.07407407407407408,0,0,0.07407407407407408,116.74074074074073,0)" xlink:href="#bI"/><use transform="matrix(0.07407407407407408,0,0,0.07407407407407408,130.07407407407408,0)" xlink:href="#bG"/></g><path d="M0 4l72-265h28L28 4H0" id="cc"/><use transform="matrix(0.07407407407407408,0,0,0.07407407407407408,0,0)" xlink:href="#cc" id="ab"/><path d="M9 0v-24l116-142H16v-24h144v24L44-24h123V0H9" id="cd"/><g id="ac"><use transform="matrix(0.07407407407407408,0,0,0.07407407407407408,0,0)" xlink:href="#bU"/><use transform="matrix(0.07407407407407408,0,0,0.07407407407407408,14.814814814814817,0)" xlink:href="#bJ"/><use transform="matrix(0.07407407407407408,0,0,0.07407407407407408,29.629629629629633,0)" xlink:href="#bD"/><use transform="matrix(0.07407407407407408,0,0,0.07407407407407408,44.44444444444445,0)" xlink:href="#bU"/><use transform="matrix(0.07407407407407408,0,0,0.07407407407407408,59.25925925925927,0)" xlink:href="#bC"/><use transform="matrix(0.07407407407407408,0,0,0.07407407407407408,66.66666666666667,0)" xlink:href="#ca"/><use transform="matrix(0.07407407407407408,0,0,0.07407407407407408,81.4814814814815,0)" xlink:href="#bO"/><use transform="matrix(0.07407407407407408,0,0,0.07407407407407408,96.2962962962963,0)" xlink:href="#bH"/><use transform="matrix(0.07407407407407408,0,0,0.07407407407407408,105.11111111111111,0)" xlink:href="#bM"/><use transform="matrix(0.07407407407407408,0,0,0.07407407407407408,110.96296296296296,0)" xlink:href="#cd"/><use transform="matrix(0.07407407407407408,0,0,0.07407407407407408,124.29629629629632,0)" xlink:href="#bG"/><use transform="matrix(0.07407407407407408,0,0,0.07407407407407408,139.11111111111111,0)" xlink:href="#bK"/></g><g id="ad"><use transform="matrix(0.07407407407407408,0,0,0.07407407407407408,0,0)" xlink:href="#bD"/><use transform="matrix(0.07407407407407408,0,0,0.07407407407407408,14.814814814814817,0)" xlink:href="#bE"/><use transform="matrix(0.07407407407407408,0,0,0.07407407407407408,28.148148148148152,0)" xlink:href="#bE"/><use transform="matrix(0.07407407407407408,0,0,0.07407407407407408,41.48148148148149,0)" xlink:href="#bG"/><use transform="matrix(0.07407407407407408,0,0,0.07407407407407408,56.296296296296305,0)" xlink:href="#bI"/><use transform="matrix(0.07407407407407408,0,0,0.07407407407407408,69.62962962962965,0)" xlink:href="#bI"/></g><g id="ae"><use transform="matrix(0.07407407407407408,0,0,0.07407407407407408,0,0)" xlink:href="#ca"/><use transform="matrix(0.07407407407407408,0,0,0.07407407407407408,14.814814814814817,0)" xlink:href="#bD"/><use transform="matrix(0.07407407407407408,0,0,0.07407407407407408,29.629629629629633,0)" xlink:href="#bI"/></g><g id="af"><use transform="matrix(0.07407407407407408,0,0,0.07407407407407408,0,0)" xlink:href="#bH"/><use transform="matrix(0.07407407407407408,0,0,0.07407407407407408,8.814814814814817,0)" xlink:href="#bG"/><use transform="matrix(0.07407407407407408,0,0,0.07407407407407408,23.629629629629633,0)" xlink:href="#bD"/><use transform="matrix(0.07407407407407408,0,0,0.07407407407407408,38.44444444444445,0)" xlink:href="#bN"/><use transform="matrix(0.07407407407407408,0,0,0.07407407407407408,44.296296296296305,0)" xlink:href="#bM"/><use transform="matrix(0.07407407407407408,0,0,0.07407407407407408,50.14814814814817,0)" xlink:href="#cd"/><use transform="matrix(0.07407407407407408,0,0,0.07407407407407408,63.481481481481495,0)" xlink:href="#bG"/><use transform="matrix(0.07407407407407408,0,0,0.07407407407407408,78.2962962962963,0)" xlink:href="#bK"/></g><g id="ag"><use transform="matrix(0.07407407407407408,0,0,0.07407407407407408,0,0)" xlink:href="#bj"/><use transform="matrix(0.07407407407407408,0,0,0.07407407407407408,17.77777777777778,0)" xlink:href="#bL"/><use transform="matrix(0.07407407407407408,0,0,0.07407407407407408,39.92592592592593,0)" xlink:href="#bD"/><use transform="matrix(0.07407407407407408,0,0,0.07407407407407408,54.74074074074075,0)" xlink:href="#bM"/><use transform="matrix(0.07407407407407408,0,0,0.07407407407407408,60.5925925925926,0)" xlink:href="#bN"/></g><g id="ah"><use transform="matrix(0.07407407407407408,0,0,0.07407407407407408,0,0)" xlink:href="#bE"/><use transform="matrix(0.07407407407407408,0,0,0.07407407407407408,13.333333333333336,0)" xlink:href="#bO"/><use transform="matrix(0.07407407407407408,0,0,0.07407407407407408,28.148148148148152,0)" xlink:href="#bJ"/><use transform="matrix(0.07407407407407408,0,0,0.07407407407407408,42.96296296296297,0)" xlink:href="#bC"/><use transform="matrix(0.07407407407407408,0,0,0.07407407407407408,50.370370370370374,0)" xlink:href="#bG"/><use transform="matrix(0.07407407407407408,0,0,0.07407407407407408,65.18518518518519,0)" xlink:href="#bJ"/><use transform="matrix(0.07407407407407408,0,0,0.07407407407407408,80,0)" xlink:href="#bC"/></g><path d="M118-107v75H92v-75H18v-26h74v-75h26v75h74v26h-74" id="ce"/><use transform="matrix(0.07407407407407408,0,0,0.07407407407407408,0,0)" xlink:href="#ce" id="ai"/><g id="aj"><use transform="matrix(0.07407407407407408,0,0,0.07407407407407408,0,0)" xlink:href="#bM"/><use transform="matrix(0.07407407407407408,0,0,0.07407407407407408,5.851851851851853,0)" xlink:href="#bL"/><use transform="matrix(0.07407407407407408,0,0,0.07407407407407408,28.000000000000007,0)" xlink:href="#bD"/><use transform="matrix(0.07407407407407408,0,0,0.07407407407407408,42.814814814814824,0)" xlink:href="#bP"/><use transform="matrix(0.07407407407407408,0,0,0.07407407407407408,57.62962962962964,0)" xlink:href="#bG"/></g><path d="M179-190L93 31C79 59 56 82 12 73V49c39 6 53-20 64-50L1-190h34L92-34l54-156h33" id="cf"/><g id="ak"><use transform="matrix(0.07407407407407408,0,0,0.07407407407407408,0,0)" xlink:href="#bD"/><use transform="matrix(0.07407407407407408,0,0,0.07407407407407408,14.814814814814817,0)" xlink:href="#bJ"/><use transform="matrix(0.07407407407407408,0,0,0.07407407407407408,29.629629629629633,0)" xlink:href="#bD"/><use transform="matrix(0.07407407407407408,0,0,0.07407407407407408,44.44444444444445,0)" xlink:href="#bN"/><use transform="matrix(0.07407407407407408,0,0,0.07407407407407408,50.296296296296305,0)" xlink:href="#cf"/><use transform="matrix(0.07407407407407408,0,0,0.07407407407407408,63.62962962962964,0)" xlink:href="#cd"/><use transform="matrix(0.07407407407407408,0,0,0.07407407407407408,76.96296296296298,0)" xlink:href="#bG"/><use transform="matrix(0.07407407407407408,0,0,0.07407407407407408,91.7777777777778,0)" xlink:href="#bK"/></g><g id="al"><use transform="matrix(0.07407407407407408,0,0,0.07407407407407408,0,0)" xlink:href="#cb"/><use transform="matrix(0.07407407407407408,0,0,0.07407407407407408,7.407407407407408,0)" xlink:href="#bO"/><use transform="matrix(0.07407407407407408,0,0,0.07407407407407408,22.222222222222225,0)" xlink:href="#bH"/></g><g id="am"><use transform="matrix(0.07407407407407408,0,0,0.07407407407407408,0,0)" xlink:href="#ca"/><use transform="matrix(0.07407407407407408,0,0,0.07407407407407408,14.814814814814817,0)" xlink:href="#bM"/><use transform="matrix(0.07407407407407408,0,0,0.07407407407407408,20.666666666666668,0)" xlink:href="#bK"/><use transform="matrix(0.07407407407407408,0,0,0.07407407407407408,35.48148148148149,0)" xlink:href="#bK"/><use transform="matrix(0.07407407407407408,0,0,0.07407407407407408,50.296296296296305,0)" xlink:href="#bG"/><use transform="matrix(0.07407407407407408,0,0,0.07407407407407408,65.11111111111111,0)" xlink:href="#bJ"/></g><g id="an"><use transform="matrix(0.07407407407407408,0,0,0.07407407407407408,0,0)" xlink:href="#bx"/><use transform="matrix(0.07407407407407408,0,0,0.07407407407407408,19.185185185185187,0)" xlink:href="#bp"/><use transform="matrix(0.07407407407407408,0,0,0.07407407407407408,38.370370370370374,0)" xlink:href="#bi"/><use transform="matrix(0.07407407407407408,0,0,0.07407407407407408,53.18518518518519,0)" xlink:href="#bI"/></g><use transform="matrix(0.07407407407407408,0,0,0.07407407407407408,0,0)" xlink:href="#cc" id="ao"/><g id="ap"><use transform="matrix(0.07407407407407408,0,0,0.07407407407407408,0,0)" xlink:href="#bT"/><use transform="matrix(0.07407407407407408,0,0,0.07407407407407408,14.814814814814817,0)" xlink:href="#bD"/><use transform="matrix(0.07407407407407408,0,0,0.07407407407407408,29.629629629629633,0)" xlink:href="#bC"/><use transform="matrix(0.07407407407407408,0,0,0.07407407407407408,37.03703703703704,0)" xlink:href="#bC"/><use transform="matrix(0.07407407407407408,0,0,0.07407407407407408,44.44444444444444,0)" xlink:href="#bG"/><use transform="matrix(0.07407407407407408,0,0,0.07407407407407408,59.25925925925926,0)" xlink:href="#bH"/><use transform="matrix(0.07407407407407408,0,0,0.07407407407407408,68.07407407407408,0)" xlink:href="#bJ"/><use transform="matrix(0.07407407407407408,0,0,0.07407407407407408,82.88888888888889,0)" xlink:href="#bI"/></g><g id="aq"><use transform="matrix(0.07407407407407408,0,0,0.07407407407407408,0,0)" xlink:href="#by"/><use transform="matrix(0.07407407407407408,0,0,0.07407407407407408,19.185185185185187,0)" xlink:href="#bG"/><use transform="matrix(0.07407407407407408,0,0,0.07407407407407408,34,0)" xlink:href="#bE"/><use transform="matrix(0.07407407407407408,0,0,0.07407407407407408,47.33333333333334,0)" xlink:href="#bO"/><use transform="matrix(0.07407407407407408,0,0,0.07407407407407408,62.14814814814816,0)" xlink:href="#bK"/><use transform="matrix(0.07407407407407408,0,0,0.07407407407407408,76.96296296296296,0)" xlink:href="#bG"/><use transform="matrix(0.07407407407407408,0,0,0.07407407407407408,91.77777777777777,0)" xlink:href="#bK"/></g><g id="ar"><use transform="matrix(0.07407407407407408,0,0,0.07407407407407408,0,0)" xlink:href="#bx"/><use transform="matrix(0.07407407407407408,0,0,0.07407407407407408,19.185185185185187,0)" xlink:href="#bp"/><use transform="matrix(0.07407407407407408,0,0,0.07407407407407408,38.370370370370374,0)" xlink:href="#bi"/></g><g id="as"><use transform="matrix(0.07407407407407408,0,0,0.07407407407407408,0,0)" xlink:href="#bM"/><use transform="matrix(0.07407407407407408,0,0,0.07407407407407408,5.851851851851853,0)" xlink:href="#bJ"/><use transform="matrix(0.07407407407407408,0,0,0.07407407407407408,20.666666666666668,0)" xlink:href="#bI"/><use transform="matrix(0.07407407407407408,0,0,0.07407407407407408,34.00000000000001,0)" xlink:href="#bT"/><use transform="matrix(0.07407407407407408,0,0,0.07407407407407408,48.814814814814824,0)" xlink:href="#bG"/><use transform="matrix(0.07407407407407408,0,0,0.07407407407407408,63.62962962962964,0)" xlink:href="#bE"/><use transform="matrix(0.07407407407407408,0,0,0.07407407407407408,76.96296296296298,0)" xlink:href="#bC"/><use transform="matrix(0.07407407407407408,0,0,0.07407407407407408,84.37037037037038,0)" xlink:href="#bG"/><use transform="matrix(0.07407407407407408,0,0,0.07407407407407408,99.1851851851852,0)" xlink:href="#bK"/></g><g id="at"><use transform="matrix(0.07407407407407408,0,0,0.07407407407407408,0,0)" xlink:href="#bH"/><use transform="matrix(0.07407407407407408,0,0,0.07407407407407408,8.814814814814817,0)" xlink:href="#bM"/><use transform="matrix(0.07407407407407408,0,0,0.07407407407407408,14.666666666666668,0)" xlink:href="#bI"/><use transform="matrix(0.07407407407407408,0,0,0.07407407407407408,28.000000000000007,0)" xlink:href="#bF"/></g><g id="au"><use transform="matrix(0.07407407407407408,0,0,0.07407407407407408,0,0)" xlink:href="#bD"/><use transform="matrix(0.07407407407407408,0,0,0.07407407407407408,14.814814814814817,0)" xlink:href="#bJ"/><use transform="matrix(0.07407407407407408,0,0,0.07407407407407408,29.629629629629633,0)" xlink:href="#bK"/></g><g id="av"><use transform="matrix(0.07407407407407408,0,0,0.07407407407407408,0,0)" xlink:href="#bH"/><use transform="matrix(0.07407407407407408,0,0,0.07407407407407408,8.814814814814817,0)" xlink:href="#bG"/><use transform="matrix(0.07407407407407408,0,0,0.07407407407407408,23.629629629629633,0)" xlink:href="#bT"/><use transform="matrix(0.07407407407407408,0,0,0.07407407407407408,38.44444444444445,0)" xlink:href="#bU"/><use transform="matrix(0.07407407407407408,0,0,0.07407407407407408,53.25925925925927,0)" xlink:href="#bC"/><use transform="matrix(0.07407407407407408,0,0,0.07407407407407408,60.66666666666667,0)" xlink:href="#bD"/><use transform="matrix(0.07407407407407408,0,0,0.07407407407407408,75.4814814814815,0)" xlink:href="#bC"/><use transform="matrix(0.07407407407407408,0,0,0.07407407407407408,82.8888888888889,0)" xlink:href="#bM"/><use transform="matrix(0.07407407407407408,0,0,0.07407407407407408,88.74074074074075,0)" xlink:href="#bO"/><use transform="matrix(0.07407407407407408,0,0,0.07407407407407408,103.55555555555557,0)" xlink:href="#bJ"/></g><g id="aw"><use transform="matrix(0.07407407407407408,0,0,0.07407407407407408,0,0)" xlink:href="#bx"/><use transform="matrix(0.07407407407407408,0,0,0.07407407407407408,19.185185185185187,0)" xlink:href="#bJ"/><use transform="matrix(0.07407407407407408,0,0,0.07407407407407408,34,0)" xlink:href="#bI"/><use transform="matrix(0.07407407407407408,0,0,0.07407407407407408,47.33333333333334,0)" xlink:href="#bD"/><use transform="matrix(0.07407407407407408,0,0,0.07407407407407408,62.14814814814816,0)" xlink:href="#cb"/><use transform="matrix(0.07407407407407408,0,0,0.07407407407407408,69.55555555555556,0)" xlink:href="#bG"/></g><g id="ax"><use transform="matrix(0.07407407407407408,0,0,0.07407407407407408,0,0)" xlink:href="#bK"/><use transform="matrix(0.07407407407407408,0,0,0.07407407407407408,14.814814814814817,0)" xlink:href="#bG"/><use transform="matrix(0.07407407407407408,0,0,0.07407407407407408,29.629629629629633,0)" xlink:href="#bI"/><use transform="matrix(0.07407407407407408,0,0,0.07407407407407408,42.96296296296297,0)" xlink:href="#bC"/><use transform="matrix(0.07407407407407408,0,0,0.07407407407407408,50.370370370370374,0)" xlink:href="#bM"/><use transform="matrix(0.07407407407407408,0,0,0.07407407407407408,56.222222222222236,0)" xlink:href="#bJ"/><use transform="matrix(0.07407407407407408,0,0,0.07407407407407408,71.03703703703705,0)" xlink:href="#bD"/><use transform="matrix(0.07407407407407408,0,0,0.07407407407407408,85.85185185185188,0)" xlink:href="#bC"/><use transform="matrix(0.07407407407407408,0,0,0.07407407407407408,93.2592592592593,0)" xlink:href="#bM"/><use transform="matrix(0.07407407407407408,0,0,0.07407407407407408,99.11111111111113,0)" xlink:href="#bO"/><use transform="matrix(0.07407407407407408,0,0,0.07407407407407408,113.92592592592595,0)" xlink:href="#bJ"/></g><g id="ay"><use transform="matrix(0.07407407407407408,0,0,0.07407407407407408,0,0)" xlink:href="#cb"/><use transform="matrix(0.07407407407407408,0,0,0.07407407407407408,7.407407407407408,0)" xlink:href="#bN"/><use transform="matrix(0.07407407407407408,0,0,0.07407407407407408,13.259259259259261,0)" xlink:href="#bD"/><use transform="matrix(0.07407407407407408,0,0,0.07407407407407408,28.074074074074076,0)" xlink:href="#bP"/><use transform="matrix(0.07407407407407408,0,0,0.07407407407407408,42.88888888888889,0)" xlink:href="#bP"/><use transform="matrix(0.07407407407407408,0,0,0.07407407407407408,57.70370370370371,0)" xlink:href="#bG"/><use transform="matrix(0.07407407407407408,0,0,0.07407407407407408,72.51851851851853,0)" xlink:href="#bK"/></g><path d="M145-31C134-9 116 4 85 4 32 4 16-35 15-94c0-59 17-99 70-100 32-1 48 14 60 33 0-11-1-24 2-32h30l-1 268h-32zM93-21c41 0 51-33 51-76s-8-73-50-73c-40 0-46 35-46 75s5 74 45 74" id="cg"/><g id="az"><use transform="matrix(0.07407407407407408,0,0,0.07407407407407408,0,0)" xlink:href="#cg"/><use transform="matrix(0.07407407407407408,0,0,0.07407407407407408,14.814814814814817,0)" xlink:href="#bU"/><use transform="matrix(0.07407407407407408,0,0,0.07407407407407408,29.629629629629633,0)" xlink:href="#bD"/><use transform="matrix(0.07407407407407408,0,0,0.07407407407407408,44.44444444444445,0)" xlink:href="#bH"/><use transform="matrix(0.07407407407407408,0,0,0.07407407407407408,53.25925925925927,0)" xlink:href="#bD"/><use transform="matrix(0.07407407407407408,0,0,0.07407407407407408,68.07407407407408,0)" xlink:href="#bJ"/><use transform="matrix(0.07407407407407408,0,0,0.07407407407407408,82.88888888888889,0)" xlink:href="#bC"/><use transform="matrix(0.07407407407407408,0,0,0.07407407407407408,90.29629629629629,0)" xlink:href="#bM"/><use transform="matrix(0.07407407407407408,0,0,0.07407407407407408,96.14814814814814,0)" xlink:href="#bJ"/><use transform="matrix(0.07407407407407408,0,0,0.07407407407407408,110.96296296296296,0)" xlink:href="#bG"/><use transform="matrix(0.07407407407407408,0,0,0.07407407407407408,125.77777777777777,0)" xlink:href="#bK"/></g><path d="M115-194c53 0 69 39 70 98 0 66-23 100-70 100C84 3 66-7 56-30L54 0H23l1-261h32v101c10-23 28-34 59-34zm-8 174c40 0 45-34 45-75 0-40-5-75-45-74-42 0-51 32-51 76 0 43 10 73 51 73" id="ch"/><g id="aA"><use transform="matrix(0.07407407407407408,0,0,0.07407407407407408,0,0)" xlink:href="#ch"/><use transform="matrix(0.07407407407407408,0,0,0.07407407407407408,14.814814814814817,0)" xlink:href="#bG"/><use transform="matrix(0.07407407407407408,0,0,0.07407407407407408,29.629629629629633,0)" xlink:href="#cb"/><use transform="matrix(0.07407407407407408,0,0,0.07407407407407408,37.03703703703704,0)" xlink:href="#bO"/><use transform="matrix(0.07407407407407408,0,0,0.07407407407407408,51.85185185185186,0)" xlink:href="#bH"/><use transform="matrix(0.07407407407407408,0,0,0.07407407407407408,60.66666666666667,0)" xlink:href="#bG"/></g><g id="aB"><use transform="matrix(0.07407407407407408,0,0,0.07407407407407408,0,0)" xlink:href="#bU"/><use transform="matrix(0.07407407407407408,0,0,0.07407407407407408,14.814814814814817,0)" xlink:href="#bI"/><use transform="matrix(0.07407407407407408,0,0,0.07407407407407408,28.148148148148152,0)" xlink:href="#bG"/><use transform="matrix(0.07407407407407408,0,0,0.07407407407407408,42.96296296296297,0)" xlink:href="#bH"/></g><g id="aC"><use transform="matrix(0.07407407407407408,0,0,0.07407407407407408,0,0)" xlink:href="#bM"/><use transform="matrix(0.07407407407407408,0,0,0.07407407407407408,5.851851851851853,0)" xlink:href="#bJ"/><use transform="matrix(0.07407407407407408,0,0,0.07407407407407408,20.666666666666668,0)" xlink:href="#bC"/><use transform="matrix(0.07407407407407408,0,0,0.07407407407407408,28.074074074074076,0)" xlink:href="#bG"/><use transform="matrix(0.07407407407407408,0,0,0.07407407407407408,42.8888888888889,0)" xlink:href="#bH"/><use transform="matrix(0.07407407407407408,0,0,0.07407407407407408,51.70370370370372,0)" xlink:href="#bD"/><use transform="matrix(0.07407407407407408,0,0,0.07407407407407408,66.51851851851853,0)" xlink:href="#bE"/><use transform="matrix(0.07407407407407408,0,0,0.07407407407407408,79.85185185185188,0)" xlink:href="#bC"/><use transform="matrix(0.07407407407407408,0,0,0.07407407407407408,87.25925925925928,0)" xlink:href="#bI"/></g><g id="aD"><use transform="matrix(0.07407407407407408,0,0,0.07407407407407408,0,0)" xlink:href="#bt"/><use transform="matrix(0.07407407407407408,0,0,0.07407407407407408,19.185185185185187,0)" xlink:href="#bO"/></g><g id="aE"><use transform="matrix(0.07407407407407408,0,0,0.07407407407407408,0,0)" xlink:href="#bE"/><use transform="matrix(0.07407407407407408,0,0,0.07407407407407408,13.333333333333336,0)" xlink:href="#bH"/><use transform="matrix(0.07407407407407408,0,0,0.07407407407407408,22.148148148148152,0)" xlink:href="#bG"/><use transform="matrix(0.07407407407407408,0,0,0.07407407407407408,36.96296296296297,0)" xlink:href="#bK"/><use transform="matrix(0.07407407407407408,0,0,0.07407407407407408,51.777777777777786,0)" xlink:href="#bG"/><use transform="matrix(0.07407407407407408,0,0,0.07407407407407408,66.59259259259261,0)" xlink:href="#bJ"/><use transform="matrix(0.07407407407407408,0,0,0.07407407407407408,81.40740740740742,0)" xlink:href="#bC"/><use transform="matrix(0.07407407407407408,0,0,0.07407407407407408,88.81481481481482,0)" xlink:href="#bM"/><use transform="matrix(0.07407407407407408,0,0,0.07407407407407408,94.66666666666669,0)" xlink:href="#bD"/><use transform="matrix(0.07407407407407408,0,0,0.07407407407407408,109.4814814814815,0)" xlink:href="#bN"/></g><g id="aF"><use transform="matrix(0.07407407407407408,0,0,0.07407407407407408,0,0)" xlink:href="#bC"/><use transform="matrix(0.07407407407407408,0,0,0.07407407407407408,7.407407407407408,0)" xlink:href="#ca"/><use transform="matrix(0.07407407407407408,0,0,0.07407407407407408,22.222222222222225,0)" xlink:href="#bG"/><use transform="matrix(0.07407407407407408,0,0,0.07407407407407408,37.03703703703704,0)" xlink:href="#cb"/><use transform="matrix(0.07407407407407408,0,0,0.07407407407407408,44.44444444444444,0)" xlink:href="#bC"/></g><g id="aG"><use transform="matrix(0.07407407407407408,0,0,0.07407407407407408,0,0)" xlink:href="#bO"/><use transform="matrix(0.07407407407407408,0,0,0.07407407407407408,14.814814814814817,0)" xlink:href="#bH"/></g><g id="aH"><use transform="matrix(0.07407407407407408,0,0,0.07407407407407408,0,0)" xlink:href="#bK"/><use transform="matrix(0.07407407407407408,0,0,0.07407407407407408,14.814814814814817,0)" xlink:href="#bO"/><use transform="matrix(0.07407407407407408,0,0,0.07407407407407408,29.629629629629633,0)" xlink:href="#bZ"/><use transform="matrix(0.07407407407407408,0,0,0.07407407407407408,48.814814814814824,0)" xlink:href="#bJ"/><use transform="matrix(0.07407407407407408,0,0,0.07407407407407408,63.62962962962964,0)" xlink:href="#bI"/><use transform="matrix(0.07407407407407408,0,0,0.07407407407407408,76.96296296296298,0)" xlink:href="#bC"/><use transform="matrix(0.07407407407407408,0,0,0.07407407407407408,84.37037037037038,0)" xlink:href="#bH"/><use transform="matrix(0.07407407407407408,0,0,0.07407407407407408,93.18518518518519,0)" xlink:href="#bG"/><use transform="matrix(0.07407407407407408,0,0,0.07407407407407408,108,0)" xlink:href="#bD"/><use transform="matrix(0.07407407407407408,0,0,0.07407407407407408,122.81481481481481,0)" xlink:href="#bL"/></g><g id="aI"><use transform="matrix(0.07407407407407408,0,0,0.07407407407407408,0,0)" xlink:href="#bM"/><use transform="matrix(0.07407407407407408,0,0,0.07407407407407408,5.851851851851853,0)" xlink:href="#bL"/><use transform="matrix(0.07407407407407408,0,0,0.07407407407407408,28.000000000000007,0)" xlink:href="#bT"/><use transform="matrix(0.07407407407407408,0,0,0.07407407407407408,42.814814814814824,0)" xlink:href="#bD"/><use transform="matrix(0.07407407407407408,0,0,0.07407407407407408,57.62962962962964,0)" xlink:href="#bE"/><use transform="matrix(0.07407407407407408,0,0,0.07407407407407408,70.96296296296298,0)" xlink:href="#bC"/></g></defs></g></svg>