<svg width="179" height="27" viewBox="0 0 179 27" fill="none" xmlns="http://www.w3.org/2000/svg">
<path fill-rule="evenodd" clip-rule="evenodd" d="M0 13.5L9.03623 23.0598C14.0021 28.3134 22.1421 28.3134 27.108 23.0598L32.1314 17.7452L31.1282 16.6839L30.1251 15.6227L28.1187 13.5L25.1257 10.3336L23.0953 8.18561C20.3442 5.2751 15.8 5.2751 13.0489 8.18561L12.0383 9.25483L14.0447 11.3773L15.0553 10.3083C16.6987 8.56955 19.4455 8.56955 21.0889 10.3083L21.286 10.5168L23.1192 12.4562L24.106 13.5L26.1123 15.6227L28.1187 17.7452L25.1018 20.9371C21.2431 25.0191 14.901 25.0191 11.0425 20.9371L6.0191 15.6227L4.0127 13.5L2.00643 11.3773L0 13.5ZM8.02557 9.25483L10.032 11.3773L12.0383 13.5L12.5436 14.0345L14.5499 16.1571L15.0553 16.6917C16.6987 18.4305 19.4455 18.4305 21.0889 16.6917L22.0996 15.6227L24.106 17.7452L23.0953 18.8144C20.3442 21.7249 15.8 21.7249 13.0489 18.8144L10.5371 16.1571L8.02557 13.5L6.0191 11.3773L4.53456 9.80693L4.0127 9.25483L9.03623 3.94022C14.0021 -1.31341 22.1421 -1.31341 27.108 3.94022L36.1442 13.5L34.1378 15.6227L32.1314 13.5L30.2721 11.533L25.1018 6.0629C21.2431 1.98085 14.901 1.98085 11.0425 6.0629L8.02557 9.25483ZM16.0511 13.5L17.0616 14.5693C17.5977 15.1362 18.5465 15.1362 19.0826 14.5693L20.0931 13.5L19.0826 12.4308C18.5465 11.8638 17.5977 11.8638 17.0616 12.4308L16.0511 13.5Z" fill="#04E69B"/>
<path d="M45.8559 19.3696C44.2402 19.3696 42.9912 18.9861 42.1089 18.2192C41.2381 17.441 40.7797 16.3639 40.7339 14.988H43.1058C43.1402 15.8339 43.398 16.4767 43.8793 16.9166C44.3605 17.3451 45.0308 17.5594 45.8902 17.5594C46.6923 17.5594 47.3225 17.379 47.7809 17.0181C48.2507 16.6572 48.4856 16.1609 48.4856 15.5293C48.4856 14.4579 47.7752 13.9222 46.3543 13.9222H44.8246C43.5412 13.9222 42.5673 13.629 41.9027 13.0425C41.2381 12.456 40.9058 11.6722 40.9058 10.691C40.9058 9.93536 41.0948 9.28122 41.473 8.72859C41.8626 8.16468 42.424 7.73047 43.1574 7.42596C43.8907 7.11017 44.7673 6.95227 45.7871 6.95227C47.3684 6.95227 48.5715 7.32446 49.3965 8.06882C50.2216 8.8019 50.6513 9.8113 50.6856 11.097H48.3653C48.2965 9.54062 47.4314 8.76243 45.7699 8.76243C44.9793 8.76243 44.3605 8.92596 43.9136 9.25303C43.4667 9.56882 43.2433 10.0087 43.2433 10.5726C43.2433 11.0237 43.398 11.3846 43.7074 11.6553C44.0282 11.9147 44.5381 12.0444 45.2371 12.0444H46.7668C48.1877 12.0444 49.2247 12.3602 49.8778 12.9917C50.5309 13.612 50.8575 14.4184 50.8575 15.4109C50.8575 16.2117 50.657 16.9109 50.2559 17.5087C49.8663 18.0951 49.2934 18.5519 48.5372 18.879C47.7809 19.206 46.8871 19.3696 45.8559 19.3696Z" fill="#090C0B"/>
<path d="M55.8455 19.3696C54.8486 19.3696 54.0579 19.0481 53.4735 18.4053C52.9006 17.7511 52.6142 16.8207 52.6142 15.6139V9.77746H54.7798V15.3602C54.7798 16.1496 54.9345 16.7305 55.2439 17.1027C55.5647 17.4748 56.0059 17.6609 56.5674 17.6609C57.1747 17.6609 57.6788 17.4523 58.0799 17.035C58.4924 16.6177 58.6986 15.9748 58.6986 15.1064V9.77746H60.8643V19.082H58.733V17.6609H58.6986C58.4236 18.2248 58.0398 18.6534 57.5471 18.9466C57.0543 19.2286 56.4871 19.3696 55.8455 19.3696Z" fill="#090C0B"/>
<path d="M68.4726 19.3696C67.7622 19.3696 67.1262 19.2004 66.5648 18.8621C66.0147 18.5237 65.5965 18.0557 65.31 17.4579H65.2757C65.2871 17.6948 65.2929 18.0275 65.2929 18.456V19.082H63.1444V5.86957H65.31V10.4542C65.31 10.8714 65.2986 11.1872 65.2757 11.4015H65.31C65.5965 10.8038 66.0147 10.3357 66.5648 9.99739C67.1262 9.65904 67.7622 9.48987 68.4726 9.48987C69.2289 9.48987 69.9278 9.6816 70.5695 10.0651C71.2112 10.4485 71.7211 11.0124 72.0992 11.7568C72.4888 12.5011 72.6836 13.3921 72.6836 14.4297C72.6836 15.4673 72.4888 16.3583 72.0992 17.1027C71.7211 17.847 71.2112 18.4109 70.5695 18.7944C69.9278 19.1778 69.2289 19.3696 68.4726 19.3696ZM65.2929 14.4297C65.2929 15.4222 65.5163 16.2117 65.9632 16.7981C66.4215 17.3846 67.0403 17.6778 67.8195 17.6778C68.6101 17.6778 69.2289 17.3846 69.6758 16.7981C70.1341 16.2117 70.3633 15.4222 70.3633 14.4297C70.3633 13.4372 70.1341 12.6478 69.6758 12.0613C69.2289 11.4748 68.6101 11.1816 67.8195 11.1816C67.0403 11.1816 66.4215 11.4748 65.9632 12.0613C65.5163 12.6478 65.2929 13.4372 65.2929 14.4297Z" fill="#090C0B"/>
<path d="M74.344 5.86957H76.5097V19.082H74.344V5.86957Z" fill="#090C0B"/>
<path d="M78.796 9.77746H80.9617V19.082H78.796V9.77746ZM78.7617 6.24175H80.9789V8.30566H78.7617V6.24175Z" fill="#090C0B"/>
<path d="M83.2649 9.77746H85.3962V11.1478H85.4305C85.7055 10.6515 86.0722 10.2511 86.5306 9.94664C86.9889 9.64212 87.5274 9.48987 88.1462 9.48987C88.8108 9.48987 89.3837 9.6534 89.865 9.98047C90.3462 10.3075 90.7015 10.7756 90.9306 11.3846H90.965C91.24 10.7869 91.6239 10.3245 92.1166 9.99739C92.6208 9.65904 93.2166 9.48987 93.9041 9.48987C94.8437 9.48987 95.5943 9.80566 96.1557 10.4372C96.7172 11.0688 96.9979 11.9429 96.9979 13.0594V19.082H94.8323V13.2793C94.8323 12.5801 94.6833 12.0613 94.3854 11.723C94.0989 11.3733 93.6979 11.1985 93.1822 11.1985C92.6208 11.1985 92.151 11.4015 91.7728 11.8075C91.4062 12.2136 91.2228 12.8057 91.2228 13.5839V19.082H89.04V13.2793C89.04 12.5801 88.891 12.0613 88.5931 11.723C88.3066 11.3733 87.9113 11.1985 87.4071 11.1985C86.8457 11.1985 86.3759 11.4072 85.9977 11.8245C85.6196 12.2305 85.4305 12.8169 85.4305 13.5839V19.082H83.2649V9.77746Z" fill="#090C0B"/>
<path d="M103.338 19.3696C102.41 19.3696 101.591 19.1722 100.881 18.7775C100.17 18.3827 99.6202 17.8132 99.2306 17.0688C98.841 16.3245 98.6462 15.4448 98.6462 14.4297C98.6462 13.4147 98.841 12.535 99.2306 11.7906C99.6317 11.0463 100.182 10.4767 100.881 10.082C101.591 9.68724 102.405 9.48987 103.321 9.48987C104.192 9.48987 104.971 9.67032 105.659 10.0312C106.346 10.3808 106.885 10.8996 107.274 11.5876C107.664 12.2756 107.859 13.1045 107.859 14.0745V15.0387H100.949C100.984 15.8395 101.219 16.4824 101.654 16.9673C102.09 17.441 102.662 17.6778 103.373 17.6778C103.889 17.6778 104.335 17.5481 104.714 17.2887C105.092 17.0293 105.355 16.6741 105.504 16.223H107.739C107.532 17.1703 107.034 17.9316 106.243 18.5068C105.453 19.082 104.484 19.3696 103.338 19.3696ZM105.676 13.4993C105.676 12.8113 105.47 12.253 105.057 11.8245C104.656 11.3959 104.095 11.1816 103.373 11.1816C102.662 11.1816 102.101 11.3959 101.688 11.8245C101.276 12.253 101.035 12.8113 100.967 13.4993H105.676Z" fill="#090C0B"/>
<path d="M116.757 19.3804C115.233 19.3804 114.052 18.9862 113.216 18.1978C112.379 17.3978 111.932 16.3022 111.875 14.9109H113.491C113.548 15.8848 113.858 16.6326 114.419 17.1544C114.981 17.6761 115.771 17.937 116.791 17.937C117.743 17.937 118.487 17.7167 119.026 17.2761C119.565 16.8239 119.834 16.221 119.834 15.4674C119.834 14.2384 119.026 13.6239 117.41 13.6239H115.846C114.608 13.6239 113.663 13.3283 113.01 12.737C112.368 12.1457 112.047 11.3689 112.047 10.4065C112.047 9.6761 112.23 9.03262 112.597 8.4761C112.975 7.90798 113.514 7.4674 114.213 7.15436C114.912 6.84132 115.726 6.6848 116.654 6.6848C118.121 6.6848 119.244 7.0674 120.023 7.83262C120.802 8.59784 121.221 9.62393 121.278 10.9109H119.662C119.559 9.05581 118.545 8.12827 116.619 8.12827C115.703 8.12827 114.981 8.33117 114.454 8.73697C113.926 9.13117 113.663 9.6761 113.663 10.3718C113.663 11.4964 114.413 12.0587 115.915 12.0587H117.479C118.912 12.0587 119.931 12.3775 120.539 13.0152C121.146 13.6529 121.45 14.4587 121.45 15.4326C121.45 16.2326 121.261 16.9341 120.883 17.537C120.504 18.1283 119.96 18.5862 119.25 18.9109C118.539 19.2239 117.708 19.3804 116.757 19.3804Z" fill="#090C0B"/>
<path d="M127.424 19.3804C126.507 19.3804 125.694 19.1718 124.983 18.7544C124.284 18.337 123.74 17.7515 123.35 16.9978C122.972 16.2326 122.783 15.3457 122.783 14.337C122.783 13.3283 122.978 12.4413 123.367 11.6761C123.757 10.9109 124.295 10.3254 124.983 9.91958C125.682 9.50219 126.484 9.29349 127.39 9.29349C128.238 9.29349 129 9.479 129.676 9.85001C130.364 10.2094 130.902 10.7312 131.292 11.4152C131.681 12.0993 131.876 12.9051 131.876 13.8326V14.8587H124.416C124.473 15.7862 124.771 16.5457 125.31 17.137C125.848 17.7283 126.553 18.0239 127.424 18.0239C128.077 18.0239 128.639 17.8616 129.109 17.537C129.59 17.2007 129.928 16.7486 130.123 16.1804H131.79C131.664 16.8065 131.395 17.3631 130.982 17.85C130.581 18.3254 130.071 18.7022 129.452 18.9804C128.834 19.2471 128.157 19.3804 127.424 19.3804ZM130.26 13.5196C130.26 12.6616 130.008 11.9718 129.504 11.45C129 10.9167 128.312 10.65 127.441 10.65C126.57 10.65 125.883 10.9167 125.378 11.45C124.874 11.9718 124.565 12.6616 124.45 13.5196H130.26Z" fill="#090C0B"/>
<path d="M137.85 19.3804C136.922 19.3804 136.102 19.1718 135.392 18.7544C134.681 18.337 134.131 17.7515 133.742 16.9978C133.352 16.2326 133.157 15.3457 133.157 14.337C133.157 13.3167 133.341 12.4297 133.707 11.6761C134.085 10.9109 134.63 10.3254 135.34 9.91958C136.051 9.50219 136.887 9.29349 137.85 9.29349C138.71 9.29349 139.455 9.4674 140.085 9.81523C140.727 10.1515 141.225 10.6152 141.58 11.2065C141.936 11.7978 142.148 12.4645 142.216 13.2065H140.601C140.543 12.4761 140.268 11.8674 139.775 11.3804C139.294 10.8935 138.652 10.65 137.85 10.65C136.91 10.65 136.16 10.992 135.598 11.6761C135.048 12.3602 134.773 13.2471 134.773 14.337C134.773 15.079 134.905 15.7283 135.168 16.2848C135.444 16.8413 135.81 17.2703 136.269 17.5718C136.738 17.8732 137.266 18.0239 137.85 18.0239C138.377 18.0239 138.836 17.908 139.225 17.6761C139.626 17.4326 139.942 17.1312 140.171 16.7718C140.4 16.4123 140.543 16.0413 140.601 15.6587H142.216C142.125 16.3312 141.896 16.9515 141.529 17.5196C141.162 18.0877 140.664 18.5399 140.033 18.8761C139.414 19.2123 138.687 19.3804 137.85 19.3804Z" fill="#090C0B"/>
<path d="M146.999 19.3804C145.967 19.3804 145.165 19.0268 144.592 18.3196C144.019 17.6123 143.733 16.6036 143.733 15.2935V9.55436H145.28V15.137C145.28 16.1341 145.469 16.8587 145.847 17.3109C146.225 17.7631 146.747 17.9891 147.411 17.9891C148.168 17.9891 148.798 17.7225 149.302 17.1891C149.806 16.6442 150.058 15.8268 150.058 14.737V9.55436H151.606V19.1196H150.093V17.3283H150.058C149.783 18.0007 149.382 18.5109 148.855 18.8587C148.328 19.2065 147.709 19.3804 146.999 19.3804Z" fill="#090C0B"/>
<path d="M154.176 9.55436H155.689V11.2239H155.723C155.975 10.6558 156.273 10.2384 156.617 9.97175C156.972 9.69349 157.5 9.55436 158.199 9.55436H159.11V10.9457H157.992C157.213 10.9457 156.64 11.1775 156.273 11.6413C155.907 12.1051 155.723 12.8007 155.723 13.7283V19.1196H154.176V9.55436Z" fill="#090C0B"/>
<path d="M160.371 9.55436H161.918V19.1196H160.371V9.55436ZM160.354 6.16306H161.935V7.76306H160.354V6.16306Z" fill="#090C0B"/>
<path d="M167.569 19.1196C165.896 19.1196 165.06 18.279 165.06 16.5978V10.9457H163.169V9.55436H165.06V6.94566H166.607V9.55436H169.598V10.9457H166.607V16.5978C166.607 16.992 166.699 17.2819 166.882 17.4674C167.077 17.6413 167.363 17.7283 167.741 17.7283H169.684V19.1196H167.569Z" fill="#090C0B"/>
<path d="M170.199 21.2065H172.708L173.809 18.5978L170.199 9.55436H171.883L174.582 16.7718H174.617L177.315 9.55436H179L174.101 21.8674C173.917 22.3544 173.562 22.5978 173.035 22.5978H170.199V21.2065Z" fill="#090C0B"/>
</svg>
